M48
; DRILL file {KiCad 8.0.5} date 2024-12-04T18:09:49+0900
; FORMAT={-:-/ absolute / inch / decimal}
; #@! TF.CreationDate,2024-12-04T18:09:49+09:00
; #@! TF.GenerationSoftware,Kicad,Pcbnew,8.0.5
; #@! TF.FileFunction,Plated,1,4,PTH
FMAT,2
INCH
; #@! TA.AperFunction,Plated,PTH,ViaDrill
T1C0.0118
; #@! TA.AperFunction,Plated,PTH,ComponentDrill
T2C0.0236
; #@! TA.AperFunction,Plated,PTH,ComponentDrill
T3C0.0315
%
G90
G05
T1
X3.9724Y-3.7913
X3.9724Y-3.8307
X3.9724Y-3.8701
X3.9724Y-3.9094
X3.9724Y-3.9094
X3.9724Y-3.9488
X3.9724Y-3.9882
X3.9803Y-3.5685
X3.9803Y-3.5685
X4.0118Y-3.9488
X4.0512Y-3.9488
X4.0512Y-3.9882
X4.0512Y-4.0276
X4.0512Y-4.0669
X4.0512Y-4.1063
X4.0512Y-4.1457
X4.0866Y-3.3947
X4.0906Y-4.1457
X4.0906Y-4.185
X4.1299Y-4.185
X4.1628Y-4.7134
X4.1693Y-4.185
X4.1772Y-3.4154
X4.1929Y-3.722
X4.2047Y-4.7835
X4.2087Y-4.185
X4.2087Y-4.2766
X4.2165Y-3.4154
X4.2205Y-3.8228
X4.2205Y-3.8543
X4.2244Y-4.8425
X4.2441Y-3.8386
X4.248Y-4.2766
X4.252Y-4.9685
X4.2677Y-3.8228
X4.2677Y-3.8543
X4.2687Y-3.7383
X4.2874Y-3.6142
X4.2874Y-4.2766
X4.2953Y-3.4154
X4.3071Y-4.0488
X4.315Y-3.9488
X4.315Y-5.0305
X4.3268Y-4.2766
X4.3297Y-3.6911
X4.3302Y-3.7387
X4.3307Y-3.6142
X4.3661Y-4.2766
X4.3701Y-3.6142
X4.374Y-3.4154
X4.3819Y-3.9213
X4.3819Y-3.9528
X4.3819Y-3.9882
X4.3819Y-4.0276
X4.4094Y-3.6142
X4.4134Y-3.9528
X4.4134Y-3.9882
X4.4134Y-4.0276
X4.4173Y-4.5709
X4.433Y-4.8702
X4.4463Y-3.5222
X4.4646Y-3.4173
X4.4646Y-3.4173
X4.4803Y-4.1268
X4.5315Y-4.1268
X4.5472Y-4.7732
X4.5906Y-3.7913
X4.5928Y-4.4715
X4.6063Y-4.0906
X4.626Y-5.7283
X4.626Y-5.811
X4.6282Y-4.8091
X4.6339Y-4.4724
X4.6732Y-4.4724
X4.7126Y-4.4724
X4.7953Y-4.2126
X4.7953Y-4.252
X4.7953Y-4.2913
X4.7953Y-4.3307
X4.7953Y-4.3701
X4.8189Y-4.0512
X4.8346Y-4.2126
X4.8701Y-4.0512
X4.874Y-4.2126
X4.874Y-4.2126
X4.874Y-5.7372
X4.8858Y-4.3071
X4.8858Y-4.3465
X4.8858Y-4.3898
X4.8976Y-4.0512
X4.9016Y-4.0512
X4.9016Y-5.7372
X4.911Y-5.8323
X4.9134Y-4.2126
X4.9307Y-5.8126
X4.937Y-4.0512
X4.937Y-4.3071
X4.937Y-4.3465
X4.937Y-4.3898
X4.9528Y-4.2126
X4.9567Y-5.8465
X4.9803Y-4.0512
X4.9921Y-4.1732
X4.9921Y-4.2126
X5.0157Y-5.8031
X5.0197Y-4.0512
X5.0315Y-4.1732
X5.0315Y-4.2126
X5.0315Y-4.252
X5.0512Y-3.9892
X5.0551Y-4.0512
X5.0709Y-4.1732
X5.0945Y-4.0512
X5.1102Y-4.1732
X5.1339Y-4.0512
X5.1457Y-3.9892
X5.1496Y-4.1732
X5.1496Y-4.4843
X5.1732Y-4.0512
X5.189Y-4.1732
X5.189Y-4.4843
X5.2283Y-4.1732
X5.2283Y-4.4843
X5.2362Y-3.9892
X5.252Y-3.7165
X5.2638Y-4.4843
X5.2913Y-4.0512
X5.3031Y-4.4843
X5.3425Y-4.4843
X5.3504Y-3.6457
X5.3583Y-3.5039
X5.3819Y-4.4803
X5.3858Y-3.8071
X5.3937Y-3.7165
X5.4134Y-3.878
X5.4134Y-3.9173
X5.4213Y-4.4803
X5.4291Y-4.3622
X5.4409Y-3.8071
X5.4528Y-3.878
X5.4528Y-3.9173
X5.4567Y-3.5157
X5.4567Y-3.6654
X5.4685Y-4.126
X5.4685Y-4.1654
X5.4685Y-4.2047
X5.4685Y-4.2441
X5.4921Y-3.878
X5.4921Y-3.9173
X5.4921Y-3.9567
X5.4921Y-3.9961
X5.4961Y-3.8071
X5.5039Y-3.5748
X5.5079Y-4.126
X5.5079Y-4.1654
X5.5079Y-4.2047
X5.5079Y-4.2441
X5.5315Y-3.9173
X5.5315Y-3.9567
X5.5315Y-3.9961
X5.5472Y-4.126
X5.5709Y-3.9173
X5.5709Y-3.9567
X5.6102Y-3.9173
X5.6102Y-3.9567
X5.6535Y-3.9173
X5.6732Y-4.1339
X5.7008Y-4.6845
X5.7139Y-4.7158
X5.7165Y-3.7402
X5.7235Y-4.4557
X5.7283Y-4.2167
X5.7402Y-4.9449
X5.748Y-4.5315
X5.7559Y-4.0472
X5.7583Y-4.3488
X5.7756Y-4.8427
X5.7756Y-4.9053
X5.7835Y-4.5276
X5.8031Y-4.0945
X5.8071Y-5.003
X5.8151Y-4.3355
X5.8189Y-4.5236
X5.8282Y-3.9539
X5.8307Y-4.0039
X5.8543Y-4.0236
X5.8622Y-3.9685
X5.8661Y-4.7244
X5.8661Y-4.7638
X5.8661Y-4.8031
X5.8661Y-4.8425
X5.8858Y-4.1929
X5.8898Y-3.9902
X5.9134Y-4.0394
X5.9134Y-4.2165
X5.9173Y-3.7205
X5.9313Y-4.8478
X5.9449Y-4.0079
X5.9528Y-3.6444
X5.9606Y-4.5236
X5.9626Y-3.7933
X5.9685Y-4.0669
X5.9997Y-4.175
X6.0Y-4.3465
X6.0039Y-3.6457
X6.0045Y-3.7706
X6.0118Y-4.252
X6.0157Y-3.8898
X6.0236Y-4.1063
X6.032Y-4.2278
X6.0354Y-3.7205
X6.0354Y-4.5236
X6.0354Y-4.5787
X6.0354Y-4.6339
X6.0497Y-4.0787
X6.0591Y-4.185
X6.0654Y-4.378
X6.0787Y-4.7756
X6.0984Y-4.1417
X6.1142Y-4.4252
X6.1181Y-4.8228
X6.126Y-4.5984
X6.1339Y-4.1142
X6.1339Y-4.3307
X6.1457Y-4.4567
X6.1581Y-4.3104
X6.1614Y-5.7283
X6.1614Y-5.8071
X6.1654Y-3.8465
X6.1811Y-4.4724
X6.2283Y-4.311
X6.2283Y-4.3819
X6.2402Y-4.6693
X6.2402Y-4.6998
X6.2559Y-4.2244
X6.2565Y-4.1904
X6.2756Y-3.626
X6.2756Y-4.1654
X6.2782Y-4.2552
X6.2795Y-4.311
X6.2835Y-4.4055
X6.2835Y-4.4449
X6.2874Y-5.0157
X6.3071Y-3.7756
X6.3425Y-4.2638
X6.3681Y-4.0788
X6.378Y-4.5551
X6.389Y-3.8772
X6.3976Y-5.7372
X6.4094Y-4.2756
X6.4173Y-4.5551
X6.4252Y-5.7372
X6.4409Y-3.8031
X6.4409Y-4.3465
X6.4445Y-5.8343
X6.4528Y-5.7372
X6.4567Y-4.5551
X6.4606Y-3.7598
X6.4646Y-3.8425
X6.4661Y-5.8126
X6.4724Y-4.1732
X6.4803Y-4.3465
X6.4843Y-3.8976
X6.4961Y-4.5551
X6.4961Y-5.8346
X6.5157Y-4.1732
X6.5157Y-4.2205
X6.5197Y-4.3465
X6.5315Y-4.4444
X6.5354Y-4.5551
X6.5433Y-4.0669
X6.5551Y-4.2205
X6.5551Y-5.7953
X6.5827Y-4.0059
X6.5827Y-4.0669
X6.6142Y-4.5551
X6.6157Y-4.018
X6.622Y-4.0669
X6.6339Y-4.1693
X6.6535Y-3.9429
X6.6536Y-4.5556
X6.6614Y-4.0669
X6.6732Y-4.1693
X6.6732Y-4.2087
X6.7126Y-4.1693
X6.7126Y-4.2087
X6.7598Y-4.4028
X6.7638Y-4.1929
X6.7677Y-4.0719
X6.8189Y-4.1693
X6.8583Y-4.0669
X6.8583Y-4.1693
X6.8583Y-4.2087
X6.8701Y-3.7795
X6.8976Y-4.0669
X6.8976Y-4.1693
X6.8976Y-4.2087
X6.9055Y-3.7323
X6.9055Y-4.311
X6.9055Y-4.3543
X6.9055Y-4.3976
X6.9055Y-4.4331
X6.9291Y-3.8307
X6.937Y-4.0669
X6.937Y-4.1693
X6.937Y-4.2087
X6.9764Y-4.0669
X6.9764Y-4.1693
X6.9764Y-4.2087
X7.0157Y-4.1693
X7.0157Y-4.2087
X7.0472Y-3.5984
X7.0531Y-4.0689
X7.0787Y-3.7165
X7.0841Y-4.5371
X7.1103Y-4.5197
X7.1177Y-3.563
X7.1177Y-3.6024
X7.1299Y-4.3189
X7.1349Y-4.5
X7.1457Y-3.8556
X7.1457Y-4.2111
X7.189Y-3.4843
X7.1969Y-4.315
X7.2047Y-3.9665
X7.2047Y-4.0157
X7.2126Y-3.5433
X7.2126Y-3.5827
X7.2126Y-3.6319
X7.2126Y-4.2835
X7.3031Y-4.8228
X7.3031Y-4.8622
X7.3031Y-4.9016
X7.3031Y-4.9331
X7.3228Y-4.4449
X7.3346Y-4.5728
X7.3435Y-4.6299
X7.3583Y-4.0079
X7.378Y-4.9951
X7.4016Y-3.9606
X7.4016Y-4.0079
X7.4073Y-3.6693
X7.4073Y-3.6969
X7.437Y-3.9646
X7.437Y-4.0079
X7.4646Y-3.5984
X7.5058Y-4.8441
X7.5079Y-4.1693
X7.5354Y-3.908
X7.5375Y-4.8011
X7.5591Y-4.5851
X7.5709Y-3.9646
X7.5906Y-4.2953
X7.5984Y-3.622
X7.5984Y-3.622
X7.6063Y-3.6732
X7.6063Y-3.7205
X7.6063Y-5.8612
X7.6496Y-5.8612
X7.6614Y-3.9843
X7.6614Y-3.9843
X7.6614Y-4.248
X7.6654Y-4.7913
X7.6772Y-5.7323
X7.7047Y-5.7323
X7.7205Y-3.7205
X7.7244Y-5.0394
X7.7244Y-5.0906
X7.7283Y-4.2953
X7.7303Y-5.8091
X7.7362Y-5.7638
X7.7756Y-5.0394
X7.7795Y-3.7205
X7.7795Y-4.0354
X7.7795Y-4.3701
X7.7795Y-4.4016
X7.7795Y-5.0945
X7.7835Y-3.5079
X7.7874Y-3.6181
X7.7913Y-5.8465
X7.8055Y-4.6234
X7.815Y-4.9459
X7.8189Y-5.0433
X7.8228Y-5.0945
X7.8425Y-5.7992
T3
X4.122Y-4.3249
X4.122Y-4.4627
X5.1181Y-4.2552
X5.1181Y-4.3536
X5.6496Y-3.4606
X5.6496Y-3.5394
X5.7283Y-3.4606
X5.7283Y-3.5394
T2
G00X6.1646Y-3.4933
M15
G01X6.1646Y-3.4697
M16
G05
G00X6.1646Y-3.6677
M15
G01X6.1646Y-3.6244
M16
G05
G00X6.5047Y-3.4933
M15
G01X6.5047Y-3.4697
M16
G05
G00X6.5047Y-3.6677
M15
G01X6.5047Y-3.6244
M16
G05
M30
