%TF.GenerationSoftware,KiCad,Pcbnew,8.0.5*%
%TF.CreationDate,2024-12-04T18:09:43+09:00*%
%TF.ProjectId,GESC_Logic,47455343-5f4c-46f6-9769-632e6b696361,rev?*%
%TF.SameCoordinates,Original*%
%TF.FileFunction,Soldermask,Top*%
%TF.FilePolarity,Negative*%
%FSLAX46Y46*%
G04 Gerber Fmt 4.6, Leading zero omitted, Abs format (unit mm)*
G04 Created by KiCad (PCBNEW 8.0.5) date 2024-12-04 18:09:43*
%MOMM*%
%LPD*%
G01*
G04 APERTURE LIST*
G04 Aperture macros list*
%AMRoundRect*
0 Rectangle with rounded corners*
0 $1 Rounding radius*
0 $2 $3 $4 $5 $6 $7 $8 $9 X,Y pos of 4 corners*
0 Add a 4 corners polygon primitive as box body*
4,1,4,$2,$3,$4,$5,$6,$7,$8,$9,$2,$3,0*
0 Add four circle primitives for the rounded corners*
1,1,$1+$1,$2,$3*
1,1,$1+$1,$4,$5*
1,1,$1+$1,$6,$7*
1,1,$1+$1,$8,$9*
0 Add four rect primitives between the rounded corners*
20,1,$1+$1,$2,$3,$4,$5,0*
20,1,$1+$1,$4,$5,$6,$7,0*
20,1,$1+$1,$6,$7,$8,$9,0*
20,1,$1+$1,$8,$9,$2,$3,0*%
%AMRotRect*
0 Rectangle, with rotation*
0 The origin of the aperture is its center*
0 $1 length*
0 $2 width*
0 $3 Rotation angle, in degrees counterclockwise*
0 Add horizontal line*
21,1,$1,$2,0,0,$3*%
%AMFreePoly0*
4,1,19,0.500000,-0.750000,0.000000,-0.750000,0.000000,-0.744911,-0.071157,-0.744911,-0.207708,-0.704816,-0.327430,-0.627875,-0.420627,-0.520320,-0.479746,-0.390866,-0.500000,-0.250000,-0.500000,0.250000,-0.479746,0.390866,-0.420627,0.520320,-0.327430,0.627875,-0.207708,0.704816,-0.071157,0.744911,0.000000,0.744911,0.000000,0.750000,0.500000,0.750000,0.500000,-0.750000,0.500000,-0.750000,
$1*%
%AMFreePoly1*
4,1,19,0.000000,0.744911,0.071157,0.744911,0.207708,0.704816,0.327430,0.627875,0.420627,0.520320,0.479746,0.390866,0.500000,0.250000,0.500000,-0.250000,0.479746,-0.390866,0.420627,-0.520320,0.327430,-0.627875,0.207708,-0.704816,0.071157,-0.744911,0.000000,-0.744911,0.000000,-0.750000,-0.500000,-0.750000,-0.500000,0.750000,0.000000,0.750000,0.000000,0.744911,0.000000,0.744911,
$1*%
G04 Aperture macros list end*
%ADD10O,2.050000X0.590000*%
%ADD11RoundRect,0.250000X-0.650000X0.325000X-0.650000X-0.325000X0.650000X-0.325000X0.650000X0.325000X0*%
%ADD12RoundRect,0.150000X-0.700000X0.150000X-0.700000X-0.150000X0.700000X-0.150000X0.700000X0.150000X0*%
%ADD13RoundRect,0.250000X-1.150000X0.250000X-1.150000X-0.250000X1.150000X-0.250000X1.150000X0.250000X0*%
%ADD14RoundRect,0.200000X0.275000X-0.200000X0.275000X0.200000X-0.275000X0.200000X-0.275000X-0.200000X0*%
%ADD15RoundRect,0.135000X-0.135000X-0.185000X0.135000X-0.185000X0.135000X0.185000X-0.135000X0.185000X0*%
%ADD16RoundRect,0.135000X-0.185000X0.135000X-0.185000X-0.135000X0.185000X-0.135000X0.185000X0.135000X0*%
%ADD17RoundRect,0.225000X0.225000X0.250000X-0.225000X0.250000X-0.225000X-0.250000X0.225000X-0.250000X0*%
%ADD18RoundRect,0.250000X-0.625000X0.312500X-0.625000X-0.312500X0.625000X-0.312500X0.625000X0.312500X0*%
%ADD19RoundRect,0.140000X0.170000X-0.140000X0.170000X0.140000X-0.170000X0.140000X-0.170000X-0.140000X0*%
%ADD20RoundRect,0.150000X0.150000X-0.825000X0.150000X0.825000X-0.150000X0.825000X-0.150000X-0.825000X0*%
%ADD21RoundRect,0.218750X-0.256250X0.218750X-0.256250X-0.218750X0.256250X-0.218750X0.256250X0.218750X0*%
%ADD22RoundRect,0.200000X-0.200000X-0.275000X0.200000X-0.275000X0.200000X0.275000X-0.200000X0.275000X0*%
%ADD23RoundRect,0.250000X0.500000X1.100000X-0.500000X1.100000X-0.500000X-1.100000X0.500000X-1.100000X0*%
%ADD24RoundRect,0.200000X0.200000X0.275000X-0.200000X0.275000X-0.200000X-0.275000X0.200000X-0.275000X0*%
%ADD25RoundRect,0.250000X0.625000X-0.312500X0.625000X0.312500X-0.625000X0.312500X-0.625000X-0.312500X0*%
%ADD26RoundRect,0.200000X-0.275000X0.200000X-0.275000X-0.200000X0.275000X-0.200000X0.275000X0.200000X0*%
%ADD27FreePoly0,0.000000*%
%ADD28FreePoly1,0.000000*%
%ADD29RoundRect,0.140000X0.219203X0.021213X0.021213X0.219203X-0.219203X-0.021213X-0.021213X-0.219203X0*%
%ADD30RoundRect,0.135000X0.135000X0.185000X-0.135000X0.185000X-0.135000X-0.185000X0.135000X-0.185000X0*%
%ADD31RoundRect,0.225000X0.335876X0.017678X0.017678X0.335876X-0.335876X-0.017678X-0.017678X-0.335876X0*%
%ADD32RoundRect,0.150000X-0.825000X-0.150000X0.825000X-0.150000X0.825000X0.150000X-0.825000X0.150000X0*%
%ADD33RoundRect,0.140000X-0.170000X0.140000X-0.170000X-0.140000X0.170000X-0.140000X0.170000X0.140000X0*%
%ADD34RoundRect,0.225000X-0.250000X0.225000X-0.250000X-0.225000X0.250000X-0.225000X0.250000X0.225000X0*%
%ADD35RoundRect,0.250000X1.100000X-0.325000X1.100000X0.325000X-1.100000X0.325000X-1.100000X-0.325000X0*%
%ADD36RoundRect,0.140000X-0.140000X-0.170000X0.140000X-0.170000X0.140000X0.170000X-0.140000X0.170000X0*%
%ADD37R,2.500000X3.800000*%
%ADD38RoundRect,0.225000X0.017678X-0.335876X0.335876X-0.017678X-0.017678X0.335876X-0.335876X0.017678X0*%
%ADD39RoundRect,0.225000X-0.225000X-0.250000X0.225000X-0.250000X0.225000X0.250000X-0.225000X0.250000X0*%
%ADD40RoundRect,0.250000X0.475000X-0.250000X0.475000X0.250000X-0.475000X0.250000X-0.475000X-0.250000X0*%
%ADD41RoundRect,0.250000X-0.450000X0.262500X-0.450000X-0.262500X0.450000X-0.262500X0.450000X0.262500X0*%
%ADD42RoundRect,0.140000X0.021213X-0.219203X0.219203X-0.021213X-0.021213X0.219203X-0.219203X0.021213X0*%
%ADD43RoundRect,0.140000X-0.021213X0.219203X-0.219203X0.021213X0.021213X-0.219203X0.219203X-0.021213X0*%
%ADD44R,0.850000X0.280000*%
%ADD45R,0.280000X0.850000*%
%ADD46R,2.700000X1.700000*%
%ADD47RoundRect,0.150000X-0.150000X-0.700000X0.150000X-0.700000X0.150000X0.700000X-0.150000X0.700000X0*%
%ADD48RoundRect,0.250000X-0.250000X-1.150000X0.250000X-1.150000X0.250000X1.150000X-0.250000X1.150000X0*%
%ADD49RoundRect,0.375000X-0.625000X-0.375000X0.625000X-0.375000X0.625000X0.375000X-0.625000X0.375000X0*%
%ADD50RoundRect,0.500000X-0.500000X-1.400000X0.500000X-1.400000X0.500000X1.400000X-0.500000X1.400000X0*%
%ADD51RoundRect,0.225000X0.250000X-0.225000X0.250000X0.225000X-0.250000X0.225000X-0.250000X-0.225000X0*%
%ADD52RoundRect,0.135000X0.185000X-0.135000X0.185000X0.135000X-0.185000X0.135000X-0.185000X-0.135000X0*%
%ADD53RotRect,1.400000X1.200000X225.000000*%
%ADD54R,0.600000X1.000000*%
%ADD55R,4.410000X4.000000*%
%ADD56R,1.600000X1.600000*%
%ADD57C,1.600000*%
%ADD58R,5.820000X2.920000*%
%ADD59R,1.350000X1.350000*%
%ADD60O,1.350000X1.350000*%
%ADD61RoundRect,0.250000X-0.250000X-0.475000X0.250000X-0.475000X0.250000X0.475000X-0.250000X0.475000X0*%
%ADD62RoundRect,0.140000X0.140000X0.170000X-0.140000X0.170000X-0.140000X-0.170000X0.140000X-0.170000X0*%
%ADD63RoundRect,0.250000X-0.475000X0.250000X-0.475000X-0.250000X0.475000X-0.250000X0.475000X0.250000X0*%
%ADD64RoundRect,0.140000X-0.219203X-0.021213X-0.021213X-0.219203X0.219203X0.021213X0.021213X0.219203X0*%
%ADD65RoundRect,0.250000X-1.000000X-0.650000X1.000000X-0.650000X1.000000X0.650000X-1.000000X0.650000X0*%
%ADD66R,0.500000X0.800000*%
%ADD67R,0.400000X0.800000*%
%ADD68FreePoly0,270.000000*%
%ADD69FreePoly1,270.000000*%
%ADD70RoundRect,0.225000X-0.017678X0.335876X-0.335876X0.017678X0.017678X-0.335876X0.335876X-0.017678X0*%
%ADD71RoundRect,0.075000X-0.441942X-0.548008X0.548008X0.441942X0.441942X0.548008X-0.548008X-0.441942X0*%
%ADD72RoundRect,0.075000X0.441942X-0.548008X0.548008X-0.441942X-0.441942X0.548008X-0.548008X0.441942X0*%
%ADD73C,0.650000*%
%ADD74R,0.600000X1.450000*%
%ADD75R,0.300000X1.450000*%
%ADD76O,1.000000X2.100000*%
%ADD77O,1.000000X1.600000*%
G04 APERTURE END LIST*
D10*
%TO.C,U7*%
X108730000Y-120490000D03*
X108730000Y-121770000D03*
X108730000Y-123030000D03*
X108730000Y-124300000D03*
X114270000Y-124300000D03*
X114270000Y-123030000D03*
X114270000Y-121770000D03*
X114270000Y-120490000D03*
%TD*%
D11*
%TO.C,C65*%
X131900000Y-101325000D03*
X131900000Y-104275000D03*
%TD*%
D12*
%TO.C,J10*%
X194550000Y-88250000D03*
X194550000Y-89500000D03*
X194550000Y-90750000D03*
X194550000Y-92000000D03*
X194550000Y-93250000D03*
X194550000Y-94500000D03*
X194550000Y-95750000D03*
D13*
X197900000Y-86400000D03*
X197900000Y-97600000D03*
%TD*%
D14*
%TO.C,R27*%
X149100000Y-88418750D03*
X149100000Y-86768750D03*
%TD*%
D15*
%TO.C,R17*%
X163090001Y-99400000D03*
X164109999Y-99400000D03*
%TD*%
D16*
%TO.C,R2*%
X179975000Y-111685000D03*
X179975000Y-112705000D03*
%TD*%
D17*
%TO.C,C40*%
X153900000Y-113200000D03*
X152350000Y-113200000D03*
%TD*%
%TO.C,C42*%
X148375000Y-116700000D03*
X146825000Y-116700000D03*
%TD*%
D18*
%TO.C,F3*%
X192000000Y-113537500D03*
X192000000Y-116462500D03*
%TD*%
D19*
%TO.C,C7*%
X181975000Y-110675000D03*
X181975000Y-109715000D03*
%TD*%
D20*
%TO.C,U4*%
X120095000Y-148975000D03*
X121365000Y-148975000D03*
X122635000Y-148975000D03*
X123905000Y-148975000D03*
X123905000Y-144025000D03*
X122635000Y-144025000D03*
X121365000Y-144025000D03*
X120095000Y-144025000D03*
%TD*%
D15*
%TO.C,R15*%
X161890001Y-96600000D03*
X162909999Y-96600000D03*
%TD*%
D21*
%TO.C,D5*%
X153300000Y-89981250D03*
X153300000Y-91556250D03*
%TD*%
D22*
%TO.C,R8*%
X180500000Y-102200000D03*
X182150000Y-102200000D03*
%TD*%
D23*
%TO.C,D2*%
X115500000Y-127000000D03*
X110700000Y-127000000D03*
%TD*%
D24*
%TO.C,R40*%
X103525000Y-97440000D03*
X101875000Y-97440000D03*
%TD*%
D25*
%TO.C,F1*%
X181500000Y-106825000D03*
X181500000Y-103900000D03*
%TD*%
D26*
%TO.C,R1*%
X134600000Y-105875000D03*
X134600000Y-107525000D03*
%TD*%
D22*
%TO.C,R33*%
X108875000Y-119000000D03*
X110525000Y-119000000D03*
%TD*%
D27*
%TO.C,J15*%
X138650000Y-103300000D03*
D28*
X139950000Y-103300000D03*
%TD*%
D23*
%TO.C,D3*%
X153400000Y-126300000D03*
X148600000Y-126300000D03*
%TD*%
D29*
%TO.C,C29*%
X148200000Y-109900000D03*
X147521178Y-109221178D03*
%TD*%
D26*
%TO.C,R26*%
X146700000Y-94875000D03*
X146700000Y-96525000D03*
%TD*%
D30*
%TO.C,R46*%
X108210000Y-102190000D03*
X107190000Y-102190000D03*
%TD*%
D31*
%TO.C,C33*%
X141948008Y-110448008D03*
X140851992Y-109351992D03*
%TD*%
D21*
%TO.C,D1*%
X134600000Y-109000000D03*
X134600000Y-110575000D03*
%TD*%
D32*
%TO.C,U3*%
X173000000Y-109290000D03*
X173000000Y-110560000D03*
X173000000Y-111830000D03*
X173000000Y-113100000D03*
X177950000Y-113100000D03*
X177950000Y-111830000D03*
X177950000Y-110560000D03*
X177950000Y-109290000D03*
%TD*%
D33*
%TO.C,C6*%
X181975000Y-111715000D03*
X181975000Y-112675000D03*
%TD*%
D34*
%TO.C,C2*%
X126500000Y-113625000D03*
X126500000Y-115175000D03*
%TD*%
D35*
%TO.C,C45*%
X105400000Y-89175000D03*
X105400000Y-86225000D03*
%TD*%
D22*
%TO.C,R39*%
X102225000Y-92040000D03*
X103875000Y-92040000D03*
%TD*%
D17*
%TO.C,C20*%
X196975000Y-124700000D03*
X195425000Y-124700000D03*
%TD*%
D19*
%TO.C,C59*%
X108225000Y-105600000D03*
X108225000Y-104640000D03*
%TD*%
D17*
%TO.C,C43*%
X188075000Y-116800000D03*
X186525000Y-116800000D03*
%TD*%
D34*
%TO.C,C3*%
X129500000Y-113625000D03*
X129500000Y-115175000D03*
%TD*%
D22*
%TO.C,R35*%
X146775000Y-118200000D03*
X148425000Y-118200000D03*
%TD*%
D36*
%TO.C,C58*%
X107220000Y-101190000D03*
X108180000Y-101190000D03*
%TD*%
D21*
%TO.C,D7*%
X151200000Y-89981250D03*
X151200000Y-91556250D03*
%TD*%
D14*
%TO.C,R23*%
X158500000Y-115825000D03*
X158500000Y-114175000D03*
%TD*%
D37*
%TO.C,L2*%
X119200000Y-110400000D03*
X124800000Y-110400000D03*
%TD*%
D33*
%TO.C,C8*%
X180975000Y-111715000D03*
X180975000Y-112675000D03*
%TD*%
D38*
%TO.C,C14*%
X144751992Y-112248008D03*
X145848008Y-111151992D03*
%TD*%
D17*
%TO.C,C13*%
X143575000Y-115000000D03*
X142025000Y-115000000D03*
%TD*%
D39*
%TO.C,C22*%
X170625000Y-97000000D03*
X172175000Y-97000000D03*
%TD*%
D33*
%TO.C,C56*%
X111100000Y-96880000D03*
X111100000Y-97840000D03*
%TD*%
D40*
%TO.C,C49*%
X108100000Y-88650000D03*
X108100000Y-86750000D03*
%TD*%
D17*
%TO.C,C19*%
X156975000Y-125100000D03*
X155425000Y-125100000D03*
%TD*%
D41*
%TO.C,R32*%
X112200000Y-117187500D03*
X112200000Y-119012500D03*
%TD*%
D22*
%TO.C,R4*%
X117250000Y-127000000D03*
X118900000Y-127000000D03*
%TD*%
D42*
%TO.C,C34*%
X159760589Y-104939411D03*
X160439411Y-104260589D03*
%TD*%
D10*
%TO.C,U9*%
X187130000Y-119990000D03*
X187130000Y-121270000D03*
X187130000Y-122530000D03*
X187130000Y-123800000D03*
X192670000Y-123800000D03*
X192670000Y-122530000D03*
X192670000Y-121270000D03*
X192670000Y-119990000D03*
%TD*%
D43*
%TO.C,C30*%
X143839411Y-104060589D03*
X143160589Y-104739411D03*
%TD*%
D22*
%TO.C,R5*%
X155375000Y-126700000D03*
X157025000Y-126700000D03*
%TD*%
D11*
%TO.C,C64*%
X134300000Y-101325000D03*
X134300000Y-104275000D03*
%TD*%
D22*
%TO.C,R20*%
X167465000Y-92220000D03*
X169115000Y-92220000D03*
%TD*%
D44*
%TO.C,U11*%
X105500000Y-98290000D03*
D45*
X106000000Y-99290000D03*
X106500000Y-99290000D03*
X107000000Y-99290000D03*
X107500000Y-99290000D03*
X108000000Y-99290000D03*
X108500000Y-99290000D03*
X109000000Y-99290000D03*
X109500000Y-99290000D03*
D44*
X110000000Y-98290000D03*
X110000000Y-96790000D03*
D45*
X109500000Y-95790000D03*
X109000000Y-95790000D03*
X108500000Y-95790000D03*
X108000000Y-95790000D03*
X107500000Y-95790000D03*
X107000000Y-95790000D03*
X106500000Y-95790000D03*
X106000000Y-95790000D03*
D44*
X105500000Y-96790000D03*
D46*
X107750000Y-97540000D03*
%TD*%
D25*
%TO.C,F2*%
X191400000Y-99262500D03*
X191400000Y-96337500D03*
%TD*%
D34*
%TO.C,C11*%
X126000000Y-145725000D03*
X126000000Y-147275000D03*
%TD*%
D47*
%TO.C,J1*%
X136100000Y-90750000D03*
X137350000Y-90750000D03*
X138600000Y-90750000D03*
D48*
X134250000Y-87400000D03*
X140450000Y-87400000D03*
%TD*%
D22*
%TO.C,R19*%
X170575000Y-98500000D03*
X172225000Y-98500000D03*
%TD*%
D15*
%TO.C,R11*%
X180790000Y-90000000D03*
X181810000Y-90000000D03*
%TD*%
D33*
%TO.C,C23*%
X162200000Y-99420000D03*
X162200000Y-100380000D03*
%TD*%
D17*
%TO.C,C18*%
X118850000Y-125500000D03*
X117300000Y-125500000D03*
%TD*%
D39*
%TO.C,C39*%
X149250000Y-113200000D03*
X150800000Y-113200000D03*
%TD*%
D24*
%TO.C,R48*%
X107025000Y-105000000D03*
X105375000Y-105000000D03*
%TD*%
D49*
%TO.C,U2*%
X135250000Y-94400000D03*
X135250000Y-96700000D03*
D50*
X141550000Y-96700000D03*
D49*
X135250000Y-99000000D03*
%TD*%
D51*
%TO.C,C17*%
X186700000Y-126875000D03*
X186700000Y-125325000D03*
%TD*%
D22*
%TO.C,R6*%
X195375000Y-126200000D03*
X197025000Y-126200000D03*
%TD*%
D52*
%TO.C,R44*%
X110100000Y-102200000D03*
X110100000Y-101180000D03*
%TD*%
D12*
%TO.C,J8*%
X194550000Y-109125000D03*
X194550000Y-110375000D03*
X194550000Y-111625000D03*
X194550000Y-112875000D03*
D13*
X197900000Y-107275000D03*
X197900000Y-114725000D03*
%TD*%
D14*
%TO.C,R31*%
X163500000Y-114825000D03*
X163500000Y-113175000D03*
%TD*%
D53*
%TO.C,Y1*%
X143676777Y-106521142D03*
X142121142Y-108076777D03*
X143323223Y-109278858D03*
X144878858Y-107723223D03*
%TD*%
D12*
%TO.C,J6*%
X184400000Y-99500000D03*
X184400000Y-100750000D03*
X184400000Y-102000000D03*
X184400000Y-103250000D03*
D13*
X187750000Y-97650000D03*
X187750000Y-105100000D03*
%TD*%
D54*
%TO.C,Q1*%
X113190000Y-104820000D03*
X114470000Y-104820000D03*
X115730000Y-104820000D03*
X117000000Y-104820000D03*
X117000000Y-98980000D03*
X115730000Y-98980000D03*
X114470000Y-98980000D03*
X113190000Y-98980000D03*
D55*
X115100000Y-101290000D03*
%TD*%
D24*
%TO.C,R42*%
X103550000Y-99040000D03*
X101900000Y-99040000D03*
%TD*%
D29*
%TO.C,C35*%
X147439411Y-110639411D03*
X146760589Y-109960589D03*
%TD*%
D51*
%TO.C,C5*%
X144000000Y-94175000D03*
X144000000Y-92625000D03*
%TD*%
D17*
%TO.C,C12*%
X142900000Y-112300000D03*
X141350000Y-112300000D03*
%TD*%
D56*
%TO.C,C62*%
X104700000Y-113352651D03*
D57*
X104700000Y-109852651D03*
%TD*%
D34*
%TO.C,C10*%
X197900000Y-145750000D03*
X197900000Y-147300000D03*
%TD*%
D18*
%TO.C,F4*%
X181500000Y-95007500D03*
X181500000Y-97932500D03*
%TD*%
D39*
%TO.C,C38*%
X146250000Y-113300000D03*
X147800000Y-113300000D03*
%TD*%
D26*
%TO.C,R29*%
X142200000Y-101675000D03*
X142200000Y-103325000D03*
%TD*%
D22*
%TO.C,R22*%
X156775000Y-117300000D03*
X158425000Y-117300000D03*
%TD*%
D43*
%TO.C,C28*%
X154739411Y-109960589D03*
X154060589Y-110639411D03*
%TD*%
D12*
%TO.C,J7*%
X194550000Y-101875000D03*
X194550000Y-103125000D03*
D13*
X197900000Y-100025000D03*
X197900000Y-104975000D03*
%TD*%
D41*
%TO.C,R34*%
X150100000Y-116487500D03*
X150100000Y-118312500D03*
%TD*%
D34*
%TO.C,C9*%
X165000000Y-145725000D03*
X165000000Y-147275000D03*
%TD*%
D39*
%TO.C,C4*%
X136725000Y-101200000D03*
X138275000Y-101200000D03*
%TD*%
D51*
%TO.C,C16*%
X146700000Y-127075000D03*
X146700000Y-125525000D03*
%TD*%
D24*
%TO.C,R49*%
X111025000Y-105600000D03*
X109375000Y-105600000D03*
%TD*%
D33*
%TO.C,C53*%
X171000000Y-110740000D03*
X171000000Y-111700000D03*
%TD*%
D40*
%TO.C,C47*%
X112120000Y-88650000D03*
X112120000Y-86750000D03*
%TD*%
D16*
%TO.C,R3*%
X179975000Y-109685000D03*
X179975000Y-110705000D03*
%TD*%
D22*
%TO.C,R10*%
X180500000Y-100700000D03*
X182150000Y-100700000D03*
%TD*%
D34*
%TO.C,C1*%
X128000000Y-113625000D03*
X128000000Y-115175000D03*
%TD*%
D36*
%TO.C,C55*%
X106020000Y-93740000D03*
X106980000Y-93740000D03*
%TD*%
D43*
%TO.C,C37*%
X155039411Y-111060589D03*
X154360589Y-111739411D03*
%TD*%
D15*
%TO.C,R14*%
X180790000Y-92000000D03*
X181810000Y-92000000D03*
%TD*%
%TO.C,R21*%
X162300000Y-95400000D03*
X163320000Y-95400000D03*
%TD*%
D52*
%TO.C,R43*%
X109100000Y-102200000D03*
X109100000Y-101180000D03*
%TD*%
D14*
%TO.C,R25*%
X153300000Y-88418750D03*
X153300000Y-86768750D03*
%TD*%
D17*
%TO.C,C41*%
X110475000Y-117500000D03*
X108925000Y-117500000D03*
%TD*%
D51*
%TO.C,C61*%
X110400000Y-112875000D03*
X110400000Y-111325000D03*
%TD*%
D58*
%TO.C,L1*%
X125400000Y-87070000D03*
X125400000Y-98330000D03*
%TD*%
D34*
%TO.C,C44*%
X162000000Y-113225000D03*
X162000000Y-114775000D03*
%TD*%
D20*
%TO.C,U6*%
X191195000Y-148875000D03*
X192465000Y-148875000D03*
X193735000Y-148875000D03*
X195005000Y-148875000D03*
X195005000Y-143925000D03*
X193735000Y-143925000D03*
X192465000Y-143925000D03*
X191195000Y-143925000D03*
%TD*%
D30*
%TO.C,R24*%
X157210000Y-95300000D03*
X156190000Y-95300000D03*
%TD*%
D22*
%TO.C,R37*%
X186450000Y-118400000D03*
X188100000Y-118400000D03*
%TD*%
D41*
%TO.C,R36*%
X189800000Y-116587500D03*
X189800000Y-118412500D03*
%TD*%
D42*
%TO.C,C36*%
X154160589Y-95239411D03*
X154839411Y-94560589D03*
%TD*%
D11*
%TO.C,C66*%
X129500000Y-101325000D03*
X129500000Y-104275000D03*
%TD*%
D22*
%TO.C,R9*%
X190675000Y-103200000D03*
X192325000Y-103200000D03*
%TD*%
D59*
%TO.C,J11*%
X143500000Y-87900000D03*
D60*
X145500000Y-87900000D03*
X143500000Y-89900000D03*
X145500000Y-89900000D03*
%TD*%
D61*
%TO.C,R41*%
X101550000Y-94740000D03*
X103450000Y-94740000D03*
%TD*%
D42*
%TO.C,C32*%
X143560589Y-100739411D03*
X144239411Y-100060589D03*
%TD*%
D62*
%TO.C,C52*%
X103460000Y-96240000D03*
X102500000Y-96240000D03*
%TD*%
D20*
%TO.C,U5*%
X159095000Y-148975000D03*
X160365000Y-148975000D03*
X161635000Y-148975000D03*
X162905000Y-148975000D03*
X162905000Y-144025000D03*
X161635000Y-144025000D03*
X160365000Y-144025000D03*
X159095000Y-144025000D03*
%TD*%
D63*
%TO.C,R45*%
X111200000Y-93740000D03*
X111200000Y-95640000D03*
%TD*%
%TO.C,C50*%
X104800000Y-101490000D03*
X104800000Y-103390000D03*
%TD*%
D64*
%TO.C,C27*%
X156160589Y-110760589D03*
X156839411Y-111439411D03*
%TD*%
D39*
%TO.C,C21*%
X190725000Y-101700000D03*
X192275000Y-101700000D03*
%TD*%
D35*
%TO.C,C46*%
X102200000Y-89175000D03*
X102200000Y-86225000D03*
%TD*%
D24*
%TO.C,R47*%
X111025000Y-104100000D03*
X109375000Y-104100000D03*
%TD*%
D22*
%TO.C,R7*%
X190675000Y-104700000D03*
X192325000Y-104700000D03*
%TD*%
D12*
%TO.C,J2*%
X184400000Y-109125000D03*
X184400000Y-110375000D03*
X184400000Y-111625000D03*
X184400000Y-112875000D03*
D13*
X187750000Y-107275000D03*
X187750000Y-114725000D03*
%TD*%
D22*
%TO.C,R18*%
X167475000Y-90700000D03*
X169125000Y-90700000D03*
%TD*%
D21*
%TO.C,D6*%
X149100000Y-89993750D03*
X149100000Y-91568750D03*
%TD*%
D15*
%TO.C,R13*%
X180790000Y-91000000D03*
X181810000Y-91000000D03*
%TD*%
D20*
%TO.C,U1*%
X112195000Y-113575000D03*
X113465000Y-113575000D03*
X114735000Y-113575000D03*
X116005000Y-113575000D03*
X116005000Y-108625000D03*
X114735000Y-108625000D03*
X113465000Y-108625000D03*
X112195000Y-108625000D03*
%TD*%
D65*
%TO.C,D8*%
X120100000Y-105000000D03*
X124100000Y-105000000D03*
%TD*%
D11*
%TO.C,C60*%
X127100000Y-101325000D03*
X127100000Y-104275000D03*
%TD*%
D33*
%TO.C,C57*%
X106300000Y-101210000D03*
X106300000Y-102170000D03*
%TD*%
D56*
%TO.C,C63*%
X130000000Y-110582380D03*
D57*
X130000000Y-108082380D03*
%TD*%
D61*
%TO.C,C51*%
X105500000Y-91740000D03*
X107400000Y-91740000D03*
%TD*%
D41*
%TO.C,R30*%
X167000000Y-112887500D03*
X167000000Y-114712500D03*
%TD*%
D51*
%TO.C,C15*%
X108900000Y-127775000D03*
X108900000Y-126225000D03*
%TD*%
D14*
%TO.C,R38*%
X165040000Y-114825000D03*
X165040000Y-113175000D03*
%TD*%
D12*
%TO.C,J12*%
X174500000Y-97250000D03*
X174500000Y-98500000D03*
X174500000Y-99750000D03*
D13*
X177850000Y-95400000D03*
X177850000Y-101600000D03*
%TD*%
D14*
%TO.C,R28*%
X151200000Y-88418750D03*
X151200000Y-86768750D03*
%TD*%
D10*
%TO.C,U8*%
X146630000Y-119990000D03*
X146630000Y-121270000D03*
X146630000Y-122530000D03*
X146630000Y-123800000D03*
X152170000Y-123800000D03*
X152170000Y-122530000D03*
X152170000Y-121270000D03*
X152170000Y-119990000D03*
%TD*%
D66*
%TO.C,RN1*%
X172300000Y-93600000D03*
D67*
X171500000Y-93600000D03*
X170700000Y-93600000D03*
D66*
X169900000Y-93600000D03*
X169900000Y-95400000D03*
D67*
X170700000Y-95400000D03*
X171500000Y-95400000D03*
D66*
X172300000Y-95400000D03*
%TD*%
D33*
%TO.C,C24*%
X161500000Y-97520000D03*
X161500000Y-98480000D03*
%TD*%
D36*
%TO.C,C54*%
X108420000Y-93840000D03*
X109380000Y-93840000D03*
%TD*%
D68*
%TO.C,J14*%
X144600000Y-95900000D03*
D69*
X144600000Y-97200000D03*
%TD*%
D12*
%TO.C,J9*%
X184400000Y-88500000D03*
X184400000Y-89750000D03*
X184400000Y-91000000D03*
X184400000Y-92250000D03*
X184400000Y-93500000D03*
D13*
X187750000Y-86650000D03*
X187750000Y-95350000D03*
%TD*%
D19*
%TO.C,C25*%
X161000000Y-96580000D03*
X161000000Y-95620000D03*
%TD*%
D40*
%TO.C,C48*%
X110120000Y-88650000D03*
X110120000Y-86750000D03*
%TD*%
D64*
%TO.C,C26*%
X156860589Y-110060589D03*
X157539411Y-110739411D03*
%TD*%
D15*
%TO.C,R16*%
X162490001Y-97600000D03*
X163509999Y-97600000D03*
%TD*%
D70*
%TO.C,C31*%
X142300000Y-105600000D03*
X141203984Y-106696016D03*
%TD*%
D23*
%TO.C,D4*%
X193300000Y-126200000D03*
X188500000Y-126200000D03*
%TD*%
D54*
%TO.C,Q3*%
X113190000Y-97120000D03*
X114470000Y-97120000D03*
X115730000Y-97120000D03*
X117000000Y-97120000D03*
X117000000Y-91280000D03*
X115730000Y-91280000D03*
X114470000Y-91280000D03*
X113190000Y-91280000D03*
D55*
X115100000Y-93590000D03*
%TD*%
D71*
%TO.C,U10*%
X144935519Y-104261181D03*
X145289072Y-104614734D03*
X145642625Y-104968287D03*
X145996179Y-105321841D03*
X146349732Y-105675394D03*
X146703286Y-106028948D03*
X147056839Y-106382501D03*
X147410392Y-106736054D03*
X147763946Y-107089608D03*
X148117499Y-107443161D03*
X148471052Y-107796714D03*
X148824606Y-108150268D03*
X149178159Y-108503821D03*
X149531713Y-108857375D03*
X149885266Y-109210928D03*
X150238819Y-109564481D03*
D72*
X152961181Y-109564481D03*
X153314734Y-109210928D03*
X153668287Y-108857375D03*
X154021841Y-108503821D03*
X154375394Y-108150268D03*
X154728948Y-107796714D03*
X155082501Y-107443161D03*
X155436054Y-107089608D03*
X155789608Y-106736054D03*
X156143161Y-106382501D03*
X156496714Y-106028948D03*
X156850268Y-105675394D03*
X157203821Y-105321841D03*
X157557375Y-104968287D03*
X157910928Y-104614734D03*
X158264481Y-104261181D03*
D71*
X158264481Y-101538819D03*
X157910928Y-101185266D03*
X157557375Y-100831713D03*
X157203821Y-100478159D03*
X156850268Y-100124606D03*
X156496714Y-99771052D03*
X156143161Y-99417499D03*
X155789608Y-99063946D03*
X155436054Y-98710392D03*
X155082501Y-98356839D03*
X154728948Y-98003286D03*
X154375394Y-97649732D03*
X154021841Y-97296179D03*
X153668287Y-96942625D03*
X153314734Y-96589072D03*
X152961181Y-96235519D03*
D72*
X150238819Y-96235519D03*
X149885266Y-96589072D03*
X149531713Y-96942625D03*
X149178159Y-97296179D03*
X148824606Y-97649732D03*
X148471052Y-98003286D03*
X148117499Y-98356839D03*
X147763946Y-98710392D03*
X147410392Y-99063946D03*
X147056839Y-99417499D03*
X146703286Y-99771052D03*
X146349732Y-100124606D03*
X145996179Y-100478159D03*
X145642625Y-100831713D03*
X145289072Y-101185266D03*
X144935519Y-101538819D03*
%TD*%
D73*
%TO.C,J13*%
X163790000Y-92080000D03*
X158010000Y-92080000D03*
D74*
X164150000Y-93525000D03*
X163350000Y-93525000D03*
D75*
X162150000Y-93525000D03*
X161150000Y-93525000D03*
X160650000Y-93525000D03*
X159650000Y-93525000D03*
D74*
X158450000Y-93525000D03*
X157650000Y-93525000D03*
X157650000Y-93525000D03*
X158450000Y-93525000D03*
D75*
X159150000Y-93525000D03*
X160150000Y-93525000D03*
X161650000Y-93525000D03*
X162650000Y-93525000D03*
D74*
X163350000Y-93525000D03*
X164150000Y-93525000D03*
D76*
X165220000Y-92610000D03*
D77*
X165220000Y-88430000D03*
D76*
X156580000Y-92610000D03*
D77*
X156580000Y-88430000D03*
%TD*%
D18*
%TO.C,F5*%
X171900000Y-100500000D03*
X171900000Y-103425000D03*
%TD*%
M02*
