%TF.GenerationSoftware,KiCad,Pcbnew,8.0.5*%
%TF.CreationDate,2024-12-04T18:09:43+09:00*%
%TF.ProjectId,GESC_Logic,47455343-5f4c-46f6-9769-632e6b696361,rev?*%
%TF.SameCoordinates,Original*%
%TF.FileFunction,Soldermask,Bot*%
%TF.FilePolarity,Negative*%
%FSLAX46Y46*%
G04 Gerber Fmt 4.6, Leading zero omitted, Abs format (unit mm)*
G04 Created by KiCad (PCBNEW 8.0.5) date 2024-12-04 18:09:43*
%MOMM*%
%LPD*%
G01*
G04 APERTURE LIST*
G04 Aperture macros list*
%AMRoundRect*
0 Rectangle with rounded corners*
0 $1 Rounding radius*
0 $2 $3 $4 $5 $6 $7 $8 $9 X,Y pos of 4 corners*
0 Add a 4 corners polygon primitive as box body*
4,1,4,$2,$3,$4,$5,$6,$7,$8,$9,$2,$3,0*
0 Add four circle primitives for the rounded corners*
1,1,$1+$1,$2,$3*
1,1,$1+$1,$4,$5*
1,1,$1+$1,$6,$7*
1,1,$1+$1,$8,$9*
0 Add four rect primitives between the rounded corners*
20,1,$1+$1,$2,$3,$4,$5,0*
20,1,$1+$1,$4,$5,$6,$7,0*
20,1,$1+$1,$6,$7,$8,$9,0*
20,1,$1+$1,$8,$9,$2,$3,0*%
%AMFreePoly0*
4,1,19,0.500000,-0.750000,0.000000,-0.750000,0.000000,-0.744911,-0.071157,-0.744911,-0.207708,-0.704816,-0.327430,-0.627875,-0.420627,-0.520320,-0.479746,-0.390866,-0.500000,-0.250000,-0.500000,0.250000,-0.479746,0.390866,-0.420627,0.520320,-0.327430,0.627875,-0.207708,0.704816,-0.071157,0.744911,0.000000,0.744911,0.000000,0.750000,0.500000,0.750000,0.500000,-0.750000,0.500000,-0.750000,
$1*%
%AMFreePoly1*
4,1,19,0.000000,0.744911,0.071157,0.744911,0.207708,0.704816,0.327430,0.627875,0.420627,0.520320,0.479746,0.390866,0.500000,0.250000,0.500000,-0.250000,0.479746,-0.390866,0.420627,-0.520320,0.327430,-0.627875,0.207708,-0.704816,0.071157,-0.744911,0.000000,-0.744911,0.000000,-0.750000,-0.500000,-0.750000,-0.500000,0.750000,0.000000,0.750000,0.000000,0.744911,0.000000,0.744911,
$1*%
G04 Aperture macros list end*
%ADD10R,1.600000X1.600000*%
%ADD11C,1.600000*%
%ADD12R,1.350000X1.350000*%
%ADD13O,1.350000X1.350000*%
%ADD14C,0.650000*%
%ADD15O,1.000000X2.100000*%
%ADD16O,1.000000X1.600000*%
%ADD17R,1.000000X2.750000*%
%ADD18FreePoly0,90.000000*%
%ADD19FreePoly1,90.000000*%
%ADD20R,1.000000X2.580000*%
%ADD21RoundRect,0.200000X0.275000X-0.200000X0.275000X0.200000X-0.275000X0.200000X-0.275000X-0.200000X0*%
G04 APERTURE END LIST*
D10*
%TO.C,C62*%
X104700000Y-113352651D03*
D11*
X104700000Y-109852651D03*
%TD*%
D12*
%TO.C,J11*%
X143500000Y-87900000D03*
D13*
X145500000Y-87900000D03*
X143500000Y-89900000D03*
X145500000Y-89900000D03*
%TD*%
D10*
%TO.C,C63*%
X130000000Y-110582380D03*
D11*
X130000000Y-108082380D03*
%TD*%
D14*
%TO.C,J13*%
X163790000Y-92080000D03*
X158010000Y-92080000D03*
D15*
X165220000Y-92610000D03*
D16*
X165220000Y-88430000D03*
D15*
X156580000Y-92610000D03*
D16*
X156580000Y-88430000D03*
%TD*%
D17*
%TO.C,J17*%
X156500000Y-143375000D03*
X156500000Y-149625000D03*
%TD*%
%TO.C,J4*%
X154500000Y-125625000D03*
X154500000Y-119375000D03*
X156500000Y-125625000D03*
X156500000Y-119375000D03*
X158500000Y-125625000D03*
X158500000Y-119375000D03*
%TD*%
%TO.C,J16*%
X117500000Y-143375000D03*
X117500000Y-149625000D03*
%TD*%
D18*
%TO.C,JP1*%
X189600000Y-93800000D03*
D19*
X189600000Y-92500000D03*
%TD*%
D17*
%TO.C,J18*%
X196500000Y-143375000D03*
X196500000Y-149625000D03*
%TD*%
%TO.C,J5*%
X194500000Y-125625000D03*
X194500000Y-119375000D03*
X196500000Y-125625000D03*
X196500000Y-119375000D03*
X198500000Y-125625000D03*
X198500000Y-119375000D03*
%TD*%
D20*
%TO.C,J3*%
X118500000Y-124585000D03*
X118500000Y-120415000D03*
X116500000Y-124585000D03*
X116500000Y-120415000D03*
%TD*%
D21*
%TO.C,R12*%
X191600000Y-93950000D03*
X191600000Y-92300000D03*
%TD*%
M02*
