%TF.GenerationSoftware,KiCad,Pcbnew,8.0.5*%
%TF.CreationDate,2024-12-04T18:09:43+09:00*%
%TF.ProjectId,GESC_Logic,47455343-5f4c-46f6-9769-632e6b696361,rev?*%
%TF.SameCoordinates,Original*%
%TF.FileFunction,Copper,L3,Inr*%
%TF.FilePolarity,Positive*%
%FSLAX46Y46*%
G04 Gerber Fmt 4.6, Leading zero omitted, Abs format (unit mm)*
G04 Created by KiCad (PCBNEW 8.0.5) date 2024-12-04 18:09:43*
%MOMM*%
%LPD*%
G01*
G04 APERTURE LIST*
%TA.AperFunction,ComponentPad*%
%ADD10R,1.600000X1.600000*%
%TD*%
%TA.AperFunction,ComponentPad*%
%ADD11C,1.600000*%
%TD*%
%TA.AperFunction,ComponentPad*%
%ADD12R,1.350000X1.350000*%
%TD*%
%TA.AperFunction,ComponentPad*%
%ADD13O,1.350000X1.350000*%
%TD*%
%TA.AperFunction,ComponentPad*%
%ADD14O,1.000000X2.100000*%
%TD*%
%TA.AperFunction,ComponentPad*%
%ADD15O,1.000000X1.600000*%
%TD*%
%TA.AperFunction,ViaPad*%
%ADD16C,0.600000*%
%TD*%
%TA.AperFunction,Conductor*%
%ADD17C,1.000000*%
%TD*%
%TA.AperFunction,Conductor*%
%ADD18C,0.200000*%
%TD*%
%TA.AperFunction,Conductor*%
%ADD19C,0.600000*%
%TD*%
%TA.AperFunction,Conductor*%
%ADD20C,0.500000*%
%TD*%
G04 APERTURE END LIST*
D10*
%TO.N,+12V*%
%TO.C,C62*%
X104700000Y-113352651D03*
D11*
%TO.N,GND*%
X104700000Y-109852651D03*
%TD*%
D12*
%TO.N,GND*%
%TO.C,J11*%
X143500000Y-87900000D03*
D13*
%TO.N,SWCLK*%
X145500000Y-87900000D03*
%TO.N,SWDIO*%
X143500000Y-89900000D03*
%TO.N,+3V3*%
X145500000Y-89900000D03*
%TD*%
D10*
%TO.N,+5V*%
%TO.C,C63*%
X130000000Y-110582380D03*
D11*
%TO.N,GND*%
X130000000Y-108082380D03*
%TD*%
D14*
%TO.N,GND*%
%TO.C,J13*%
X165220000Y-92610000D03*
D15*
X165220000Y-88430000D03*
D14*
X156580000Y-92610000D03*
D15*
X156580000Y-88430000D03*
%TD*%
D16*
%TO.N,GND*%
X109975000Y-93754080D03*
X129400000Y-102900000D03*
X127800000Y-107000000D03*
X111300000Y-100400000D03*
X138600000Y-93100000D03*
X138600000Y-89300000D03*
X153300000Y-117700000D03*
X149500000Y-106500000D03*
X135700000Y-113900000D03*
X153300000Y-116300000D03*
X107200000Y-97900000D03*
X175400000Y-110600000D03*
X142500000Y-99500000D03*
X143600000Y-99500000D03*
X127800000Y-108000000D03*
X130400000Y-102900000D03*
X185500000Y-123500000D03*
X107100000Y-86750000D03*
X139500000Y-101500000D03*
X100900000Y-97300000D03*
X174200000Y-106900000D03*
X193200000Y-94500000D03*
X163600000Y-110400000D03*
X197600000Y-111800000D03*
X111300000Y-99600000D03*
X108400000Y-97900000D03*
X151400000Y-114900000D03*
X169000573Y-115711780D03*
X181100000Y-109700000D03*
X139500000Y-99500000D03*
X126500000Y-102900000D03*
X175200000Y-105900000D03*
X175400000Y-94800000D03*
X140500000Y-101500000D03*
X112100000Y-101300000D03*
X102900000Y-103300000D03*
X146900000Y-115000000D03*
X111300000Y-102300000D03*
X199200000Y-147300000D03*
X185500000Y-122500000D03*
X110900000Y-108625000D03*
X192300000Y-100700000D03*
X162280000Y-98480000D03*
X166200000Y-103300000D03*
X168000000Y-115700000D03*
X198700000Y-129400000D03*
X197700000Y-89100000D03*
X107900000Y-108625000D03*
X158200000Y-111300000D03*
X139800000Y-90800000D03*
X197800000Y-91900000D03*
X126800000Y-106000000D03*
X124740000Y-148140000D03*
X186900000Y-101800000D03*
X140500000Y-100500000D03*
X154060589Y-111200000D03*
X123700000Y-102900000D03*
X106900000Y-106300000D03*
X198600000Y-128100000D03*
X136700000Y-113800000D03*
X138900000Y-107800000D03*
X192800000Y-109100000D03*
X182600000Y-88500000D03*
X132800000Y-106000000D03*
X160200000Y-95900000D03*
X188900000Y-100700000D03*
X117700000Y-113600000D03*
X111300000Y-101300000D03*
X128400000Y-102900000D03*
X139900000Y-106800000D03*
X132800000Y-113900000D03*
X133400000Y-94400000D03*
X142500000Y-100500000D03*
X157000000Y-113600000D03*
X165500000Y-107200000D03*
X141500000Y-99500000D03*
X167200000Y-103300000D03*
X146700000Y-123005000D03*
X108000000Y-126200000D03*
X177200000Y-103300000D03*
X109900000Y-108625000D03*
X145800000Y-125600000D03*
X148100000Y-101700000D03*
X166000000Y-115700000D03*
X100900000Y-99300000D03*
X170500000Y-105900000D03*
X125400000Y-102900000D03*
X164400000Y-106000000D03*
X174200000Y-103300000D03*
X164100000Y-95500000D03*
X178200000Y-105900000D03*
X166500000Y-147200000D03*
X131400000Y-102900000D03*
X139500000Y-100500000D03*
X163000000Y-115700000D03*
X108400000Y-97100000D03*
X149000000Y-120000000D03*
X197600000Y-111000000D03*
X146000000Y-115100000D03*
X113400000Y-86800000D03*
X137500000Y-98500000D03*
X182800000Y-109600000D03*
X186000000Y-112900000D03*
X197600000Y-129400000D03*
X147800000Y-114900000D03*
X141500000Y-100500000D03*
X126800000Y-107000000D03*
X147400000Y-104000000D03*
X194300000Y-148875000D03*
X127800000Y-106000000D03*
X149000000Y-122000000D03*
X133700000Y-113900000D03*
X102900000Y-102300000D03*
X188000000Y-100600000D03*
X125900000Y-148500000D03*
X121800000Y-109000000D03*
X138900000Y-104800000D03*
X179000000Y-91400000D03*
X193200000Y-148875000D03*
X149000000Y-123000000D03*
X186300000Y-116148528D03*
X197900000Y-148500000D03*
X109100000Y-86750000D03*
X134400000Y-102900000D03*
X138900000Y-105800000D03*
X166500000Y-107200000D03*
X131800000Y-113900000D03*
X139900000Y-105800000D03*
X176200000Y-106900000D03*
X121800000Y-110000000D03*
X121800000Y-108000000D03*
X165000000Y-115700000D03*
X169500000Y-105900000D03*
X102900000Y-100300000D03*
X175200000Y-103300000D03*
X103900000Y-106300000D03*
X102900000Y-105300000D03*
X149000000Y-121000000D03*
X137500000Y-99500000D03*
X138900000Y-106800000D03*
X169200000Y-103300000D03*
X107200000Y-97100000D03*
X165000000Y-148200000D03*
X175400000Y-112600000D03*
X175200000Y-106900000D03*
X197500000Y-128000000D03*
X178200000Y-106900000D03*
X164600000Y-110400000D03*
X179800000Y-94400000D03*
X121800000Y-111000000D03*
X145200000Y-95000000D03*
X176200000Y-103300000D03*
X140900000Y-104800000D03*
X107800000Y-97500000D03*
X196200000Y-128000000D03*
X131800000Y-106000000D03*
X112000000Y-91800000D03*
X146700000Y-124595000D03*
X100900000Y-100300000D03*
X134700000Y-113900000D03*
X111000000Y-91800000D03*
X148700000Y-102200000D03*
X169500000Y-106900000D03*
X103900000Y-105300000D03*
X130800000Y-106000000D03*
X168500000Y-105900000D03*
X113800000Y-104820000D03*
X146260589Y-110460589D03*
X164000000Y-115700000D03*
X119700000Y-113600000D03*
X100900000Y-99300000D03*
X127400000Y-147400000D03*
X139500000Y-98500000D03*
X108900000Y-108625000D03*
X122800000Y-107000000D03*
X105900000Y-106300000D03*
X165500000Y-106000000D03*
X113400000Y-86800000D03*
X196100000Y-94500000D03*
X174500000Y-96000000D03*
X194600000Y-101200000D03*
X164240000Y-147640000D03*
X139900000Y-104800000D03*
X102900000Y-101300000D03*
X176200000Y-105900000D03*
X122400000Y-102900000D03*
X123800000Y-107000000D03*
X175400000Y-111700000D03*
X116656412Y-113576088D03*
X170500000Y-106900000D03*
X127500000Y-102900000D03*
X100900000Y-96300000D03*
X137900000Y-110800000D03*
X100900000Y-101300000D03*
X194600000Y-101200000D03*
X152800000Y-98800000D03*
X173200000Y-105900000D03*
X123800000Y-107000000D03*
X108900000Y-91800000D03*
X185500000Y-124500000D03*
X100900000Y-98300000D03*
X163690000Y-148190000D03*
X165600000Y-110400000D03*
X115100000Y-104820000D03*
X186525000Y-117600000D03*
X138500000Y-98500000D03*
X101900000Y-100300000D03*
X111100000Y-86750000D03*
X153300000Y-114900000D03*
X156100000Y-113200000D03*
X109600000Y-100300000D03*
X140500000Y-99500000D03*
X112100000Y-100400000D03*
X150200000Y-107100000D03*
X196200000Y-129300000D03*
X137700000Y-113800000D03*
X137000000Y-94400000D03*
X102900000Y-104300000D03*
X124400000Y-102900000D03*
X176000000Y-97300000D03*
X188900000Y-101800000D03*
X125240000Y-147640000D03*
X198500000Y-125625000D03*
X145498097Y-107103984D03*
X194600000Y-107900000D03*
X103800000Y-86225000D03*
X112100000Y-102300000D03*
X124800000Y-107000000D03*
X196300000Y-109100000D03*
X104900000Y-106300000D03*
X197600000Y-102500000D03*
X130800000Y-113900000D03*
X110000000Y-91800000D03*
X197600000Y-94500000D03*
X175400000Y-109500000D03*
X124500000Y-102900000D03*
X174200000Y-105900000D03*
X188000000Y-101800000D03*
X138500000Y-99500000D03*
X128800000Y-106000000D03*
X185500000Y-125300000D03*
X177200000Y-106900000D03*
X177200000Y-105900000D03*
X125800000Y-107000000D03*
X168200000Y-103300000D03*
X118700000Y-113600000D03*
X162000000Y-115700000D03*
X152500000Y-92600000D03*
X121800000Y-107000000D03*
X106900000Y-108625000D03*
X129800000Y-106000000D03*
X107300000Y-123000000D03*
X139900000Y-107800000D03*
X106100000Y-86750000D03*
%TO.N,+5V*%
X125400000Y-109400000D03*
X124100000Y-109400000D03*
X183200000Y-108800000D03*
X191400000Y-99262500D03*
X124100000Y-111500000D03*
X125400000Y-111500000D03*
X124100000Y-110400000D03*
X125400000Y-110400000D03*
X171900000Y-103425000D03*
X171700000Y-111830000D03*
X181500000Y-97932500D03*
X171800000Y-106500000D03*
X159400000Y-92100000D03*
X192000000Y-116462500D03*
%TO.N,+3V3*%
X147702308Y-110121095D03*
X136800000Y-96700000D03*
X189600000Y-91400000D03*
X195700000Y-145600000D03*
X188145000Y-93900000D03*
X179150000Y-103350000D03*
X152513721Y-95773856D03*
X124500000Y-145725000D03*
X162500000Y-145725000D03*
X193200000Y-93300000D03*
X146200000Y-102800000D03*
X163200000Y-145725000D03*
X151200000Y-92568750D03*
X155300000Y-112400000D03*
X188145000Y-93200000D03*
X161750000Y-103601470D03*
X190700000Y-105900000D03*
X123800000Y-145725000D03*
X180790000Y-90500000D03*
X180790000Y-91500000D03*
X163900000Y-145725000D03*
X138200000Y-96700000D03*
X155600000Y-116800000D03*
X144100000Y-105000000D03*
X159700000Y-127400000D03*
X139600000Y-96700000D03*
X155800000Y-104500000D03*
X195000000Y-145600000D03*
X181500000Y-106962500D03*
%TO.N,+12V*%
X109600000Y-127775000D03*
X187400000Y-126875000D03*
X128300000Y-101325000D03*
X147500000Y-127075000D03*
X130700000Y-101325000D03*
X133000000Y-101325000D03*
%TO.N,Phase_A*%
X117555090Y-122149910D03*
%TO.N,Phase_B*%
X155400000Y-122500000D03*
%TO.N,Phase_C*%
X191452500Y-121947500D03*
%TO.N,M_TMP\u002C MOSI*%
X158200000Y-109500000D03*
X159500000Y-109500000D03*
%TO.N,PPM*%
X148035875Y-100428724D03*
X169000000Y-100150000D03*
%TO.N,ADC2\u002C MISO*%
X156416117Y-109483883D03*
X158900000Y-107300000D03*
%TO.N,ADC1\u002C CS*%
X159465687Y-108082842D03*
X155800000Y-110000000D03*
%TO.N,V_A*%
X112200000Y-116100000D03*
X145375735Y-113175735D03*
%TO.N,LED_R*%
X153300000Y-94500000D03*
X156600000Y-97700000D03*
%TO.N,Net-(J1-Pin_2)*%
X135900000Y-92600000D03*
X101100000Y-90640000D03*
X101100000Y-90640000D03*
%TO.N,/Gate Drivers/AL*%
X154900000Y-105200000D03*
X106800000Y-121500000D03*
%TO.N,/Gate Drivers/AH*%
X153000000Y-104300000D03*
X105735809Y-119720732D03*
%TO.N,F_TEMP_*%
X158500000Y-119375000D03*
X158500000Y-118600000D03*
%TO.N,+BATT*%
X112935000Y-89465000D03*
X198260178Y-117434405D03*
X136100000Y-89000000D03*
X179934872Y-115242126D03*
%TO.N,Net-(J5-Pin_4)*%
X194700000Y-121700000D03*
%TO.N,BMI160_SCL*%
X148900000Y-100800000D03*
X183000000Y-100750000D03*
%TO.N,BMI160_SDA*%
X183000000Y-102000000D03*
X149600000Y-101350000D03*
%TO.N,USART_TX\u002C SCL*%
X161100000Y-108300000D03*
X158915143Y-106436328D03*
%TO.N,USART_RX\u002C SDA*%
X159400000Y-105800000D03*
X162800000Y-108600000D03*
%TO.N,Net-(J9-Pin_2)*%
X163600000Y-96600000D03*
X183200000Y-90000000D03*
%TO.N,Net-(J9-Pin_3)*%
X164200000Y-97600000D03*
X183200000Y-91000000D03*
%TO.N,Net-(J9-Pin_4)*%
X183200000Y-92250000D03*
X164700000Y-99000000D03*
%TO.N,UART_RX*%
X168039106Y-102056148D03*
X193000000Y-92000000D03*
X193000000Y-92000000D03*
X150200000Y-102600000D03*
%TO.N,UART_TX*%
X167200000Y-101750000D03*
X151000000Y-101800000D03*
%TO.N,SWDIO*%
X151450000Y-96350000D03*
%TO.N,SWCLK*%
X150300000Y-94500000D03*
%TO.N,CAN_RXD*%
X153212149Y-107385421D03*
X159600000Y-112900000D03*
%TO.N,CAN_TXD*%
X159600000Y-111900000D03*
X152700000Y-108000000D03*
%TO.N,SHA_-*%
X117500000Y-147600000D03*
%TO.N,SHA_+*%
X117500000Y-145500000D03*
%TO.N,SHB_+*%
X156500000Y-145500000D03*
%TO.N,SHB_-*%
X156500000Y-147500000D03*
%TO.N,SHC_-*%
X196350000Y-147550000D03*
%TO.N,SHC_+*%
X196500000Y-146400000D03*
%TO.N,/Gate Drivers/BH*%
X152392893Y-106044363D03*
X144800000Y-118986206D03*
%TO.N,/Gate Drivers/BL*%
X153900000Y-106300000D03*
X145132760Y-119781749D03*
%TO.N,/Gate Drivers/CH*%
X151600000Y-103300000D03*
X181226102Y-114300000D03*
%TO.N,/Gate Drivers/CL*%
X153663057Y-103600000D03*
X180601602Y-114800000D03*
%TO.N,VSENSE*%
X152400000Y-110400000D03*
X165900000Y-112887500D03*
%TO.N,Net-(U11-VCC)*%
X108424859Y-94954080D03*
X109400000Y-102840000D03*
%TO.N,Net-(Q1-G)*%
X117000000Y-103900000D03*
X109986572Y-94964093D03*
%TO.N,Net-(Q3-G)*%
X116600000Y-96300000D03*
X106500000Y-94540000D03*
%TO.N,Net-(J3-Pin_4)*%
X115500000Y-121240000D03*
%TO.N,Net-(J3-Pin_1)*%
X112598613Y-123702817D03*
%TO.N,Net-(J4-Pin_2)*%
X154400000Y-121300000D03*
%TO.N,Net-(J4-Pin_3)*%
X150656239Y-123134359D03*
%TO.N,Net-(J5-Pin_3)*%
X190647018Y-123041053D03*
%TD*%
D17*
%TO.N,+5V*%
X182576714Y-107962500D02*
X183307107Y-108692893D01*
X171800000Y-103525000D02*
X171900000Y-103425000D01*
X171800000Y-106500000D02*
X171800000Y-103525000D01*
X173262500Y-107962500D02*
X182576714Y-107962500D01*
X165200000Y-97764214D02*
X165200000Y-95185786D01*
X162114214Y-92100000D02*
X159400000Y-92100000D01*
X171800000Y-106500000D02*
X173262500Y-107962500D01*
X183900000Y-97900000D02*
X185262500Y-99262500D01*
X171900000Y-103425000D02*
X170860786Y-103425000D01*
X183500000Y-107962500D02*
X192000000Y-116462500D01*
X182576714Y-107962500D02*
X183500000Y-107962500D01*
X170860786Y-103425000D02*
X165200000Y-97764214D01*
X171800000Y-103525000D02*
X177425000Y-97900000D01*
X165200000Y-95185786D02*
X162114214Y-92100000D01*
X177425000Y-97900000D02*
X183900000Y-97900000D01*
X185262500Y-99262500D02*
X191400000Y-99262500D01*
%TO.N,+3V3*%
X152513721Y-97186279D02*
X150588635Y-99111365D01*
X155600000Y-115500000D02*
X156400000Y-116300000D01*
X156400000Y-116300000D02*
X156400000Y-121600000D01*
X139600000Y-96700000D02*
X146200000Y-96700000D01*
X146200000Y-96700000D02*
X148177271Y-96700000D01*
X154438635Y-102961365D02*
X155800000Y-104322729D01*
X188145000Y-93200000D02*
X188095000Y-93250000D01*
X155800000Y-104322729D02*
X155800000Y-104500000D01*
X146200000Y-96700000D02*
X146200000Y-102900000D01*
X144600000Y-104500000D02*
X144100000Y-105000000D01*
X182540000Y-93250000D02*
X180790000Y-91500000D01*
D18*
X151200000Y-92568750D02*
X148168750Y-92568750D01*
D17*
X161750000Y-103601470D02*
X161109895Y-102961365D01*
X188145000Y-93900000D02*
X188145000Y-93200000D01*
X155600000Y-115500000D02*
X155600000Y-116800000D01*
D19*
X180790000Y-91500000D02*
X180790000Y-90500000D01*
D17*
X144600000Y-104500000D02*
X147702308Y-107602308D01*
X152500000Y-112400000D02*
X155600000Y-115500000D01*
X156400000Y-121600000D02*
X159700000Y-124900000D01*
X161109895Y-102961365D02*
X154438635Y-102961365D01*
X139600000Y-96700000D02*
X136800000Y-96700000D01*
X146200000Y-102900000D02*
X144600000Y-104500000D01*
X188095000Y-93250000D02*
X182540000Y-93250000D01*
X147702308Y-107602308D02*
X147702308Y-110121095D01*
X150588635Y-99111365D02*
X154438635Y-102961365D01*
X148177271Y-96700000D02*
X150588635Y-99111365D01*
X152513721Y-95773856D02*
X152513721Y-97186279D01*
D18*
X148168750Y-92568750D02*
X145500000Y-89900000D01*
D17*
X152500000Y-112400000D02*
X155300000Y-112400000D01*
X147702308Y-107602308D02*
X152500000Y-112400000D01*
X159700000Y-124900000D02*
X159700000Y-127400000D01*
%TO.N,+12V*%
X133000000Y-101325000D02*
X128300000Y-101325000D01*
D19*
X149225000Y-128800000D02*
X185475000Y-128800000D01*
D17*
X120989214Y-101325000D02*
X108961563Y-113352651D01*
X147800000Y-126775000D02*
X147500000Y-127075000D01*
X108961563Y-113352651D02*
X109000000Y-113391088D01*
D19*
X147500000Y-127075000D02*
X149225000Y-128800000D01*
D17*
X108961563Y-113352651D02*
X104700000Y-113352651D01*
X133000000Y-102900000D02*
X133000000Y-103514214D01*
X147800000Y-118314214D02*
X147800000Y-126775000D01*
D19*
X185475000Y-128800000D02*
X187400000Y-126875000D01*
D17*
X133000000Y-101325000D02*
X133000000Y-102900000D01*
X128300000Y-101325000D02*
X120989214Y-101325000D01*
X109000000Y-127175000D02*
X109600000Y-127775000D01*
X109000000Y-113391088D02*
X109000000Y-127175000D01*
X133000000Y-103514214D02*
X147800000Y-118314214D01*
D20*
%TO.N,+BATT*%
X136100000Y-89000000D02*
X140850000Y-93750000D01*
X112935000Y-89465000D02*
X135635000Y-89465000D01*
X176342126Y-115242126D02*
X179934872Y-115242126D01*
X140850000Y-93750000D02*
X154850000Y-93750000D01*
X135635000Y-89465000D02*
X136100000Y-89000000D01*
X154850000Y-93750000D02*
X176342126Y-115242126D01*
%TD*%
%TA.AperFunction,Conductor*%
%TO.N,GND*%
G36*
X199442539Y-85520185D02*
G01*
X199488294Y-85572989D01*
X199499500Y-85624500D01*
X199499500Y-154375500D01*
X199479815Y-154442539D01*
X199427011Y-154488294D01*
X199375500Y-154499500D01*
X100624500Y-154499500D01*
X100557461Y-154479815D01*
X100511706Y-154427011D01*
X100500500Y-154375500D01*
X100500500Y-147599996D01*
X116694435Y-147599996D01*
X116694435Y-147600003D01*
X116714630Y-147779249D01*
X116714631Y-147779254D01*
X116774211Y-147949523D01*
X116838767Y-148052262D01*
X116870184Y-148102262D01*
X116997738Y-148229816D01*
X117150478Y-148325789D01*
X117235573Y-148355565D01*
X117320745Y-148385368D01*
X117320750Y-148385369D01*
X117499996Y-148405565D01*
X117500000Y-148405565D01*
X117500004Y-148405565D01*
X117679249Y-148385369D01*
X117679252Y-148385368D01*
X117679255Y-148385368D01*
X117849522Y-148325789D01*
X118002262Y-148229816D01*
X118129816Y-148102262D01*
X118225789Y-147949522D01*
X118285368Y-147779255D01*
X118291002Y-147729254D01*
X118305565Y-147600003D01*
X118305565Y-147599996D01*
X118294298Y-147499996D01*
X155694435Y-147499996D01*
X155694435Y-147500003D01*
X155714630Y-147679249D01*
X155714631Y-147679254D01*
X155774211Y-147849523D01*
X155837045Y-147949522D01*
X155870184Y-148002262D01*
X155997738Y-148129816D01*
X156150478Y-148225789D01*
X156161984Y-148229815D01*
X156320745Y-148285368D01*
X156320750Y-148285369D01*
X156499996Y-148305565D01*
X156500000Y-148305565D01*
X156500004Y-148305565D01*
X156679249Y-148285369D01*
X156679252Y-148285368D01*
X156679255Y-148285368D01*
X156849522Y-148225789D01*
X157002262Y-148129816D01*
X157129816Y-148002262D01*
X157225789Y-147849522D01*
X157285368Y-147679255D01*
X157285369Y-147679249D01*
X157305565Y-147500003D01*
X157305565Y-147499996D01*
X157285369Y-147320750D01*
X157285368Y-147320745D01*
X157225789Y-147150478D01*
X157129816Y-146997738D01*
X157002262Y-146870184D01*
X156849523Y-146774211D01*
X156679254Y-146714631D01*
X156679249Y-146714630D01*
X156500004Y-146694435D01*
X156499996Y-146694435D01*
X156320750Y-146714630D01*
X156320745Y-146714631D01*
X156150476Y-146774211D01*
X155997737Y-146870184D01*
X155870184Y-146997737D01*
X155774211Y-147150476D01*
X155714631Y-147320745D01*
X155714630Y-147320750D01*
X155694435Y-147499996D01*
X118294298Y-147499996D01*
X118285369Y-147420750D01*
X118285368Y-147420745D01*
X118225788Y-147250476D01*
X118162955Y-147150478D01*
X118129816Y-147097738D01*
X118002262Y-146970184D01*
X118001025Y-146969407D01*
X117849523Y-146874211D01*
X117679254Y-146814631D01*
X117679249Y-146814630D01*
X117500004Y-146794435D01*
X117499996Y-146794435D01*
X117320750Y-146814630D01*
X117320745Y-146814631D01*
X117150476Y-146874211D01*
X116997737Y-146970184D01*
X116870184Y-147097737D01*
X116774211Y-147250476D01*
X116714631Y-147420745D01*
X116714630Y-147420750D01*
X116694435Y-147599996D01*
X100500500Y-147599996D01*
X100500500Y-145499996D01*
X116694435Y-145499996D01*
X116694435Y-145500003D01*
X116714630Y-145679249D01*
X116714631Y-145679254D01*
X116774211Y-145849523D01*
X116804507Y-145897738D01*
X116870184Y-146002262D01*
X116997738Y-146129816D01*
X117088080Y-146186582D01*
X117142450Y-146220745D01*
X117150478Y-146225789D01*
X117154688Y-146227262D01*
X117320745Y-146285368D01*
X117320750Y-146285369D01*
X117499996Y-146305565D01*
X117500000Y-146305565D01*
X117500004Y-146305565D01*
X117679249Y-146285369D01*
X117679252Y-146285368D01*
X117679255Y-146285368D01*
X117849522Y-146225789D01*
X118002262Y-146129816D01*
X118129816Y-146002262D01*
X118225789Y-145849522D01*
X118269363Y-145724996D01*
X122994435Y-145724996D01*
X122994435Y-145725003D01*
X123014630Y-145904249D01*
X123014631Y-145904254D01*
X123074211Y-146074523D01*
X123166089Y-146220745D01*
X123170184Y-146227262D01*
X123297738Y-146354816D01*
X123388080Y-146411582D01*
X123403059Y-146420994D01*
X123450478Y-146450789D01*
X123529923Y-146478588D01*
X123620745Y-146510368D01*
X123620750Y-146510369D01*
X123799996Y-146530565D01*
X123800000Y-146530565D01*
X123800004Y-146530565D01*
X123979249Y-146510369D01*
X123979251Y-146510368D01*
X123979255Y-146510368D01*
X123979258Y-146510366D01*
X123979262Y-146510366D01*
X124109045Y-146464953D01*
X124178824Y-146461391D01*
X124190955Y-146464953D01*
X124320737Y-146510366D01*
X124320743Y-146510367D01*
X124320745Y-146510368D01*
X124320746Y-146510368D01*
X124320750Y-146510369D01*
X124499996Y-146530565D01*
X124500000Y-146530565D01*
X124500004Y-146530565D01*
X124679249Y-146510369D01*
X124679252Y-146510368D01*
X124679255Y-146510368D01*
X124849522Y-146450789D01*
X125002262Y-146354816D01*
X125129816Y-146227262D01*
X125225789Y-146074522D01*
X125285368Y-145904255D01*
X125285369Y-145904249D01*
X125305565Y-145725003D01*
X125305565Y-145724996D01*
X125285369Y-145545750D01*
X125285368Y-145545745D01*
X125269360Y-145499996D01*
X155694435Y-145499996D01*
X155694435Y-145500003D01*
X155714630Y-145679249D01*
X155714631Y-145679254D01*
X155774211Y-145849523D01*
X155804507Y-145897738D01*
X155870184Y-146002262D01*
X155997738Y-146129816D01*
X156088080Y-146186582D01*
X156142450Y-146220745D01*
X156150478Y-146225789D01*
X156154688Y-146227262D01*
X156320745Y-146285368D01*
X156320750Y-146285369D01*
X156499996Y-146305565D01*
X156500000Y-146305565D01*
X156500004Y-146305565D01*
X156679249Y-146285369D01*
X156679252Y-146285368D01*
X156679255Y-146285368D01*
X156849522Y-146225789D01*
X157002262Y-146129816D01*
X157129816Y-146002262D01*
X157225789Y-145849522D01*
X157269363Y-145724996D01*
X161694435Y-145724996D01*
X161694435Y-145725003D01*
X161714630Y-145904249D01*
X161714631Y-145904254D01*
X161774211Y-146074523D01*
X161866089Y-146220745D01*
X161870184Y-146227262D01*
X161997738Y-146354816D01*
X162088080Y-146411582D01*
X162103059Y-146420994D01*
X162150478Y-146450789D01*
X162229923Y-146478588D01*
X162320745Y-146510368D01*
X162320750Y-146510369D01*
X162499996Y-146530565D01*
X162500000Y-146530565D01*
X162500004Y-146530565D01*
X162679249Y-146510369D01*
X162679251Y-146510368D01*
X162679255Y-146510368D01*
X162679258Y-146510366D01*
X162679262Y-146510366D01*
X162809045Y-146464953D01*
X162878824Y-146461391D01*
X162890955Y-146464953D01*
X163020737Y-146510366D01*
X163020743Y-146510367D01*
X163020745Y-146510368D01*
X163020746Y-146510368D01*
X163020750Y-146510369D01*
X163199996Y-146530565D01*
X163200000Y-146530565D01*
X163200004Y-146530565D01*
X163379249Y-146510369D01*
X163379251Y-146510368D01*
X163379255Y-146510368D01*
X163379258Y-146510366D01*
X163379262Y-146510366D01*
X163509045Y-146464953D01*
X163578824Y-146461391D01*
X163590955Y-146464953D01*
X163720737Y-146510366D01*
X163720743Y-146510367D01*
X163720745Y-146510368D01*
X163720746Y-146510368D01*
X163720750Y-146510369D01*
X163899996Y-146530565D01*
X163900000Y-146530565D01*
X163900004Y-146530565D01*
X164079249Y-146510369D01*
X164079252Y-146510368D01*
X164079255Y-146510368D01*
X164249522Y-146450789D01*
X164402262Y-146354816D01*
X164529816Y-146227262D01*
X164625789Y-146074522D01*
X164685368Y-145904255D01*
X164685369Y-145904249D01*
X164705565Y-145725003D01*
X164705565Y-145724996D01*
X164691481Y-145599996D01*
X194194435Y-145599996D01*
X194194435Y-145600003D01*
X194214630Y-145779249D01*
X194214631Y-145779254D01*
X194274211Y-145949523D01*
X194337646Y-146050478D01*
X194370184Y-146102262D01*
X194497738Y-146229816D01*
X194650478Y-146325789D01*
X194820739Y-146385366D01*
X194820745Y-146385368D01*
X194820750Y-146385369D01*
X194999996Y-146405565D01*
X195000000Y-146405565D01*
X195000004Y-146405565D01*
X195179249Y-146385369D01*
X195179251Y-146385368D01*
X195179255Y-146385368D01*
X195179258Y-146385366D01*
X195179262Y-146385366D01*
X195309045Y-146339953D01*
X195378824Y-146336391D01*
X195390955Y-146339953D01*
X195520737Y-146385366D01*
X195520741Y-146385367D01*
X195520742Y-146385367D01*
X195520745Y-146385368D01*
X195596735Y-146393929D01*
X195661145Y-146420994D01*
X195700701Y-146478588D01*
X195706069Y-146503265D01*
X195714630Y-146579249D01*
X195774210Y-146749521D01*
X195815827Y-146815754D01*
X195834827Y-146882991D01*
X195814459Y-146949826D01*
X195798515Y-146969407D01*
X195720183Y-147047739D01*
X195624211Y-147200476D01*
X195564631Y-147370745D01*
X195564630Y-147370750D01*
X195544435Y-147549996D01*
X195544435Y-147550003D01*
X195564630Y-147729249D01*
X195564631Y-147729254D01*
X195624211Y-147899523D01*
X195688767Y-148002262D01*
X195720184Y-148052262D01*
X195847738Y-148179816D01*
X196000478Y-148275789D01*
X196085573Y-148305565D01*
X196170745Y-148335368D01*
X196170750Y-148335369D01*
X196349996Y-148355565D01*
X196350000Y-148355565D01*
X196350004Y-148355565D01*
X196529249Y-148335369D01*
X196529252Y-148335368D01*
X196529255Y-148335368D01*
X196699522Y-148275789D01*
X196852262Y-148179816D01*
X196979816Y-148052262D01*
X197075789Y-147899522D01*
X197135368Y-147729255D01*
X197141002Y-147679254D01*
X197155565Y-147550003D01*
X197155565Y-147549996D01*
X197135369Y-147370750D01*
X197135368Y-147370745D01*
X197117872Y-147320745D01*
X197075789Y-147200478D01*
X197034171Y-147134244D01*
X197015172Y-147067009D01*
X197035540Y-147000173D01*
X197051476Y-146980601D01*
X197129816Y-146902262D01*
X197225789Y-146749522D01*
X197285368Y-146579255D01*
X197293930Y-146503265D01*
X197305565Y-146400003D01*
X197305565Y-146399996D01*
X197285369Y-146220750D01*
X197285368Y-146220745D01*
X197225789Y-146050478D01*
X197129816Y-145897738D01*
X197002262Y-145770184D01*
X196930346Y-145724996D01*
X196849521Y-145674210D01*
X196679249Y-145614630D01*
X196603265Y-145606069D01*
X196538851Y-145579002D01*
X196499296Y-145521407D01*
X196493930Y-145496743D01*
X196485368Y-145420745D01*
X196425789Y-145250478D01*
X196329816Y-145097738D01*
X196202262Y-144970184D01*
X196153639Y-144939632D01*
X196049523Y-144874211D01*
X195879254Y-144814631D01*
X195879249Y-144814630D01*
X195700004Y-144794435D01*
X195699996Y-144794435D01*
X195520750Y-144814630D01*
X195520742Y-144814632D01*
X195390954Y-144860047D01*
X195321175Y-144863608D01*
X195309046Y-144860047D01*
X195179257Y-144814632D01*
X195179249Y-144814630D01*
X195000004Y-144794435D01*
X194999996Y-144794435D01*
X194820750Y-144814630D01*
X194820745Y-144814631D01*
X194650476Y-144874211D01*
X194497737Y-144970184D01*
X194370184Y-145097737D01*
X194274211Y-145250476D01*
X194214631Y-145420745D01*
X194214630Y-145420750D01*
X194194435Y-145599996D01*
X164691481Y-145599996D01*
X164685369Y-145545750D01*
X164685368Y-145545745D01*
X164641630Y-145420750D01*
X164625789Y-145375478D01*
X164529816Y-145222738D01*
X164402262Y-145095184D01*
X164249523Y-144999211D01*
X164079254Y-144939631D01*
X164079249Y-144939630D01*
X163900004Y-144919435D01*
X163899996Y-144919435D01*
X163720750Y-144939630D01*
X163720742Y-144939632D01*
X163590954Y-144985047D01*
X163521175Y-144988608D01*
X163509046Y-144985047D01*
X163379257Y-144939632D01*
X163379249Y-144939630D01*
X163200004Y-144919435D01*
X163199996Y-144919435D01*
X163020750Y-144939630D01*
X163020742Y-144939632D01*
X162890954Y-144985047D01*
X162821175Y-144988608D01*
X162809046Y-144985047D01*
X162679257Y-144939632D01*
X162679249Y-144939630D01*
X162500004Y-144919435D01*
X162499996Y-144919435D01*
X162320750Y-144939630D01*
X162320745Y-144939631D01*
X162150476Y-144999211D01*
X161997737Y-145095184D01*
X161870184Y-145222737D01*
X161774211Y-145375476D01*
X161714631Y-145545745D01*
X161714630Y-145545750D01*
X161694435Y-145724996D01*
X157269363Y-145724996D01*
X157285368Y-145679255D01*
X157285369Y-145679249D01*
X157305565Y-145500003D01*
X157305565Y-145499996D01*
X157285369Y-145320750D01*
X157285368Y-145320745D01*
X157225789Y-145150478D01*
X157129816Y-144997738D01*
X157002262Y-144870184D01*
X156913852Y-144814632D01*
X156849523Y-144774211D01*
X156679254Y-144714631D01*
X156679249Y-144714630D01*
X156500004Y-144694435D01*
X156499996Y-144694435D01*
X156320750Y-144714630D01*
X156320745Y-144714631D01*
X156150476Y-144774211D01*
X155997737Y-144870184D01*
X155870184Y-144997737D01*
X155774211Y-145150476D01*
X155714631Y-145320745D01*
X155714630Y-145320750D01*
X155694435Y-145499996D01*
X125269360Y-145499996D01*
X125241630Y-145420750D01*
X125225789Y-145375478D01*
X125129816Y-145222738D01*
X125002262Y-145095184D01*
X124849523Y-144999211D01*
X124679254Y-144939631D01*
X124679249Y-144939630D01*
X124500004Y-144919435D01*
X124499996Y-144919435D01*
X124320750Y-144939630D01*
X124320742Y-144939632D01*
X124190954Y-144985047D01*
X124121175Y-144988608D01*
X124109046Y-144985047D01*
X123979257Y-144939632D01*
X123979249Y-144939630D01*
X123800004Y-144919435D01*
X123799996Y-144919435D01*
X123620750Y-144939630D01*
X123620745Y-144939631D01*
X123450476Y-144999211D01*
X123297737Y-145095184D01*
X123170184Y-145222737D01*
X123074211Y-145375476D01*
X123014631Y-145545745D01*
X123014630Y-145545750D01*
X122994435Y-145724996D01*
X118269363Y-145724996D01*
X118285368Y-145679255D01*
X118285369Y-145679249D01*
X118305565Y-145500003D01*
X118305565Y-145499996D01*
X118285369Y-145320750D01*
X118285368Y-145320745D01*
X118225789Y-145150478D01*
X118129816Y-144997738D01*
X118002262Y-144870184D01*
X117913852Y-144814632D01*
X117849523Y-144774211D01*
X117679254Y-144714631D01*
X117679249Y-144714630D01*
X117500004Y-144694435D01*
X117499996Y-144694435D01*
X117320750Y-144714630D01*
X117320745Y-144714631D01*
X117150476Y-144774211D01*
X116997737Y-144870184D01*
X116870184Y-144997737D01*
X116774211Y-145150476D01*
X116714631Y-145320745D01*
X116714630Y-145320750D01*
X116694435Y-145499996D01*
X100500500Y-145499996D01*
X100500500Y-121499996D01*
X105994435Y-121499996D01*
X105994435Y-121500003D01*
X106014630Y-121679249D01*
X106014631Y-121679254D01*
X106074211Y-121849523D01*
X106147266Y-121965788D01*
X106170184Y-122002262D01*
X106297738Y-122129816D01*
X106373609Y-122177489D01*
X106442324Y-122220666D01*
X106450478Y-122225789D01*
X106620745Y-122285368D01*
X106620750Y-122285369D01*
X106799996Y-122305565D01*
X106800000Y-122305565D01*
X106800004Y-122305565D01*
X106979249Y-122285369D01*
X106979252Y-122285368D01*
X106979255Y-122285368D01*
X107149522Y-122225789D01*
X107302262Y-122129816D01*
X107429816Y-122002262D01*
X107525789Y-121849522D01*
X107585368Y-121679255D01*
X107588718Y-121649522D01*
X107605565Y-121500003D01*
X107605565Y-121499996D01*
X107585369Y-121320750D01*
X107585368Y-121320745D01*
X107550780Y-121221898D01*
X107525789Y-121150478D01*
X107507106Y-121120745D01*
X107475337Y-121070184D01*
X107429816Y-120997738D01*
X107302262Y-120870184D01*
X107149523Y-120774211D01*
X106979254Y-120714631D01*
X106979249Y-120714630D01*
X106800004Y-120694435D01*
X106799996Y-120694435D01*
X106620750Y-120714630D01*
X106620745Y-120714631D01*
X106450476Y-120774211D01*
X106297737Y-120870184D01*
X106170184Y-120997737D01*
X106074211Y-121150476D01*
X106014631Y-121320745D01*
X106014630Y-121320750D01*
X105994435Y-121499996D01*
X100500500Y-121499996D01*
X100500500Y-119720728D01*
X104930244Y-119720728D01*
X104930244Y-119720735D01*
X104950439Y-119899981D01*
X104950440Y-119899986D01*
X105010020Y-120070255D01*
X105048360Y-120131272D01*
X105105993Y-120222994D01*
X105233547Y-120350548D01*
X105386287Y-120446521D01*
X105556554Y-120506100D01*
X105556559Y-120506101D01*
X105735805Y-120526297D01*
X105735809Y-120526297D01*
X105735813Y-120526297D01*
X105915058Y-120506101D01*
X105915061Y-120506100D01*
X105915064Y-120506100D01*
X106085331Y-120446521D01*
X106238071Y-120350548D01*
X106365625Y-120222994D01*
X106461598Y-120070254D01*
X106521177Y-119899987D01*
X106521178Y-119899981D01*
X106541374Y-119720735D01*
X106541374Y-119720728D01*
X106521178Y-119541482D01*
X106521177Y-119541477D01*
X106462924Y-119375000D01*
X106461598Y-119371210D01*
X106365625Y-119218470D01*
X106238071Y-119090916D01*
X106138667Y-119028456D01*
X106085332Y-118994943D01*
X105915063Y-118935363D01*
X105915058Y-118935362D01*
X105735813Y-118915167D01*
X105735805Y-118915167D01*
X105556559Y-118935362D01*
X105556554Y-118935363D01*
X105386285Y-118994943D01*
X105233546Y-119090916D01*
X105105993Y-119218469D01*
X105010020Y-119371208D01*
X104950440Y-119541477D01*
X104950439Y-119541482D01*
X104930244Y-119720728D01*
X100500500Y-119720728D01*
X100500500Y-112504786D01*
X103399500Y-112504786D01*
X103399500Y-114200521D01*
X103399501Y-114200527D01*
X103405908Y-114260134D01*
X103456202Y-114394979D01*
X103456206Y-114394986D01*
X103542452Y-114510195D01*
X103542455Y-114510198D01*
X103657664Y-114596444D01*
X103657671Y-114596448D01*
X103792517Y-114646742D01*
X103792516Y-114646742D01*
X103799444Y-114647486D01*
X103852127Y-114653151D01*
X105547872Y-114653150D01*
X105607483Y-114646742D01*
X105742331Y-114596447D01*
X105857546Y-114510197D01*
X105937914Y-114402839D01*
X105993847Y-114360969D01*
X106037180Y-114353151D01*
X107875500Y-114353151D01*
X107942539Y-114372836D01*
X107988294Y-114425640D01*
X107999500Y-114477151D01*
X107999500Y-127273544D01*
X108037947Y-127466830D01*
X108037949Y-127466837D01*
X108046589Y-127487693D01*
X108046591Y-127487699D01*
X108113364Y-127648906D01*
X108113371Y-127648919D01*
X108222860Y-127812782D01*
X108366537Y-127956459D01*
X108366559Y-127956479D01*
X108962215Y-128552136D01*
X108962219Y-128552139D01*
X109126079Y-128661627D01*
X109126083Y-128661629D01*
X109126086Y-128661631D01*
X109308164Y-128737051D01*
X109501455Y-128775499D01*
X109501458Y-128775500D01*
X109501460Y-128775500D01*
X109698542Y-128775500D01*
X109698543Y-128775499D01*
X109891836Y-128737051D01*
X110073914Y-128661631D01*
X110237781Y-128552139D01*
X110377139Y-128412781D01*
X110486631Y-128248914D01*
X110562051Y-128066836D01*
X110600500Y-127873540D01*
X110600500Y-127676460D01*
X110600500Y-127676457D01*
X110600499Y-127676455D01*
X110595019Y-127648906D01*
X110562051Y-127483164D01*
X110486631Y-127301086D01*
X110486629Y-127301083D01*
X110486627Y-127301079D01*
X110377139Y-127137219D01*
X110377136Y-127137215D01*
X110036819Y-126796898D01*
X110003334Y-126735575D01*
X110000500Y-126709217D01*
X110000500Y-123702813D01*
X111793048Y-123702813D01*
X111793048Y-123702820D01*
X111813243Y-123882066D01*
X111813244Y-123882071D01*
X111872824Y-124052340D01*
X111917135Y-124122860D01*
X111968797Y-124205079D01*
X112096351Y-124332633D01*
X112249091Y-124428606D01*
X112419358Y-124488185D01*
X112419363Y-124488186D01*
X112598609Y-124508382D01*
X112598613Y-124508382D01*
X112598617Y-124508382D01*
X112777862Y-124488186D01*
X112777865Y-124488185D01*
X112777868Y-124488185D01*
X112948135Y-124428606D01*
X113100875Y-124332633D01*
X113228429Y-124205079D01*
X113324402Y-124052339D01*
X113383981Y-123882072D01*
X113383982Y-123882066D01*
X113404178Y-123702820D01*
X113404178Y-123702813D01*
X113383982Y-123523567D01*
X113383981Y-123523562D01*
X113324401Y-123353293D01*
X113281721Y-123285368D01*
X113228429Y-123200555D01*
X113100875Y-123073001D01*
X113050030Y-123041053D01*
X112948136Y-122977028D01*
X112777867Y-122917448D01*
X112777862Y-122917447D01*
X112598617Y-122897252D01*
X112598609Y-122897252D01*
X112419363Y-122917447D01*
X112419358Y-122917448D01*
X112249089Y-122977028D01*
X112096350Y-123073001D01*
X111968797Y-123200554D01*
X111872824Y-123353293D01*
X111813244Y-123523562D01*
X111813243Y-123523567D01*
X111793048Y-123702813D01*
X110000500Y-123702813D01*
X110000500Y-122149906D01*
X116749525Y-122149906D01*
X116749525Y-122149913D01*
X116769720Y-122329159D01*
X116769721Y-122329164D01*
X116829301Y-122499433D01*
X116878238Y-122577315D01*
X116925274Y-122652172D01*
X117052828Y-122779726D01*
X117102702Y-122811064D01*
X117183452Y-122861803D01*
X117205568Y-122875699D01*
X117254000Y-122892646D01*
X117375835Y-122935278D01*
X117375840Y-122935279D01*
X117555086Y-122955475D01*
X117555090Y-122955475D01*
X117555094Y-122955475D01*
X117734339Y-122935279D01*
X117734342Y-122935278D01*
X117734345Y-122935278D01*
X117904612Y-122875699D01*
X118057352Y-122779726D01*
X118184906Y-122652172D01*
X118280879Y-122499432D01*
X118340458Y-122329165D01*
X118341407Y-122320742D01*
X118360655Y-122149913D01*
X118360655Y-122149906D01*
X118340459Y-121970660D01*
X118340458Y-121970655D01*
X118308475Y-121879254D01*
X118280879Y-121800388D01*
X118266411Y-121777363D01*
X118186084Y-121649523D01*
X118184906Y-121647648D01*
X118057352Y-121520094D01*
X118027696Y-121501460D01*
X117904613Y-121424121D01*
X117734344Y-121364541D01*
X117734339Y-121364540D01*
X117555094Y-121344345D01*
X117555086Y-121344345D01*
X117375840Y-121364540D01*
X117375835Y-121364541D01*
X117205566Y-121424121D01*
X117052827Y-121520094D01*
X116925274Y-121647647D01*
X116829301Y-121800386D01*
X116769721Y-121970655D01*
X116769720Y-121970660D01*
X116749525Y-122149906D01*
X110000500Y-122149906D01*
X110000500Y-121239996D01*
X114694435Y-121239996D01*
X114694435Y-121240003D01*
X114714630Y-121419249D01*
X114714631Y-121419254D01*
X114774211Y-121589523D01*
X114811912Y-121649523D01*
X114870184Y-121742262D01*
X114997738Y-121869816D01*
X115150478Y-121965789D01*
X115164399Y-121970660D01*
X115320745Y-122025368D01*
X115320750Y-122025369D01*
X115499996Y-122045565D01*
X115500000Y-122045565D01*
X115500004Y-122045565D01*
X115679249Y-122025369D01*
X115679252Y-122025368D01*
X115679255Y-122025368D01*
X115849522Y-121965789D01*
X116002262Y-121869816D01*
X116129816Y-121742262D01*
X116225789Y-121589522D01*
X116285368Y-121419255D01*
X116291533Y-121364540D01*
X116305565Y-121240003D01*
X116305565Y-121239996D01*
X116285369Y-121060750D01*
X116285368Y-121060745D01*
X116263321Y-120997738D01*
X116225789Y-120890478D01*
X116213037Y-120870184D01*
X116186582Y-120828080D01*
X116129816Y-120737738D01*
X116002262Y-120610184D01*
X115965865Y-120587314D01*
X115849523Y-120514211D01*
X115679254Y-120454631D01*
X115679249Y-120454630D01*
X115500004Y-120434435D01*
X115499996Y-120434435D01*
X115320750Y-120454630D01*
X115320745Y-120454631D01*
X115150476Y-120514211D01*
X114997737Y-120610184D01*
X114870184Y-120737737D01*
X114774211Y-120890476D01*
X114714631Y-121060745D01*
X114714630Y-121060750D01*
X114694435Y-121239996D01*
X110000500Y-121239996D01*
X110000500Y-116934108D01*
X119299500Y-116934108D01*
X119299500Y-128065891D01*
X119333608Y-128193187D01*
X119365780Y-128248910D01*
X119399500Y-128307314D01*
X119492686Y-128400500D01*
X119606814Y-128466392D01*
X119734108Y-128500500D01*
X119734110Y-128500500D01*
X142865890Y-128500500D01*
X142865892Y-128500500D01*
X142993186Y-128466392D01*
X143107314Y-128400500D01*
X143200500Y-128307314D01*
X143266392Y-128193186D01*
X143300500Y-128065892D01*
X143300500Y-118986202D01*
X143994435Y-118986202D01*
X143994435Y-118986209D01*
X144014630Y-119165455D01*
X144014631Y-119165460D01*
X144074211Y-119335729D01*
X144170184Y-119488468D01*
X144298768Y-119617052D01*
X144332253Y-119678375D01*
X144334308Y-119718615D01*
X144327196Y-119781745D01*
X144327195Y-119781753D01*
X144347390Y-119960998D01*
X144347391Y-119961003D01*
X144406971Y-120131272D01*
X144464604Y-120222994D01*
X144502944Y-120284011D01*
X144630498Y-120411565D01*
X144699037Y-120454631D01*
X144762384Y-120494435D01*
X144783238Y-120507538D01*
X144953505Y-120567117D01*
X144953510Y-120567118D01*
X145132756Y-120587314D01*
X145132760Y-120587314D01*
X145132764Y-120587314D01*
X145312009Y-120567118D01*
X145312012Y-120567117D01*
X145312015Y-120567117D01*
X145482282Y-120507538D01*
X145635022Y-120411565D01*
X145762576Y-120284011D01*
X145858549Y-120131271D01*
X145918128Y-119961004D01*
X145925004Y-119899981D01*
X145938325Y-119781752D01*
X145938325Y-119781745D01*
X145918129Y-119602499D01*
X145918128Y-119602494D01*
X145896777Y-119541477D01*
X145858549Y-119432227D01*
X145762576Y-119279487D01*
X145635022Y-119151933D01*
X145633990Y-119150901D01*
X145600505Y-119089578D01*
X145598451Y-119049340D01*
X145605565Y-118986206D01*
X145602463Y-118958677D01*
X145585369Y-118806956D01*
X145585368Y-118806951D01*
X145525788Y-118636682D01*
X145429815Y-118483943D01*
X145302262Y-118356390D01*
X145149523Y-118260417D01*
X144979254Y-118200837D01*
X144979249Y-118200836D01*
X144800004Y-118180641D01*
X144799996Y-118180641D01*
X144620750Y-118200836D01*
X144620745Y-118200837D01*
X144450476Y-118260417D01*
X144297737Y-118356390D01*
X144170184Y-118483943D01*
X144074211Y-118636682D01*
X144014631Y-118806951D01*
X144014630Y-118806956D01*
X143994435Y-118986202D01*
X143300500Y-118986202D01*
X143300500Y-116934108D01*
X143266392Y-116806814D01*
X143265107Y-116804589D01*
X143236093Y-116754335D01*
X143200500Y-116692686D01*
X143107314Y-116599500D01*
X143050250Y-116566554D01*
X142993187Y-116533608D01*
X142929539Y-116516554D01*
X142865892Y-116499500D01*
X119865892Y-116499500D01*
X119734108Y-116499500D01*
X119606812Y-116533608D01*
X119492686Y-116599500D01*
X119492683Y-116599502D01*
X119399502Y-116692683D01*
X119399500Y-116692686D01*
X119333608Y-116806812D01*
X119299500Y-116934108D01*
X110000500Y-116934108D01*
X110000500Y-116099996D01*
X111394435Y-116099996D01*
X111394435Y-116100003D01*
X111414630Y-116279249D01*
X111414631Y-116279254D01*
X111474211Y-116449523D01*
X111505614Y-116499500D01*
X111570184Y-116602262D01*
X111697738Y-116729816D01*
X111850478Y-116825789D01*
X112020745Y-116885368D01*
X112020750Y-116885369D01*
X112199996Y-116905565D01*
X112200000Y-116905565D01*
X112200004Y-116905565D01*
X112379249Y-116885369D01*
X112379252Y-116885368D01*
X112379255Y-116885368D01*
X112549522Y-116825789D01*
X112702262Y-116729816D01*
X112829816Y-116602262D01*
X112925789Y-116449522D01*
X112985368Y-116279255D01*
X112985369Y-116279249D01*
X113005565Y-116100003D01*
X113005565Y-116099996D01*
X112985369Y-115920750D01*
X112985368Y-115920745D01*
X112951767Y-115824718D01*
X112925789Y-115750478D01*
X112921962Y-115744388D01*
X112886582Y-115688080D01*
X112829816Y-115597738D01*
X112702262Y-115470184D01*
X112638017Y-115429816D01*
X112549523Y-115374211D01*
X112379254Y-115314631D01*
X112379249Y-115314630D01*
X112200004Y-115294435D01*
X112199996Y-115294435D01*
X112020750Y-115314630D01*
X112020745Y-115314631D01*
X111850476Y-115374211D01*
X111697737Y-115470184D01*
X111570184Y-115597737D01*
X111474211Y-115750476D01*
X111414631Y-115920745D01*
X111414630Y-115920750D01*
X111394435Y-116099996D01*
X110000500Y-116099996D01*
X110000500Y-113779996D01*
X110020185Y-113712957D01*
X110036819Y-113692315D01*
X114329138Y-109399996D01*
X123294435Y-109399996D01*
X123294435Y-109400003D01*
X123314630Y-109579249D01*
X123314633Y-109579262D01*
X123374209Y-109749520D01*
X123427309Y-109834029D01*
X123446309Y-109901266D01*
X123427309Y-109965971D01*
X123374209Y-110050479D01*
X123314633Y-110220737D01*
X123314630Y-110220750D01*
X123294435Y-110399996D01*
X123294435Y-110400003D01*
X123314630Y-110579249D01*
X123314631Y-110579254D01*
X123374211Y-110749523D01*
X123458727Y-110884028D01*
X123477727Y-110951264D01*
X123458727Y-111015972D01*
X123374211Y-111150476D01*
X123314631Y-111320745D01*
X123314630Y-111320750D01*
X123294435Y-111499996D01*
X123294435Y-111500003D01*
X123314630Y-111679249D01*
X123314631Y-111679254D01*
X123374211Y-111849523D01*
X123395171Y-111882880D01*
X123470184Y-112002262D01*
X123597738Y-112129816D01*
X123648499Y-112161711D01*
X123701641Y-112195103D01*
X123750478Y-112225789D01*
X123818309Y-112249524D01*
X123920745Y-112285368D01*
X123920750Y-112285369D01*
X124099996Y-112305565D01*
X124100000Y-112305565D01*
X124100004Y-112305565D01*
X124279249Y-112285369D01*
X124279252Y-112285368D01*
X124279255Y-112285368D01*
X124449522Y-112225789D01*
X124602262Y-112129816D01*
X124662319Y-112069759D01*
X124723642Y-112036274D01*
X124793334Y-112041258D01*
X124837681Y-112069759D01*
X124897738Y-112129816D01*
X124948499Y-112161711D01*
X125001641Y-112195103D01*
X125050478Y-112225789D01*
X125118309Y-112249524D01*
X125220745Y-112285368D01*
X125220750Y-112285369D01*
X125399996Y-112305565D01*
X125400000Y-112305565D01*
X125400004Y-112305565D01*
X125579249Y-112285369D01*
X125579252Y-112285368D01*
X125579255Y-112285368D01*
X125749522Y-112225789D01*
X125902262Y-112129816D01*
X126029816Y-112002262D01*
X126125789Y-111849522D01*
X126185368Y-111679255D01*
X126188580Y-111650750D01*
X126205565Y-111500003D01*
X126205565Y-111499996D01*
X126185369Y-111320750D01*
X126185368Y-111320745D01*
X126125788Y-111150475D01*
X126080823Y-111078915D01*
X126041272Y-111015970D01*
X126022272Y-110948736D01*
X126041273Y-110884028D01*
X126119911Y-110758877D01*
X126125788Y-110749524D01*
X126125789Y-110749522D01*
X126185368Y-110579255D01*
X126205565Y-110400000D01*
X126199877Y-110349519D01*
X126185369Y-110220750D01*
X126185368Y-110220745D01*
X126125788Y-110050475D01*
X126072691Y-109965973D01*
X126053690Y-109898736D01*
X126072691Y-109834027D01*
X126125788Y-109749524D01*
X126125789Y-109749522D01*
X126185368Y-109579255D01*
X126185369Y-109579249D01*
X126205565Y-109400003D01*
X126205565Y-109399996D01*
X126185369Y-109220750D01*
X126185368Y-109220745D01*
X126178166Y-109200163D01*
X126125789Y-109050478D01*
X126029816Y-108897738D01*
X125902262Y-108770184D01*
X125831608Y-108725789D01*
X125749523Y-108674211D01*
X125579254Y-108614631D01*
X125579249Y-108614630D01*
X125400004Y-108594435D01*
X125399996Y-108594435D01*
X125220750Y-108614630D01*
X125220745Y-108614631D01*
X125050476Y-108674211D01*
X124897737Y-108770184D01*
X124837681Y-108830241D01*
X124776358Y-108863726D01*
X124706666Y-108858742D01*
X124662319Y-108830241D01*
X124602262Y-108770184D01*
X124449523Y-108674211D01*
X124279254Y-108614631D01*
X124279249Y-108614630D01*
X124100004Y-108594435D01*
X124099996Y-108594435D01*
X123920750Y-108614630D01*
X123920745Y-108614631D01*
X123750476Y-108674211D01*
X123597737Y-108770184D01*
X123470184Y-108897737D01*
X123374211Y-109050476D01*
X123314631Y-109220745D01*
X123314630Y-109220750D01*
X123294435Y-109399996D01*
X114329138Y-109399996D01*
X115646757Y-108082377D01*
X128695034Y-108082377D01*
X128695034Y-108082382D01*
X128714858Y-108308979D01*
X128714860Y-108308990D01*
X128773730Y-108528697D01*
X128773735Y-108528711D01*
X128869863Y-108734858D01*
X128920974Y-108807852D01*
X129600000Y-108128826D01*
X129600000Y-108135041D01*
X129627259Y-108236774D01*
X129679920Y-108327986D01*
X129754394Y-108402460D01*
X129845606Y-108455121D01*
X129947339Y-108482380D01*
X129953553Y-108482380D01*
X129269352Y-109166579D01*
X129259506Y-109215574D01*
X129210890Y-109265757D01*
X129155367Y-109280429D01*
X129155423Y-109281479D01*
X129155429Y-109281526D01*
X129155426Y-109281526D01*
X129155436Y-109281704D01*
X129152123Y-109281881D01*
X129092516Y-109288288D01*
X128957671Y-109338582D01*
X128957664Y-109338586D01*
X128842455Y-109424832D01*
X128842452Y-109424835D01*
X128756206Y-109540044D01*
X128756202Y-109540051D01*
X128705908Y-109674897D01*
X128703920Y-109693393D01*
X128699501Y-109734503D01*
X128699500Y-109734515D01*
X128699500Y-111430250D01*
X128699501Y-111430256D01*
X128705908Y-111489863D01*
X128756202Y-111624708D01*
X128756206Y-111624715D01*
X128842452Y-111739924D01*
X128842455Y-111739927D01*
X128957664Y-111826173D01*
X128957671Y-111826177D01*
X129092517Y-111876471D01*
X129092516Y-111876471D01*
X129099444Y-111877215D01*
X129152127Y-111882880D01*
X130847872Y-111882879D01*
X130907483Y-111876471D01*
X131042331Y-111826176D01*
X131157546Y-111739926D01*
X131243796Y-111624711D01*
X131294091Y-111489863D01*
X131300500Y-111430253D01*
X131300499Y-109734508D01*
X131294686Y-109680433D01*
X131294091Y-109674896D01*
X131243797Y-109540051D01*
X131243793Y-109540044D01*
X131157547Y-109424835D01*
X131157544Y-109424832D01*
X131042335Y-109338586D01*
X131042328Y-109338582D01*
X130907482Y-109288288D01*
X130907483Y-109288288D01*
X130847883Y-109281881D01*
X130847881Y-109281880D01*
X130847873Y-109281880D01*
X130847864Y-109281880D01*
X130844548Y-109281702D01*
X130844627Y-109280227D01*
X130783215Y-109262195D01*
X130737460Y-109209391D01*
X130729969Y-109165902D01*
X130046447Y-108482380D01*
X130052661Y-108482380D01*
X130154394Y-108455121D01*
X130245606Y-108402460D01*
X130320080Y-108327986D01*
X130372741Y-108236774D01*
X130400000Y-108135041D01*
X130400000Y-108128827D01*
X131079024Y-108807851D01*
X131130136Y-108734858D01*
X131226264Y-108528711D01*
X131226269Y-108528697D01*
X131285139Y-108308990D01*
X131285141Y-108308979D01*
X131304966Y-108082382D01*
X131304966Y-108082377D01*
X131285141Y-107855780D01*
X131285139Y-107855769D01*
X131226269Y-107636062D01*
X131226264Y-107636048D01*
X131130136Y-107429901D01*
X131130132Y-107429893D01*
X131079025Y-107356906D01*
X130400000Y-108035931D01*
X130400000Y-108029719D01*
X130372741Y-107927986D01*
X130320080Y-107836774D01*
X130245606Y-107762300D01*
X130154394Y-107709639D01*
X130052661Y-107682380D01*
X130046448Y-107682380D01*
X130725472Y-107003354D01*
X130652478Y-106952243D01*
X130446331Y-106856115D01*
X130446317Y-106856110D01*
X130226610Y-106797240D01*
X130226599Y-106797238D01*
X130000002Y-106777414D01*
X129999998Y-106777414D01*
X129773400Y-106797238D01*
X129773389Y-106797240D01*
X129553682Y-106856110D01*
X129553673Y-106856114D01*
X129347516Y-106952246D01*
X129347512Y-106952248D01*
X129274526Y-107003353D01*
X129274526Y-107003354D01*
X129953553Y-107682380D01*
X129947339Y-107682380D01*
X129845606Y-107709639D01*
X129754394Y-107762300D01*
X129679920Y-107836774D01*
X129627259Y-107927986D01*
X129600000Y-108029719D01*
X129600000Y-108035932D01*
X128920974Y-107356906D01*
X128920973Y-107356906D01*
X128869868Y-107429892D01*
X128869866Y-107429896D01*
X128773734Y-107636053D01*
X128773730Y-107636062D01*
X128714860Y-107855769D01*
X128714858Y-107855780D01*
X128695034Y-108082377D01*
X115646757Y-108082377D01*
X121367315Y-102361819D01*
X121428638Y-102328334D01*
X121454996Y-102325500D01*
X128201459Y-102325500D01*
X131875500Y-102325500D01*
X131942539Y-102345185D01*
X131988294Y-102397989D01*
X131999500Y-102449500D01*
X131999500Y-103612757D01*
X132012307Y-103677139D01*
X132033668Y-103784530D01*
X132033668Y-103784532D01*
X132037948Y-103806045D01*
X132037950Y-103806053D01*
X132113364Y-103988121D01*
X132113371Y-103988134D01*
X132222859Y-104151994D01*
X132222860Y-104151995D01*
X132222861Y-104151996D01*
X132362218Y-104291353D01*
X132362219Y-104291353D01*
X132369286Y-104298420D01*
X132369285Y-104298420D01*
X132369289Y-104298423D01*
X146763181Y-118692315D01*
X146796666Y-118753638D01*
X146799500Y-118779996D01*
X146799500Y-126309217D01*
X146779815Y-126376256D01*
X146763181Y-126396898D01*
X146722863Y-126437215D01*
X146722860Y-126437219D01*
X146613372Y-126601079D01*
X146613367Y-126601089D01*
X146537949Y-126783163D01*
X146537947Y-126783171D01*
X146499500Y-126976455D01*
X146499500Y-127173544D01*
X146537947Y-127366828D01*
X146537949Y-127366836D01*
X146613367Y-127548910D01*
X146613372Y-127548920D01*
X146722860Y-127712780D01*
X146722863Y-127712784D01*
X146862215Y-127852136D01*
X146862219Y-127852139D01*
X147026079Y-127961627D01*
X147026083Y-127961629D01*
X147026086Y-127961631D01*
X147208164Y-128037051D01*
X147323328Y-128059958D01*
X147385235Y-128092341D01*
X147386815Y-128093893D01*
X148603211Y-129310289D01*
X148714711Y-129421789D01*
X148845821Y-129509394D01*
X148948833Y-129552062D01*
X148991502Y-129569737D01*
X149146152Y-129600499D01*
X149146155Y-129600500D01*
X149146157Y-129600500D01*
X185553844Y-129600500D01*
X185553845Y-129600499D01*
X185708497Y-129569737D01*
X185854179Y-129509394D01*
X185985289Y-129421789D01*
X188021789Y-127385289D01*
X188029816Y-127377262D01*
X188070921Y-127311842D01*
X188072778Y-127308976D01*
X188109393Y-127254179D01*
X188109719Y-127253389D01*
X188119293Y-127234859D01*
X188125789Y-127224522D01*
X188147017Y-127163852D01*
X188149493Y-127157368D01*
X188169737Y-127108497D01*
X188172450Y-127094852D01*
X188177020Y-127078107D01*
X188185368Y-127054255D01*
X188191110Y-127003283D01*
X188192707Y-126993017D01*
X188200500Y-126953842D01*
X188200500Y-126926914D01*
X188201280Y-126913029D01*
X188205565Y-126875001D01*
X188205565Y-126874998D01*
X188201280Y-126836969D01*
X188200500Y-126823085D01*
X188200500Y-126796157D01*
X188192711Y-126757003D01*
X188191110Y-126746714D01*
X188185368Y-126695745D01*
X188177023Y-126671898D01*
X188172449Y-126655139D01*
X188169737Y-126641503D01*
X188169735Y-126641498D01*
X188169734Y-126641494D01*
X188149492Y-126592627D01*
X188147022Y-126586160D01*
X188125789Y-126525478D01*
X188119288Y-126515132D01*
X188109720Y-126496611D01*
X188109393Y-126495821D01*
X188072794Y-126441046D01*
X188070909Y-126438137D01*
X188029816Y-126372738D01*
X187902260Y-126245182D01*
X187902257Y-126245180D01*
X187836854Y-126204085D01*
X187833962Y-126202211D01*
X187795011Y-126176185D01*
X187779184Y-126165610D01*
X187779181Y-126165608D01*
X187779179Y-126165607D01*
X187779175Y-126165605D01*
X187779165Y-126165600D01*
X187778375Y-126165273D01*
X187759868Y-126155712D01*
X187749522Y-126149211D01*
X187719585Y-126138735D01*
X187688856Y-126127982D01*
X187682363Y-126125503D01*
X187633497Y-126105263D01*
X187633493Y-126105262D01*
X187619860Y-126102550D01*
X187603104Y-126097976D01*
X187579260Y-126089633D01*
X187579256Y-126089632D01*
X187579255Y-126089632D01*
X187558575Y-126087301D01*
X187528303Y-126083890D01*
X187518003Y-126082288D01*
X187478844Y-126074500D01*
X187478842Y-126074500D01*
X187451915Y-126074500D01*
X187438031Y-126073720D01*
X187400002Y-126069435D01*
X187399998Y-126069435D01*
X187361969Y-126073720D01*
X187348085Y-126074500D01*
X187321152Y-126074500D01*
X187281994Y-126082288D01*
X187271696Y-126083890D01*
X187220742Y-126089632D01*
X187220739Y-126089633D01*
X187196900Y-126097975D01*
X187180139Y-126102550D01*
X187166504Y-126105262D01*
X187117627Y-126125507D01*
X187111133Y-126127986D01*
X187050475Y-126149212D01*
X187040127Y-126155714D01*
X187021627Y-126165272D01*
X187020825Y-126165604D01*
X187020824Y-126165604D01*
X186966035Y-126202211D01*
X186963123Y-126204098D01*
X186897738Y-126245183D01*
X186897735Y-126245186D01*
X185212181Y-127930741D01*
X185150858Y-127964226D01*
X185081166Y-127959242D01*
X185025233Y-127917370D01*
X185000816Y-127851906D01*
X185000500Y-127843060D01*
X185000500Y-123041049D01*
X189841453Y-123041049D01*
X189841453Y-123041056D01*
X189861648Y-123220302D01*
X189861649Y-123220307D01*
X189921229Y-123390576D01*
X190004790Y-123523562D01*
X190017202Y-123543315D01*
X190144756Y-123670869D01*
X190297496Y-123766842D01*
X190467763Y-123826421D01*
X190467768Y-123826422D01*
X190647014Y-123846618D01*
X190647018Y-123846618D01*
X190647022Y-123846618D01*
X190826267Y-123826422D01*
X190826270Y-123826421D01*
X190826273Y-123826421D01*
X190996540Y-123766842D01*
X191149280Y-123670869D01*
X191276834Y-123543315D01*
X191372807Y-123390575D01*
X191432386Y-123220308D01*
X191442070Y-123134359D01*
X191452583Y-123041056D01*
X191452583Y-123041050D01*
X191434424Y-122879886D01*
X191446478Y-122811064D01*
X191493827Y-122759684D01*
X191543760Y-122742782D01*
X191588674Y-122737721D01*
X191631749Y-122732869D01*
X191631752Y-122732868D01*
X191631755Y-122732868D01*
X191802022Y-122673289D01*
X191954762Y-122577316D01*
X192082316Y-122449762D01*
X192178289Y-122297022D01*
X192237868Y-122126755D01*
X192249244Y-122025788D01*
X192258065Y-121947503D01*
X192258065Y-121947496D01*
X192237869Y-121768250D01*
X192237868Y-121768245D01*
X192213987Y-121699996D01*
X193894435Y-121699996D01*
X193894435Y-121700003D01*
X193914630Y-121879249D01*
X193914631Y-121879254D01*
X193974211Y-122049523D01*
X194037289Y-122149910D01*
X194070184Y-122202262D01*
X194197738Y-122329816D01*
X194228255Y-122348991D01*
X194327318Y-122411237D01*
X194350478Y-122425789D01*
X194418989Y-122449762D01*
X194520745Y-122485368D01*
X194520750Y-122485369D01*
X194699996Y-122505565D01*
X194700000Y-122505565D01*
X194700004Y-122505565D01*
X194879249Y-122485369D01*
X194879252Y-122485368D01*
X194879255Y-122485368D01*
X195049522Y-122425789D01*
X195202262Y-122329816D01*
X195329816Y-122202262D01*
X195425789Y-122049522D01*
X195485368Y-121879255D01*
X195494254Y-121800388D01*
X195505565Y-121700003D01*
X195505565Y-121699996D01*
X195485369Y-121520750D01*
X195485368Y-121520745D01*
X195458947Y-121445238D01*
X195425789Y-121350478D01*
X195421935Y-121344345D01*
X195356368Y-121239996D01*
X195329816Y-121197738D01*
X195202262Y-121070184D01*
X195160336Y-121043840D01*
X195049523Y-120974211D01*
X194879254Y-120914631D01*
X194879249Y-120914630D01*
X194700004Y-120894435D01*
X194699996Y-120894435D01*
X194520750Y-120914630D01*
X194520745Y-120914631D01*
X194350476Y-120974211D01*
X194197737Y-121070184D01*
X194070184Y-121197737D01*
X193974211Y-121350476D01*
X193914631Y-121520745D01*
X193914630Y-121520750D01*
X193894435Y-121699996D01*
X192213987Y-121699996D01*
X192178288Y-121597976D01*
X192103690Y-121479255D01*
X192082316Y-121445238D01*
X191954762Y-121317684D01*
X191831134Y-121240003D01*
X191802023Y-121221711D01*
X191631754Y-121162131D01*
X191631749Y-121162130D01*
X191452504Y-121141935D01*
X191452496Y-121141935D01*
X191273250Y-121162130D01*
X191273245Y-121162131D01*
X191102976Y-121221711D01*
X190950237Y-121317684D01*
X190822684Y-121445237D01*
X190726711Y-121597976D01*
X190667131Y-121768245D01*
X190667130Y-121768250D01*
X190646935Y-121947496D01*
X190646935Y-121947503D01*
X190665093Y-122108667D01*
X190653038Y-122177489D01*
X190605689Y-122228868D01*
X190555756Y-122245770D01*
X190467768Y-122255683D01*
X190467763Y-122255684D01*
X190297494Y-122315264D01*
X190144755Y-122411237D01*
X190017202Y-122538790D01*
X189921229Y-122691529D01*
X189861649Y-122861798D01*
X189861648Y-122861803D01*
X189841453Y-123041049D01*
X185000500Y-123041049D01*
X185000500Y-116934110D01*
X185000500Y-116934108D01*
X184966392Y-116806814D01*
X184965107Y-116804589D01*
X184936093Y-116754335D01*
X184900500Y-116692686D01*
X184807314Y-116599500D01*
X184750250Y-116566554D01*
X184693187Y-116533608D01*
X184629539Y-116516554D01*
X184565892Y-116499500D01*
X161065892Y-116499500D01*
X160934108Y-116499500D01*
X160806812Y-116533608D01*
X160692686Y-116599500D01*
X160692683Y-116599502D01*
X160599502Y-116692683D01*
X160599500Y-116692686D01*
X160533608Y-116806812D01*
X160499500Y-116934108D01*
X160499500Y-123985217D01*
X160479815Y-124052256D01*
X160427011Y-124098011D01*
X160357853Y-124107955D01*
X160294297Y-124078930D01*
X160287819Y-124072898D01*
X157436819Y-121221898D01*
X157403334Y-121160575D01*
X157400500Y-121134217D01*
X157400500Y-118599996D01*
X157694435Y-118599996D01*
X157694435Y-118600003D01*
X157714630Y-118779249D01*
X157714632Y-118779257D01*
X157773169Y-118946546D01*
X157776730Y-119016324D01*
X157773169Y-119028454D01*
X157714632Y-119195742D01*
X157714630Y-119195750D01*
X157694435Y-119374996D01*
X157694435Y-119375003D01*
X157714630Y-119554249D01*
X157714631Y-119554254D01*
X157774211Y-119724523D01*
X157870184Y-119877262D01*
X157997738Y-120004816D01*
X158150478Y-120100789D01*
X158320745Y-120160368D01*
X158320750Y-120160369D01*
X158499996Y-120180565D01*
X158500000Y-120180565D01*
X158500004Y-120180565D01*
X158679249Y-120160369D01*
X158679252Y-120160368D01*
X158679255Y-120160368D01*
X158849522Y-120100789D01*
X159002262Y-120004816D01*
X159129816Y-119877262D01*
X159225789Y-119724522D01*
X159285368Y-119554255D01*
X159286808Y-119541477D01*
X159305565Y-119375003D01*
X159305565Y-119374996D01*
X159285369Y-119195750D01*
X159285367Y-119195740D01*
X159260155Y-119123690D01*
X159226829Y-119028452D01*
X159223267Y-118958677D01*
X159226824Y-118946562D01*
X159285368Y-118779255D01*
X159285369Y-118779249D01*
X159305565Y-118600003D01*
X159305565Y-118599996D01*
X159285369Y-118420750D01*
X159285368Y-118420745D01*
X159225788Y-118250476D01*
X159129815Y-118097737D01*
X159002262Y-117970184D01*
X158849523Y-117874211D01*
X158679254Y-117814631D01*
X158679249Y-117814630D01*
X158500004Y-117794435D01*
X158499996Y-117794435D01*
X158320750Y-117814630D01*
X158320745Y-117814631D01*
X158150476Y-117874211D01*
X157997737Y-117970184D01*
X157870184Y-118097737D01*
X157774211Y-118250476D01*
X157714631Y-118420745D01*
X157714630Y-118420750D01*
X157694435Y-118599996D01*
X157400500Y-118599996D01*
X157400500Y-116201456D01*
X157365896Y-116027495D01*
X157365896Y-116027494D01*
X157362051Y-116008164D01*
X157345379Y-115967914D01*
X157335145Y-115943207D01*
X157335133Y-115943180D01*
X157325842Y-115920750D01*
X157305626Y-115871942D01*
X157286635Y-115826092D01*
X157286633Y-115826088D01*
X157286632Y-115826086D01*
X157285714Y-115824712D01*
X157177139Y-115662217D01*
X157034686Y-115519764D01*
X157034655Y-115519735D01*
X156381479Y-114866559D01*
X156381459Y-114866537D01*
X156234686Y-114719764D01*
X156234655Y-114719735D01*
X155127101Y-113612181D01*
X155093616Y-113550858D01*
X155098600Y-113481166D01*
X155140472Y-113425233D01*
X155205936Y-113400816D01*
X155214782Y-113400500D01*
X155398543Y-113400500D01*
X155528582Y-113374632D01*
X155591835Y-113362051D01*
X155773914Y-113286632D01*
X155937782Y-113177139D01*
X156077139Y-113037782D01*
X156186632Y-112873914D01*
X156262051Y-112691835D01*
X156291076Y-112545919D01*
X156300500Y-112498543D01*
X156300500Y-112301456D01*
X156262052Y-112108170D01*
X156262051Y-112108169D01*
X156262051Y-112108165D01*
X156238850Y-112052152D01*
X156186635Y-111926092D01*
X156186628Y-111926079D01*
X156169200Y-111899996D01*
X158794435Y-111899996D01*
X158794435Y-111900003D01*
X158814630Y-112079249D01*
X158814633Y-112079262D01*
X158874209Y-112249520D01*
X158927309Y-112334029D01*
X158946309Y-112401266D01*
X158927309Y-112465971D01*
X158874209Y-112550479D01*
X158814633Y-112720737D01*
X158814630Y-112720750D01*
X158794435Y-112899996D01*
X158794435Y-112900003D01*
X158814630Y-113079249D01*
X158814631Y-113079254D01*
X158874211Y-113249523D01*
X158944916Y-113362049D01*
X158970184Y-113402262D01*
X159097738Y-113529816D01*
X159250478Y-113625789D01*
X159377352Y-113670184D01*
X159420745Y-113685368D01*
X159420750Y-113685369D01*
X159599996Y-113705565D01*
X159600000Y-113705565D01*
X159600004Y-113705565D01*
X159779249Y-113685369D01*
X159779252Y-113685368D01*
X159779255Y-113685368D01*
X159949522Y-113625789D01*
X160102262Y-113529816D01*
X160229816Y-113402262D01*
X160325789Y-113249522D01*
X160385368Y-113079255D01*
X160385369Y-113079249D01*
X160405565Y-112900003D01*
X160405565Y-112899996D01*
X160404157Y-112887496D01*
X165094435Y-112887496D01*
X165094435Y-112887503D01*
X165114630Y-113066749D01*
X165114631Y-113066754D01*
X165174211Y-113237023D01*
X165248335Y-113354989D01*
X165270184Y-113389762D01*
X165397738Y-113517316D01*
X165410378Y-113525258D01*
X165548714Y-113612181D01*
X165550478Y-113613289D01*
X165713075Y-113670184D01*
X165720745Y-113672868D01*
X165720750Y-113672869D01*
X165899996Y-113693065D01*
X165900000Y-113693065D01*
X165900004Y-113693065D01*
X166079249Y-113672869D01*
X166079252Y-113672868D01*
X166079255Y-113672868D01*
X166249522Y-113613289D01*
X166402262Y-113517316D01*
X166529816Y-113389762D01*
X166625789Y-113237022D01*
X166685368Y-113066755D01*
X166688632Y-113037785D01*
X166705565Y-112887503D01*
X166705565Y-112887496D01*
X166685369Y-112708250D01*
X166685368Y-112708245D01*
X166630162Y-112550475D01*
X166625789Y-112537978D01*
X166529816Y-112385238D01*
X166402262Y-112257684D01*
X166249523Y-112161711D01*
X166079254Y-112102131D01*
X166079249Y-112102130D01*
X165900004Y-112081935D01*
X165899996Y-112081935D01*
X165720750Y-112102130D01*
X165720745Y-112102131D01*
X165550476Y-112161711D01*
X165397737Y-112257684D01*
X165270184Y-112385237D01*
X165174211Y-112537976D01*
X165114631Y-112708245D01*
X165114630Y-112708250D01*
X165094435Y-112887496D01*
X160404157Y-112887496D01*
X160385369Y-112720750D01*
X160385368Y-112720745D01*
X160325788Y-112550475D01*
X160272691Y-112465973D01*
X160253690Y-112398736D01*
X160272691Y-112334027D01*
X160325788Y-112249524D01*
X160325789Y-112249522D01*
X160385368Y-112079255D01*
X160388422Y-112052151D01*
X160405565Y-111900003D01*
X160405565Y-111899996D01*
X160385369Y-111720750D01*
X160385368Y-111720745D01*
X160360874Y-111650745D01*
X160325789Y-111550478D01*
X160229816Y-111397738D01*
X160102262Y-111270184D01*
X160027136Y-111222979D01*
X159949523Y-111174211D01*
X159779254Y-111114631D01*
X159779249Y-111114630D01*
X159600004Y-111094435D01*
X159599996Y-111094435D01*
X159420750Y-111114630D01*
X159420745Y-111114631D01*
X159250476Y-111174211D01*
X159097737Y-111270184D01*
X158970184Y-111397737D01*
X158874211Y-111550476D01*
X158814631Y-111720745D01*
X158814630Y-111720750D01*
X158794435Y-111899996D01*
X156169200Y-111899996D01*
X156077139Y-111762218D01*
X156077136Y-111762214D01*
X155937785Y-111622863D01*
X155937781Y-111622860D01*
X155773920Y-111513371D01*
X155773907Y-111513364D01*
X155591839Y-111437950D01*
X155591829Y-111437947D01*
X155398543Y-111399500D01*
X155398541Y-111399500D01*
X152965782Y-111399500D01*
X152898743Y-111379815D01*
X152878101Y-111363181D01*
X152792646Y-111277726D01*
X152759161Y-111216403D01*
X152764145Y-111146711D01*
X152806017Y-111090778D01*
X152814343Y-111085059D01*
X152902262Y-111029816D01*
X153029816Y-110902262D01*
X153125789Y-110749522D01*
X153185368Y-110579255D01*
X153205565Y-110400000D01*
X153199877Y-110349519D01*
X153185369Y-110220750D01*
X153185368Y-110220745D01*
X153168567Y-110172731D01*
X153125789Y-110050478D01*
X153094069Y-109999996D01*
X154994435Y-109999996D01*
X154994435Y-110000003D01*
X155014630Y-110179249D01*
X155014631Y-110179254D01*
X155074211Y-110349523D01*
X155105926Y-110399996D01*
X155170184Y-110502262D01*
X155297738Y-110629816D01*
X155450478Y-110725789D01*
X155545038Y-110758877D01*
X155620745Y-110785368D01*
X155620750Y-110785369D01*
X155799996Y-110805565D01*
X155800000Y-110805565D01*
X155800004Y-110805565D01*
X155979249Y-110785369D01*
X155979252Y-110785368D01*
X155979255Y-110785368D01*
X156149522Y-110725789D01*
X156302262Y-110629816D01*
X156429816Y-110502262D01*
X156525789Y-110349522D01*
X156528363Y-110342166D01*
X156569082Y-110285388D01*
X156604448Y-110266075D01*
X156765639Y-110209672D01*
X156918379Y-110113699D01*
X157045933Y-109986145D01*
X157141906Y-109833405D01*
X157188197Y-109701112D01*
X157228918Y-109644338D01*
X157293870Y-109618590D01*
X157362432Y-109632046D01*
X157412835Y-109680433D01*
X157422279Y-109701113D01*
X157474209Y-109849519D01*
X157504507Y-109897738D01*
X157570184Y-110002262D01*
X157697738Y-110129816D01*
X157699758Y-110131085D01*
X157842450Y-110220745D01*
X157850478Y-110225789D01*
X158001849Y-110278756D01*
X158020745Y-110285368D01*
X158020750Y-110285369D01*
X158199996Y-110305565D01*
X158200000Y-110305565D01*
X158200004Y-110305565D01*
X158379249Y-110285369D01*
X158379252Y-110285368D01*
X158379255Y-110285368D01*
X158549522Y-110225789D01*
X158702262Y-110129816D01*
X158762319Y-110069759D01*
X158823642Y-110036274D01*
X158893334Y-110041258D01*
X158937681Y-110069759D01*
X158997738Y-110129816D01*
X158999758Y-110131085D01*
X159142450Y-110220745D01*
X159150478Y-110225789D01*
X159301849Y-110278756D01*
X159320745Y-110285368D01*
X159320750Y-110285369D01*
X159499996Y-110305565D01*
X159500000Y-110305565D01*
X159500004Y-110305565D01*
X159679249Y-110285369D01*
X159679252Y-110285368D01*
X159679255Y-110285368D01*
X159849522Y-110225789D01*
X160002262Y-110129816D01*
X160129816Y-110002262D01*
X160225789Y-109849522D01*
X160285368Y-109679255D01*
X160285859Y-109674896D01*
X160305565Y-109500003D01*
X160305565Y-109499996D01*
X160285369Y-109320750D01*
X160285368Y-109320745D01*
X160279728Y-109304628D01*
X160225789Y-109150478D01*
X160129816Y-108997738D01*
X160002262Y-108870184D01*
X159997338Y-108865260D01*
X159998652Y-108863945D01*
X159963872Y-108814378D01*
X159961033Y-108744566D01*
X159993647Y-108686959D01*
X160095503Y-108585104D01*
X160123048Y-108541265D01*
X160175382Y-108494974D01*
X160244435Y-108484325D01*
X160308284Y-108512700D01*
X160345084Y-108566282D01*
X160356884Y-108600003D01*
X160374211Y-108649522D01*
X160470184Y-108802262D01*
X160597738Y-108929816D01*
X160680184Y-108981620D01*
X160705833Y-108997737D01*
X160750478Y-109025789D01*
X160920745Y-109085368D01*
X160920750Y-109085369D01*
X161099996Y-109105565D01*
X161100000Y-109105565D01*
X161100004Y-109105565D01*
X161279249Y-109085369D01*
X161279252Y-109085368D01*
X161279255Y-109085368D01*
X161449522Y-109025789D01*
X161602262Y-108929816D01*
X161729816Y-108802262D01*
X161784986Y-108714458D01*
X161837319Y-108668169D01*
X161906373Y-108657520D01*
X161970221Y-108685895D01*
X162008594Y-108744285D01*
X162013199Y-108766544D01*
X162014631Y-108779252D01*
X162014631Y-108779254D01*
X162074211Y-108949523D01*
X162137646Y-109050478D01*
X162170184Y-109102262D01*
X162297738Y-109229816D01*
X162349269Y-109262195D01*
X162442450Y-109320745D01*
X162450478Y-109325789D01*
X162563371Y-109365292D01*
X162620745Y-109385368D01*
X162620750Y-109385369D01*
X162799996Y-109405565D01*
X162800000Y-109405565D01*
X162800004Y-109405565D01*
X162979249Y-109385369D01*
X162979252Y-109385368D01*
X162979255Y-109385368D01*
X163149522Y-109325789D01*
X163302262Y-109229816D01*
X163429816Y-109102262D01*
X163525789Y-108949522D01*
X163585368Y-108779255D01*
X163585369Y-108779249D01*
X163605565Y-108600003D01*
X163605565Y-108599996D01*
X163585369Y-108420750D01*
X163585368Y-108420745D01*
X163543117Y-108300000D01*
X163525789Y-108250478D01*
X163429816Y-108097738D01*
X163302262Y-107970184D01*
X163238017Y-107929816D01*
X163149523Y-107874211D01*
X162979254Y-107814631D01*
X162979249Y-107814630D01*
X162800004Y-107794435D01*
X162799996Y-107794435D01*
X162620750Y-107814630D01*
X162620745Y-107814631D01*
X162450476Y-107874211D01*
X162297737Y-107970184D01*
X162170184Y-108097737D01*
X162170182Y-108097740D01*
X162115013Y-108185540D01*
X162062678Y-108231831D01*
X161993625Y-108242478D01*
X161929776Y-108214103D01*
X161891405Y-108155712D01*
X161886800Y-108133449D01*
X161885369Y-108120750D01*
X161885368Y-108120745D01*
X161877318Y-108097740D01*
X161825789Y-107950478D01*
X161729816Y-107797738D01*
X161602262Y-107670184D01*
X161569379Y-107649522D01*
X161449523Y-107574211D01*
X161279254Y-107514631D01*
X161279249Y-107514630D01*
X161100004Y-107494435D01*
X161099996Y-107494435D01*
X160920750Y-107514630D01*
X160920745Y-107514631D01*
X160750476Y-107574211D01*
X160597737Y-107670184D01*
X160470185Y-107797736D01*
X160442637Y-107841578D01*
X160390302Y-107887868D01*
X160321248Y-107898515D01*
X160257400Y-107870139D01*
X160220602Y-107816558D01*
X160219927Y-107814630D01*
X160191476Y-107733320D01*
X160095503Y-107580580D01*
X159967949Y-107453026D01*
X159815209Y-107357053D01*
X159781298Y-107345187D01*
X159724522Y-107304465D01*
X159699033Y-107242028D01*
X159685369Y-107120749D01*
X159685366Y-107120737D01*
X159625790Y-106950480D01*
X159623092Y-106946186D01*
X159604091Y-106878950D01*
X159623092Y-106814241D01*
X159640932Y-106785850D01*
X159700511Y-106615583D01*
X159700978Y-106611433D01*
X159702027Y-106608936D01*
X159702060Y-106608795D01*
X159702084Y-106608800D01*
X159728041Y-106547020D01*
X159758222Y-106520322D01*
X159902262Y-106429816D01*
X160029816Y-106302262D01*
X160125789Y-106149522D01*
X160185368Y-105979255D01*
X160185369Y-105979249D01*
X160205565Y-105800003D01*
X160205565Y-105799996D01*
X160185369Y-105620750D01*
X160185368Y-105620745D01*
X160163597Y-105558528D01*
X160125789Y-105450478D01*
X160029816Y-105297738D01*
X159902262Y-105170184D01*
X159749523Y-105074211D01*
X159579254Y-105014631D01*
X159579249Y-105014630D01*
X159400004Y-104994435D01*
X159399996Y-104994435D01*
X159220750Y-105014630D01*
X159220745Y-105014631D01*
X159050476Y-105074211D01*
X158897737Y-105170184D01*
X158770184Y-105297737D01*
X158674210Y-105450478D01*
X158614630Y-105620750D01*
X158614163Y-105624901D01*
X158613111Y-105627403D01*
X158613080Y-105627541D01*
X158613055Y-105627535D01*
X158587095Y-105689315D01*
X158556915Y-105716009D01*
X158412880Y-105806512D01*
X158285327Y-105934065D01*
X158189354Y-106086804D01*
X158129774Y-106257073D01*
X158129773Y-106257078D01*
X158109578Y-106436324D01*
X158109578Y-106436331D01*
X158129773Y-106615577D01*
X158129776Y-106615590D01*
X158189351Y-106785845D01*
X158189353Y-106785848D01*
X158189354Y-106785850D01*
X158192049Y-106790140D01*
X158211051Y-106857374D01*
X158192052Y-106922083D01*
X158174209Y-106950480D01*
X158114633Y-107120737D01*
X158114630Y-107120750D01*
X158094435Y-107299996D01*
X158094435Y-107300003D01*
X158114630Y-107479249D01*
X158114631Y-107479254D01*
X158174211Y-107649523D01*
X158227885Y-107734944D01*
X158270184Y-107802262D01*
X158397738Y-107929816D01*
X158461983Y-107970184D01*
X158536057Y-108016728D01*
X158550478Y-108025789D01*
X158584387Y-108037654D01*
X158641163Y-108078376D01*
X158666653Y-108140813D01*
X158680317Y-108262091D01*
X158680318Y-108262096D01*
X158739898Y-108432365D01*
X158835871Y-108585104D01*
X158968349Y-108717582D01*
X158967033Y-108718897D01*
X159001813Y-108768459D01*
X159004654Y-108838271D01*
X158972038Y-108895884D01*
X158937680Y-108930241D01*
X158876360Y-108963726D01*
X158806668Y-108958742D01*
X158762319Y-108930241D01*
X158702262Y-108870184D01*
X158549523Y-108774211D01*
X158379254Y-108714631D01*
X158379249Y-108714630D01*
X158200004Y-108694435D01*
X158199996Y-108694435D01*
X158020750Y-108714630D01*
X158020745Y-108714631D01*
X157850476Y-108774211D01*
X157697737Y-108870184D01*
X157570184Y-108997737D01*
X157474209Y-109150480D01*
X157427919Y-109282769D01*
X157387198Y-109339545D01*
X157322245Y-109365292D01*
X157253683Y-109351836D01*
X157203281Y-109303448D01*
X157193836Y-109282768D01*
X157141906Y-109134361D01*
X157089199Y-109050478D01*
X157045933Y-108981621D01*
X156918379Y-108854067D01*
X156880460Y-108830241D01*
X156765640Y-108758094D01*
X156595371Y-108698514D01*
X156595366Y-108698513D01*
X156416121Y-108678318D01*
X156416113Y-108678318D01*
X156236867Y-108698513D01*
X156236862Y-108698514D01*
X156066593Y-108758094D01*
X155913854Y-108854067D01*
X155786301Y-108981620D01*
X155690329Y-109134358D01*
X155690326Y-109134365D01*
X155687748Y-109141731D01*
X155647022Y-109198504D01*
X155611665Y-109217808D01*
X155450480Y-109274209D01*
X155297737Y-109370184D01*
X155170184Y-109497737D01*
X155074211Y-109650476D01*
X155014631Y-109820745D01*
X155014630Y-109820750D01*
X154994435Y-109999996D01*
X153094069Y-109999996D01*
X153029816Y-109897738D01*
X152902262Y-109770184D01*
X152869379Y-109749522D01*
X152749523Y-109674211D01*
X152579254Y-109614631D01*
X152579249Y-109614630D01*
X152400004Y-109594435D01*
X152399996Y-109594435D01*
X152220750Y-109614630D01*
X152220745Y-109614631D01*
X152050476Y-109674211D01*
X151897737Y-109770184D01*
X151770184Y-109897737D01*
X151770182Y-109897740D01*
X151714947Y-109985645D01*
X151662612Y-110031936D01*
X151593559Y-110042583D01*
X151529710Y-110014208D01*
X151522273Y-110007353D01*
X148483787Y-106968867D01*
X148483767Y-106968845D01*
X148336994Y-106822072D01*
X148336963Y-106822043D01*
X146102601Y-104587681D01*
X146069116Y-104526358D01*
X146074100Y-104456666D01*
X146102601Y-104412319D01*
X146516737Y-103998184D01*
X146977140Y-103537781D01*
X147086632Y-103373914D01*
X147162052Y-103191835D01*
X147200500Y-102998540D01*
X147200500Y-102801460D01*
X147200500Y-102801459D01*
X147200500Y-101024789D01*
X147220185Y-100957750D01*
X147272989Y-100911995D01*
X147342147Y-100902051D01*
X147405703Y-100931076D01*
X147412181Y-100937108D01*
X147533613Y-101058540D01*
X147598837Y-101099523D01*
X147669734Y-101144071D01*
X147686353Y-101154513D01*
X147856620Y-101214092D01*
X147856625Y-101214093D01*
X148035871Y-101234289D01*
X148035875Y-101234289D01*
X148035876Y-101234289D01*
X148046141Y-101233132D01*
X148137382Y-101222851D01*
X148206201Y-101234905D01*
X148256258Y-101280100D01*
X148270180Y-101302257D01*
X148270182Y-101302260D01*
X148270184Y-101302262D01*
X148397738Y-101429816D01*
X148550478Y-101525789D01*
X148720745Y-101585368D01*
X148761500Y-101589959D01*
X148825913Y-101617025D01*
X148864658Y-101672223D01*
X148874211Y-101699522D01*
X148970184Y-101852262D01*
X149097738Y-101979816D01*
X149250478Y-102075789D01*
X149387222Y-102123637D01*
X149443997Y-102164359D01*
X149469745Y-102229311D01*
X149463309Y-102281634D01*
X149414631Y-102420745D01*
X149414630Y-102420750D01*
X149394435Y-102599996D01*
X149394435Y-102600003D01*
X149414630Y-102779249D01*
X149414631Y-102779254D01*
X149474211Y-102949523D01*
X149556780Y-103080930D01*
X149570184Y-103102262D01*
X149697738Y-103229816D01*
X149755902Y-103266363D01*
X149824778Y-103309641D01*
X149850478Y-103325789D01*
X149995325Y-103376473D01*
X150020745Y-103385368D01*
X150020750Y-103385369D01*
X150199996Y-103405565D01*
X150200000Y-103405565D01*
X150200004Y-103405565D01*
X150379249Y-103385369D01*
X150379252Y-103385368D01*
X150379255Y-103385368D01*
X150549522Y-103325789D01*
X150613858Y-103285363D01*
X150681093Y-103266363D01*
X150747929Y-103286730D01*
X150793143Y-103339997D01*
X150803050Y-103376473D01*
X150814630Y-103479250D01*
X150814631Y-103479254D01*
X150874211Y-103649523D01*
X150920293Y-103722861D01*
X150970184Y-103802262D01*
X151097738Y-103929816D01*
X151250478Y-104025789D01*
X151392230Y-104075390D01*
X151420745Y-104085368D01*
X151420750Y-104085369D01*
X151599996Y-104105565D01*
X151600000Y-104105565D01*
X151600004Y-104105565D01*
X151779249Y-104085369D01*
X151779252Y-104085368D01*
X151779255Y-104085368D01*
X151949522Y-104025789D01*
X152031884Y-103974037D01*
X152099118Y-103955037D01*
X152165954Y-103975404D01*
X152211168Y-104028671D01*
X152220407Y-104097928D01*
X152214899Y-104119977D01*
X152214634Y-104120731D01*
X152214630Y-104120750D01*
X152194435Y-104299996D01*
X152194435Y-104300003D01*
X152214630Y-104479249D01*
X152214631Y-104479254D01*
X152274211Y-104649523D01*
X152363632Y-104791835D01*
X152370184Y-104802262D01*
X152497738Y-104929816D01*
X152567929Y-104973920D01*
X152656374Y-105029494D01*
X152655654Y-105030638D01*
X152701921Y-105072410D01*
X152714917Y-105120262D01*
X152747439Y-105093228D01*
X152813770Y-105085072D01*
X152813825Y-105084589D01*
X152815850Y-105084817D01*
X152816787Y-105084702D01*
X152819423Y-105085219D01*
X152999996Y-105105565D01*
X153000000Y-105105565D01*
X153000004Y-105105565D01*
X153179249Y-105085369D01*
X153179252Y-105085368D01*
X153179255Y-105085368D01*
X153349522Y-105025789D01*
X153502262Y-104929816D01*
X153629816Y-104802262D01*
X153725789Y-104649522D01*
X153785368Y-104479255D01*
X153785369Y-104479249D01*
X153786917Y-104472468D01*
X153788227Y-104472767D01*
X153812381Y-104415275D01*
X153867585Y-104376524D01*
X154012579Y-104325789D01*
X154159489Y-104233478D01*
X154226725Y-104214479D01*
X154293561Y-104234847D01*
X154313142Y-104250792D01*
X154431982Y-104369632D01*
X154465467Y-104430955D01*
X154460483Y-104500647D01*
X154418611Y-104556580D01*
X154410275Y-104562306D01*
X154397738Y-104570183D01*
X154270184Y-104697737D01*
X154174211Y-104850476D01*
X154114631Y-105020745D01*
X154114630Y-105020750D01*
X154094435Y-105199996D01*
X154094435Y-105200003D01*
X154113126Y-105365897D01*
X154101071Y-105434719D01*
X154053722Y-105486098D01*
X153986112Y-105503722D01*
X153976023Y-105503000D01*
X153900004Y-105494435D01*
X153899996Y-105494435D01*
X153720750Y-105514630D01*
X153720745Y-105514631D01*
X153550476Y-105574211D01*
X153397739Y-105670183D01*
X153324169Y-105743753D01*
X153262845Y-105777237D01*
X153193154Y-105772252D01*
X153137220Y-105730381D01*
X153119444Y-105697019D01*
X153119217Y-105696370D01*
X153118682Y-105694841D01*
X153022709Y-105542101D01*
X152895155Y-105414547D01*
X152742415Y-105318574D01*
X152742416Y-105318574D01*
X152736519Y-105314869D01*
X152737237Y-105313726D01*
X152690967Y-105271944D01*
X152677974Y-105224097D01*
X152645461Y-105251130D01*
X152579122Y-105259291D01*
X152579068Y-105259774D01*
X152577050Y-105259546D01*
X152576114Y-105259662D01*
X152573473Y-105259143D01*
X152392897Y-105238798D01*
X152392889Y-105238798D01*
X152213643Y-105258993D01*
X152213638Y-105258994D01*
X152043369Y-105318574D01*
X151890630Y-105414547D01*
X151763077Y-105542100D01*
X151667104Y-105694839D01*
X151607524Y-105865108D01*
X151607523Y-105865113D01*
X151587328Y-106044359D01*
X151587328Y-106044366D01*
X151607523Y-106223612D01*
X151607524Y-106223617D01*
X151667104Y-106393886D01*
X151752515Y-106529816D01*
X151763077Y-106546625D01*
X151890631Y-106674179D01*
X152043371Y-106770152D01*
X152191667Y-106822043D01*
X152213638Y-106829731D01*
X152213643Y-106829732D01*
X152393202Y-106849963D01*
X152457616Y-106877029D01*
X152497171Y-106934624D01*
X152499309Y-107004461D01*
X152488598Y-107029249D01*
X152489380Y-107029626D01*
X152486361Y-107035893D01*
X152430018Y-107196915D01*
X152389296Y-107253692D01*
X152353938Y-107273000D01*
X152350479Y-107274210D01*
X152350475Y-107274212D01*
X152197737Y-107370184D01*
X152070184Y-107497737D01*
X151974211Y-107650476D01*
X151914631Y-107820745D01*
X151914630Y-107820750D01*
X151894435Y-107999996D01*
X151894435Y-108000003D01*
X151914630Y-108179249D01*
X151914631Y-108179254D01*
X151974211Y-108349523D01*
X152040563Y-108455121D01*
X152070184Y-108502262D01*
X152197738Y-108629816D01*
X152268392Y-108674211D01*
X152345273Y-108722519D01*
X152350478Y-108725789D01*
X152503272Y-108779254D01*
X152520745Y-108785368D01*
X152520750Y-108785369D01*
X152699996Y-108805565D01*
X152700000Y-108805565D01*
X152700004Y-108805565D01*
X152879249Y-108785369D01*
X152879252Y-108785368D01*
X152879255Y-108785368D01*
X153049522Y-108725789D01*
X153202262Y-108629816D01*
X153329816Y-108502262D01*
X153425789Y-108349522D01*
X153482131Y-108188504D01*
X153522853Y-108131729D01*
X153558224Y-108112415D01*
X153561671Y-108111210D01*
X153714411Y-108015237D01*
X153841965Y-107887683D01*
X153937938Y-107734943D01*
X153997517Y-107564676D01*
X154005059Y-107497737D01*
X154017714Y-107385424D01*
X154017714Y-107385418D01*
X153998595Y-107215732D01*
X154010649Y-107146910D01*
X154057999Y-107095530D01*
X154080861Y-107084806D01*
X154106410Y-107075866D01*
X154249522Y-107025789D01*
X154402262Y-106929816D01*
X154529816Y-106802262D01*
X154625789Y-106649522D01*
X154685368Y-106479255D01*
X154687511Y-106460237D01*
X154705565Y-106300003D01*
X154705565Y-106299997D01*
X154686873Y-106134103D01*
X154698927Y-106065281D01*
X154746276Y-106013901D01*
X154813887Y-105996277D01*
X154823968Y-105996998D01*
X154869949Y-106002179D01*
X154899998Y-106005565D01*
X154900000Y-106005565D01*
X154900004Y-106005565D01*
X155079249Y-105985369D01*
X155079252Y-105985368D01*
X155079255Y-105985368D01*
X155249522Y-105925789D01*
X155402262Y-105829816D01*
X155529816Y-105702262D01*
X155620130Y-105558527D01*
X155672465Y-105512237D01*
X155725124Y-105500500D01*
X155898543Y-105500500D01*
X156032216Y-105473910D01*
X156091835Y-105462051D01*
X156273914Y-105386632D01*
X156437782Y-105277139D01*
X156577139Y-105137782D01*
X156686632Y-104973914D01*
X156762051Y-104791835D01*
X156780768Y-104697738D01*
X156800500Y-104598543D01*
X156800500Y-104224185D01*
X156777798Y-104110057D01*
X156784025Y-104040465D01*
X156826888Y-103985288D01*
X156892778Y-103962043D01*
X156899415Y-103961865D01*
X160644113Y-103961865D01*
X160711152Y-103981550D01*
X160731794Y-103998184D01*
X161112215Y-104378606D01*
X161112219Y-104378609D01*
X161276079Y-104488097D01*
X161276083Y-104488099D01*
X161276086Y-104488101D01*
X161458164Y-104563521D01*
X161651455Y-104601969D01*
X161651458Y-104601970D01*
X161651460Y-104601970D01*
X161848542Y-104601970D01*
X161848543Y-104601969D01*
X162041836Y-104563521D01*
X162223914Y-104488101D01*
X162387781Y-104378609D01*
X162527139Y-104239251D01*
X162636631Y-104075384D01*
X162712051Y-103893306D01*
X162750500Y-103700010D01*
X162750500Y-103502930D01*
X162750500Y-103502927D01*
X162750499Y-103502925D01*
X162745791Y-103479255D01*
X162712051Y-103309634D01*
X162636631Y-103127556D01*
X162636629Y-103127553D01*
X162636627Y-103127549D01*
X162527139Y-102963689D01*
X162527136Y-102963685D01*
X161891374Y-102327924D01*
X161891354Y-102327902D01*
X161747680Y-102184228D01*
X161747676Y-102184225D01*
X161583815Y-102074736D01*
X161583806Y-102074731D01*
X161500578Y-102040257D01*
X161455060Y-102021403D01*
X161428395Y-102010358D01*
X161401732Y-101999314D01*
X161401728Y-101999312D01*
X161255285Y-101970184D01*
X161255284Y-101970183D01*
X161231860Y-101965524D01*
X161208437Y-101960865D01*
X161208436Y-101960865D01*
X154904417Y-101960865D01*
X154837378Y-101941180D01*
X154816736Y-101924546D01*
X152091236Y-99199046D01*
X152057751Y-99137723D01*
X152062735Y-99068031D01*
X152091236Y-99023684D01*
X152689132Y-98425789D01*
X153290861Y-97824060D01*
X153335790Y-97756818D01*
X153400353Y-97660193D01*
X153407787Y-97642247D01*
X153464402Y-97505565D01*
X153473783Y-97482916D01*
X153475772Y-97478115D01*
X153475967Y-97477139D01*
X153508676Y-97312697D01*
X153508676Y-97312695D01*
X153511514Y-97298431D01*
X153514221Y-97284820D01*
X153514221Y-95675315D01*
X153514221Y-95675312D01*
X153475773Y-95482026D01*
X153475772Y-95482025D01*
X153475772Y-95482021D01*
X153455259Y-95432499D01*
X153447791Y-95363033D01*
X153479066Y-95300554D01*
X153528865Y-95268008D01*
X153611820Y-95238981D01*
X153649520Y-95225790D01*
X153649522Y-95225789D01*
X153802262Y-95129816D01*
X153929816Y-95002262D01*
X154025789Y-94849522D01*
X154085368Y-94679255D01*
X154085607Y-94677139D01*
X154093102Y-94610617D01*
X154120168Y-94546203D01*
X154177763Y-94506648D01*
X154216322Y-94500500D01*
X154487770Y-94500500D01*
X154554809Y-94520185D01*
X154575451Y-94536819D01*
X156724781Y-96686149D01*
X156758266Y-96747472D01*
X156753282Y-96817164D01*
X156711410Y-96873097D01*
X156645946Y-96897514D01*
X156623218Y-96897051D01*
X156622169Y-96896932D01*
X156600000Y-96894435D01*
X156599998Y-96894435D01*
X156599997Y-96894435D01*
X156599996Y-96894435D01*
X156420750Y-96914630D01*
X156420745Y-96914631D01*
X156250476Y-96974211D01*
X156097737Y-97070184D01*
X155970184Y-97197737D01*
X155874211Y-97350476D01*
X155814631Y-97520745D01*
X155814630Y-97520750D01*
X155794435Y-97699996D01*
X155794435Y-97700003D01*
X155814630Y-97879249D01*
X155814631Y-97879254D01*
X155874211Y-98049523D01*
X155970184Y-98202262D01*
X156097738Y-98329816D01*
X156250478Y-98425789D01*
X156388606Y-98474122D01*
X156420745Y-98485368D01*
X156420750Y-98485369D01*
X156599996Y-98505565D01*
X156600000Y-98505565D01*
X156600004Y-98505565D01*
X156779249Y-98485369D01*
X156779252Y-98485368D01*
X156779255Y-98485368D01*
X156949522Y-98425789D01*
X157102262Y-98329816D01*
X157229816Y-98202262D01*
X157325789Y-98049522D01*
X157385368Y-97879255D01*
X157385369Y-97879249D01*
X157405565Y-97700003D01*
X157405565Y-97699999D01*
X157402949Y-97676784D01*
X157415003Y-97607962D01*
X157462351Y-97556582D01*
X157529961Y-97538957D01*
X157596367Y-97560683D01*
X157613850Y-97575218D01*
X171130596Y-111091964D01*
X171164081Y-111153287D01*
X171159097Y-111222979D01*
X171130596Y-111267326D01*
X171070184Y-111327737D01*
X170974211Y-111480476D01*
X170914631Y-111650745D01*
X170914630Y-111650750D01*
X170894435Y-111829996D01*
X170894435Y-111830003D01*
X170914630Y-112009249D01*
X170914631Y-112009254D01*
X170974211Y-112179523D01*
X171040719Y-112285369D01*
X171070184Y-112332262D01*
X171197738Y-112459816D01*
X171259372Y-112498543D01*
X171342025Y-112550478D01*
X171350478Y-112555789D01*
X171520745Y-112615368D01*
X171520750Y-112615369D01*
X171699996Y-112635565D01*
X171700000Y-112635565D01*
X171700004Y-112635565D01*
X171879249Y-112615369D01*
X171879252Y-112615368D01*
X171879255Y-112615368D01*
X172049522Y-112555789D01*
X172202262Y-112459816D01*
X172262674Y-112399404D01*
X172323997Y-112365919D01*
X172393689Y-112370903D01*
X172438036Y-112399404D01*
X175863712Y-115825080D01*
X175891765Y-115843823D01*
X175933849Y-115871942D01*
X175986631Y-115907210D01*
X175986633Y-115907211D01*
X175986637Y-115907213D01*
X176123208Y-115963782D01*
X176123213Y-115963784D01*
X176123217Y-115963784D01*
X176123218Y-115963785D01*
X176268205Y-115992626D01*
X176268208Y-115992626D01*
X176268209Y-115992626D01*
X176416043Y-115992626D01*
X179634900Y-115992626D01*
X179675855Y-115999584D01*
X179755617Y-116027494D01*
X179755622Y-116027495D01*
X179934868Y-116047691D01*
X179934872Y-116047691D01*
X179934876Y-116047691D01*
X180114121Y-116027495D01*
X180114124Y-116027494D01*
X180114127Y-116027494D01*
X180284394Y-115967915D01*
X180437134Y-115871942D01*
X180564688Y-115744388D01*
X180623978Y-115650026D01*
X180676312Y-115603735D01*
X180715090Y-115592778D01*
X180780851Y-115585369D01*
X180780854Y-115585368D01*
X180780857Y-115585368D01*
X180951124Y-115525789D01*
X181103864Y-115429816D01*
X181231418Y-115302262D01*
X181327391Y-115149522D01*
X181327391Y-115149520D01*
X181331096Y-115143625D01*
X181332592Y-115144565D01*
X181373375Y-115099387D01*
X181399196Y-115088847D01*
X181398784Y-115087668D01*
X181405357Y-115085368D01*
X181575624Y-115025789D01*
X181728364Y-114929816D01*
X181855918Y-114802262D01*
X181951891Y-114649522D01*
X182011470Y-114479255D01*
X182014005Y-114456756D01*
X182031667Y-114300003D01*
X182031667Y-114299996D01*
X182011471Y-114120750D01*
X182011470Y-114120745D01*
X181973535Y-114012333D01*
X181951891Y-113950478D01*
X181855918Y-113797738D01*
X181728364Y-113670184D01*
X181657710Y-113625789D01*
X181575625Y-113574211D01*
X181405356Y-113514631D01*
X181405351Y-113514630D01*
X181226106Y-113494435D01*
X181226098Y-113494435D01*
X181046852Y-113514630D01*
X181046847Y-113514631D01*
X180876578Y-113574211D01*
X180723839Y-113670184D01*
X180596286Y-113797737D01*
X180496608Y-113956374D01*
X180495116Y-113955436D01*
X180454299Y-114000630D01*
X180428510Y-114011166D01*
X180428919Y-114012333D01*
X180422349Y-114014631D01*
X180422347Y-114014632D01*
X180359760Y-114036531D01*
X180252080Y-114074210D01*
X180099339Y-114170184D01*
X179971784Y-114297739D01*
X179971783Y-114297741D01*
X179912493Y-114392100D01*
X179860159Y-114438390D01*
X179821384Y-114449347D01*
X179755620Y-114456756D01*
X179675853Y-114484668D01*
X179634900Y-114491626D01*
X176704356Y-114491626D01*
X176637317Y-114471941D01*
X176616675Y-114455307D01*
X156366319Y-94204951D01*
X156332834Y-94143628D01*
X156330000Y-94117270D01*
X156330000Y-93326988D01*
X156339940Y-93344205D01*
X156395795Y-93400060D01*
X156464204Y-93439556D01*
X156540504Y-93460000D01*
X156619496Y-93460000D01*
X156695796Y-93439556D01*
X156764205Y-93400060D01*
X156820060Y-93344205D01*
X156830000Y-93326988D01*
X156830000Y-94129862D01*
X156871690Y-94121569D01*
X156871692Y-94121569D01*
X157053671Y-94046192D01*
X157053684Y-94046185D01*
X157217462Y-93936751D01*
X157217466Y-93936748D01*
X157356748Y-93797466D01*
X157356751Y-93797462D01*
X157466185Y-93633684D01*
X157466192Y-93633671D01*
X157541569Y-93451693D01*
X157541572Y-93451681D01*
X157579999Y-93258495D01*
X157580000Y-93258492D01*
X157580000Y-92711044D01*
X157599685Y-92644005D01*
X157652489Y-92598250D01*
X157721647Y-92588306D01*
X157766000Y-92603657D01*
X157780985Y-92612309D01*
X157787861Y-92616279D01*
X157787865Y-92616281D01*
X157934234Y-92655500D01*
X157934236Y-92655500D01*
X158085764Y-92655500D01*
X158085766Y-92655500D01*
X158232135Y-92616281D01*
X158354927Y-92545386D01*
X158422825Y-92528913D01*
X158488852Y-92551765D01*
X158520028Y-92583882D01*
X158622860Y-92737781D01*
X158622863Y-92737785D01*
X158762214Y-92877136D01*
X158762218Y-92877139D01*
X158926079Y-92986628D01*
X158926092Y-92986635D01*
X159108160Y-93062049D01*
X159108165Y-93062051D01*
X159108169Y-93062051D01*
X159108170Y-93062052D01*
X159301456Y-93100500D01*
X159301459Y-93100500D01*
X161648432Y-93100500D01*
X161715471Y-93120185D01*
X161736113Y-93136819D01*
X164163181Y-95563887D01*
X164196666Y-95625210D01*
X164199500Y-95651568D01*
X164199500Y-95806921D01*
X164179815Y-95873960D01*
X164127011Y-95919715D01*
X164057853Y-95929659D01*
X164009528Y-95911915D01*
X163949523Y-95874211D01*
X163779254Y-95814631D01*
X163779249Y-95814630D01*
X163600004Y-95794435D01*
X163599996Y-95794435D01*
X163420750Y-95814630D01*
X163420745Y-95814631D01*
X163250476Y-95874211D01*
X163097737Y-95970184D01*
X162970184Y-96097737D01*
X162874211Y-96250476D01*
X162814631Y-96420745D01*
X162814630Y-96420750D01*
X162794435Y-96599996D01*
X162794435Y-96600003D01*
X162814630Y-96779249D01*
X162814631Y-96779254D01*
X162874211Y-96949523D01*
X162927952Y-97035050D01*
X162970184Y-97102262D01*
X163097738Y-97229816D01*
X163250478Y-97325789D01*
X163325360Y-97351991D01*
X163382136Y-97392712D01*
X163407884Y-97457665D01*
X163407626Y-97482916D01*
X163394435Y-97599995D01*
X163394435Y-97600003D01*
X163414630Y-97779249D01*
X163414631Y-97779254D01*
X163474211Y-97949523D01*
X163537045Y-98049522D01*
X163570184Y-98102262D01*
X163697738Y-98229816D01*
X163810150Y-98300449D01*
X163850478Y-98325789D01*
X163972387Y-98368447D01*
X164029164Y-98409169D01*
X164054911Y-98474122D01*
X164041455Y-98542683D01*
X164036427Y-98551461D01*
X163974211Y-98650476D01*
X163914631Y-98820745D01*
X163914630Y-98820750D01*
X163894435Y-98999996D01*
X163894435Y-99000003D01*
X163914630Y-99179249D01*
X163914631Y-99179254D01*
X163974211Y-99349523D01*
X163983705Y-99364632D01*
X164070184Y-99502262D01*
X164197738Y-99629816D01*
X164350478Y-99725789D01*
X164380823Y-99736407D01*
X164520745Y-99785368D01*
X164520750Y-99785369D01*
X164699996Y-99805565D01*
X164700000Y-99805565D01*
X164700004Y-99805565D01*
X164879249Y-99785369D01*
X164879252Y-99785368D01*
X164879255Y-99785368D01*
X165049522Y-99725789D01*
X165202262Y-99629816D01*
X165329816Y-99502262D01*
X165329816Y-99502261D01*
X165334740Y-99497338D01*
X165335845Y-99498443D01*
X165386253Y-99463060D01*
X165456064Y-99460208D01*
X165513696Y-99492831D01*
X166191049Y-100170184D01*
X166860036Y-100839170D01*
X166893521Y-100900493D01*
X166888537Y-100970185D01*
X166846665Y-101026118D01*
X166838328Y-101031844D01*
X166697739Y-101120182D01*
X166570184Y-101247737D01*
X166474211Y-101400476D01*
X166414631Y-101570745D01*
X166414630Y-101570750D01*
X166394435Y-101749996D01*
X166394435Y-101750003D01*
X166414630Y-101929249D01*
X166414631Y-101929254D01*
X166474211Y-102099523D01*
X166555763Y-102229311D01*
X166570184Y-102252262D01*
X166697738Y-102379816D01*
X166850478Y-102475789D01*
X167020745Y-102535368D01*
X167020750Y-102535369D01*
X167199996Y-102555565D01*
X167200000Y-102555565D01*
X167200001Y-102555565D01*
X167212416Y-102554166D01*
X167326201Y-102541345D01*
X167395020Y-102553399D01*
X167427764Y-102576884D01*
X167536844Y-102685964D01*
X167600225Y-102725789D01*
X167685315Y-102779255D01*
X167689584Y-102781937D01*
X167734738Y-102797737D01*
X167859851Y-102841516D01*
X167859856Y-102841517D01*
X168039102Y-102861713D01*
X168039106Y-102861713D01*
X168039110Y-102861713D01*
X168218355Y-102841517D01*
X168218358Y-102841516D01*
X168218361Y-102841516D01*
X168388628Y-102781937D01*
X168541368Y-102685964D01*
X168541374Y-102685957D01*
X168546776Y-102681650D01*
X168611460Y-102655237D01*
X168680157Y-102667989D01*
X168711776Y-102690911D01*
X170083646Y-104062781D01*
X170083647Y-104062782D01*
X170156233Y-104135368D01*
X170223005Y-104202140D01*
X170386865Y-104311628D01*
X170386872Y-104311632D01*
X170463041Y-104343182D01*
X170568950Y-104387051D01*
X170699691Y-104413057D01*
X170761602Y-104445441D01*
X170796176Y-104506157D01*
X170799500Y-104534674D01*
X170799500Y-106598542D01*
X170809641Y-106649521D01*
X170809641Y-106649523D01*
X170837947Y-106791828D01*
X170837950Y-106791840D01*
X170851756Y-106825170D01*
X170913364Y-106973907D01*
X170913371Y-106973920D01*
X171022859Y-107137780D01*
X171022860Y-107137781D01*
X171022861Y-107137782D01*
X171162218Y-107277139D01*
X171162219Y-107277139D01*
X171169286Y-107284206D01*
X171169285Y-107284206D01*
X171169288Y-107284208D01*
X172485360Y-108600281D01*
X172485361Y-108600282D01*
X172559290Y-108674211D01*
X172624719Y-108739640D01*
X172788579Y-108849128D01*
X172788586Y-108849132D01*
X172880742Y-108887304D01*
X172970664Y-108924551D01*
X173142553Y-108958742D01*
X173163954Y-108962999D01*
X173163957Y-108963000D01*
X173163959Y-108963000D01*
X173361040Y-108963000D01*
X182110932Y-108963000D01*
X182177971Y-108982685D01*
X182198613Y-108999319D01*
X182669322Y-109470030D01*
X182669326Y-109470033D01*
X182833186Y-109579521D01*
X182833192Y-109579524D01*
X182833193Y-109579525D01*
X183015272Y-109654945D01*
X183208562Y-109693392D01*
X183208566Y-109693393D01*
X183208567Y-109693393D01*
X183405649Y-109693393D01*
X183405650Y-109693392D01*
X183598943Y-109654945D01*
X183648672Y-109634345D01*
X183718141Y-109626877D01*
X183780620Y-109658152D01*
X183783806Y-109661226D01*
X191362212Y-117239634D01*
X191362219Y-117239640D01*
X191526084Y-117349130D01*
X191526085Y-117349130D01*
X191526086Y-117349131D01*
X191708164Y-117424551D01*
X191901455Y-117462999D01*
X191901458Y-117463000D01*
X191901460Y-117463000D01*
X192098542Y-117463000D01*
X192098543Y-117462999D01*
X192242315Y-117434401D01*
X197454613Y-117434401D01*
X197454613Y-117434408D01*
X197474808Y-117613654D01*
X197474809Y-117613659D01*
X197534389Y-117783928D01*
X197569814Y-117840306D01*
X197630362Y-117936667D01*
X197757916Y-118064221D01*
X197910656Y-118160194D01*
X198026804Y-118200836D01*
X198080923Y-118219773D01*
X198080928Y-118219774D01*
X198260174Y-118239970D01*
X198260178Y-118239970D01*
X198260182Y-118239970D01*
X198439427Y-118219774D01*
X198439430Y-118219773D01*
X198439433Y-118219773D01*
X198609700Y-118160194D01*
X198762440Y-118064221D01*
X198889994Y-117936667D01*
X198985967Y-117783927D01*
X199045546Y-117613660D01*
X199049661Y-117577139D01*
X199065743Y-117434408D01*
X199065743Y-117434401D01*
X199045547Y-117255155D01*
X199045546Y-117255150D01*
X198991355Y-117100281D01*
X198985967Y-117084883D01*
X198889994Y-116932143D01*
X198762440Y-116804589D01*
X198609701Y-116708616D01*
X198439432Y-116649036D01*
X198439427Y-116649035D01*
X198260182Y-116628840D01*
X198260174Y-116628840D01*
X198080928Y-116649035D01*
X198080923Y-116649036D01*
X197910654Y-116708616D01*
X197757915Y-116804589D01*
X197630362Y-116932142D01*
X197534389Y-117084881D01*
X197474809Y-117255150D01*
X197474808Y-117255155D01*
X197454613Y-117434401D01*
X192242315Y-117434401D01*
X192291835Y-117424551D01*
X192473914Y-117349131D01*
X192637781Y-117239639D01*
X192777139Y-117100281D01*
X192886631Y-116936414D01*
X192962051Y-116754335D01*
X193000500Y-116561040D01*
X193000500Y-116363960D01*
X193000500Y-116363957D01*
X193000499Y-116363955D01*
X192983650Y-116279249D01*
X192962051Y-116170664D01*
X192886631Y-115988586D01*
X192872819Y-115967915D01*
X192777140Y-115824719D01*
X192777134Y-115824712D01*
X184284209Y-107331789D01*
X184284206Y-107331785D01*
X184284206Y-107331786D01*
X184277139Y-107324719D01*
X184277139Y-107324718D01*
X184137782Y-107185361D01*
X184137781Y-107185360D01*
X184137780Y-107185359D01*
X183973920Y-107075871D01*
X183973911Y-107075866D01*
X183877421Y-107035899D01*
X183845165Y-107022538D01*
X183818500Y-107011493D01*
X183791837Y-107000449D01*
X183791833Y-107000448D01*
X183658436Y-106973914D01*
X183611240Y-106964526D01*
X183598542Y-106962000D01*
X183598541Y-106962000D01*
X182675255Y-106962000D01*
X182416322Y-106962000D01*
X182349283Y-106942315D01*
X182303528Y-106889511D01*
X182293102Y-106851883D01*
X182285369Y-106783250D01*
X182285368Y-106783248D01*
X182285368Y-106783245D01*
X182225789Y-106612978D01*
X182129816Y-106460238D01*
X182002262Y-106332684D01*
X181950241Y-106299997D01*
X181849523Y-106236711D01*
X181679254Y-106177131D01*
X181679249Y-106177130D01*
X181500004Y-106156935D01*
X181499996Y-106156935D01*
X181320750Y-106177130D01*
X181320745Y-106177131D01*
X181150476Y-106236711D01*
X180997737Y-106332684D01*
X180870184Y-106460237D01*
X180774210Y-106612978D01*
X180714630Y-106783250D01*
X180706898Y-106851883D01*
X180679832Y-106916297D01*
X180622237Y-106955852D01*
X180583678Y-106962000D01*
X173728283Y-106962000D01*
X173661244Y-106942315D01*
X173640602Y-106925681D01*
X172836819Y-106121898D01*
X172803334Y-106060575D01*
X172800500Y-106034217D01*
X172800500Y-105899996D01*
X189894435Y-105899996D01*
X189894435Y-105900003D01*
X189914630Y-106079249D01*
X189914631Y-106079254D01*
X189974211Y-106249523D01*
X190026465Y-106332684D01*
X190070184Y-106402262D01*
X190197738Y-106529816D01*
X190225118Y-106547020D01*
X190334233Y-106615582D01*
X190350478Y-106625789D01*
X190418306Y-106649523D01*
X190520745Y-106685368D01*
X190520750Y-106685369D01*
X190699996Y-106705565D01*
X190700000Y-106705565D01*
X190700004Y-106705565D01*
X190879249Y-106685369D01*
X190879252Y-106685368D01*
X190879255Y-106685368D01*
X191049522Y-106625789D01*
X191202262Y-106529816D01*
X191329816Y-106402262D01*
X191425789Y-106249522D01*
X191485368Y-106079255D01*
X191485369Y-106079249D01*
X191505565Y-105900003D01*
X191505565Y-105899996D01*
X191485369Y-105720750D01*
X191485368Y-105720745D01*
X191481797Y-105710539D01*
X191425789Y-105550478D01*
X191425188Y-105549522D01*
X191370227Y-105462052D01*
X191329816Y-105397738D01*
X191202262Y-105270184D01*
X191152312Y-105238798D01*
X191049523Y-105174211D01*
X190879254Y-105114631D01*
X190879249Y-105114630D01*
X190700004Y-105094435D01*
X190699996Y-105094435D01*
X190520750Y-105114630D01*
X190520745Y-105114631D01*
X190350476Y-105174211D01*
X190197737Y-105270184D01*
X190070184Y-105397737D01*
X189974211Y-105550476D01*
X189914631Y-105720745D01*
X189914630Y-105720750D01*
X189894435Y-105899996D01*
X172800500Y-105899996D01*
X172800500Y-103990782D01*
X172820185Y-103923743D01*
X172836819Y-103903101D01*
X173389924Y-103349996D01*
X178344435Y-103349996D01*
X178344435Y-103350003D01*
X178364630Y-103529249D01*
X178364631Y-103529254D01*
X178424211Y-103699523D01*
X178477625Y-103784530D01*
X178520184Y-103852262D01*
X178647738Y-103979816D01*
X178800478Y-104075789D01*
X178926760Y-104119977D01*
X178970745Y-104135368D01*
X178970750Y-104135369D01*
X179149996Y-104155565D01*
X179150000Y-104155565D01*
X179150004Y-104155565D01*
X179329249Y-104135369D01*
X179329252Y-104135368D01*
X179329255Y-104135368D01*
X179499522Y-104075789D01*
X179652262Y-103979816D01*
X179779816Y-103852262D01*
X179875789Y-103699522D01*
X179935368Y-103529255D01*
X179938334Y-103502930D01*
X179955565Y-103350003D01*
X179955565Y-103349996D01*
X179935369Y-103170750D01*
X179935368Y-103170745D01*
X179923249Y-103136112D01*
X179875789Y-103000478D01*
X179874571Y-102998540D01*
X179779815Y-102847737D01*
X179652262Y-102720184D01*
X179499523Y-102624211D01*
X179329254Y-102564631D01*
X179329249Y-102564630D01*
X179150004Y-102544435D01*
X179149996Y-102544435D01*
X178970750Y-102564630D01*
X178970745Y-102564631D01*
X178800476Y-102624211D01*
X178647737Y-102720184D01*
X178520184Y-102847737D01*
X178424211Y-103000476D01*
X178364631Y-103170745D01*
X178364630Y-103170750D01*
X178344435Y-103349996D01*
X173389924Y-103349996D01*
X175989925Y-100749996D01*
X182194435Y-100749996D01*
X182194435Y-100750003D01*
X182214630Y-100929249D01*
X182214631Y-100929254D01*
X182274211Y-101099523D01*
X182370184Y-101252262D01*
X182405241Y-101287319D01*
X182438726Y-101348642D01*
X182433742Y-101418334D01*
X182405241Y-101462681D01*
X182370184Y-101497737D01*
X182274211Y-101650476D01*
X182214631Y-101820745D01*
X182214630Y-101820750D01*
X182194435Y-101999996D01*
X182194435Y-102000003D01*
X182214630Y-102179249D01*
X182214631Y-102179254D01*
X182274211Y-102349523D01*
X182319542Y-102421666D01*
X182370184Y-102502262D01*
X182497738Y-102629816D01*
X182546961Y-102660745D01*
X182641557Y-102720184D01*
X182650478Y-102725789D01*
X182803258Y-102779249D01*
X182820745Y-102785368D01*
X182820750Y-102785369D01*
X182999996Y-102805565D01*
X183000000Y-102805565D01*
X183000004Y-102805565D01*
X183179249Y-102785369D01*
X183179252Y-102785368D01*
X183179255Y-102785368D01*
X183349522Y-102725789D01*
X183502262Y-102629816D01*
X183629816Y-102502262D01*
X183725789Y-102349522D01*
X183785368Y-102179255D01*
X183785369Y-102179249D01*
X183805565Y-102000003D01*
X183805565Y-101999996D01*
X183785369Y-101820750D01*
X183785368Y-101820745D01*
X183725788Y-101650476D01*
X183684877Y-101585367D01*
X183629816Y-101497738D01*
X183594759Y-101462681D01*
X183561274Y-101401358D01*
X183566258Y-101331666D01*
X183594759Y-101287319D01*
X183610847Y-101271231D01*
X183629816Y-101252262D01*
X183725789Y-101099522D01*
X183785368Y-100929255D01*
X183788609Y-100900493D01*
X183805565Y-100750003D01*
X183805565Y-100749996D01*
X183785369Y-100570750D01*
X183785368Y-100570745D01*
X183743285Y-100450478D01*
X183725789Y-100400478D01*
X183716087Y-100385038D01*
X183661232Y-100297737D01*
X183629816Y-100247738D01*
X183502262Y-100120184D01*
X183437040Y-100079202D01*
X183349523Y-100024211D01*
X183179254Y-99964631D01*
X183179249Y-99964630D01*
X183000004Y-99944435D01*
X182999996Y-99944435D01*
X182820750Y-99964630D01*
X182820745Y-99964631D01*
X182650476Y-100024211D01*
X182497737Y-100120184D01*
X182370184Y-100247737D01*
X182274211Y-100400476D01*
X182214631Y-100570745D01*
X182214630Y-100570750D01*
X182194435Y-100749996D01*
X175989925Y-100749996D01*
X177803102Y-98936819D01*
X177864425Y-98903334D01*
X177890783Y-98900500D01*
X183434218Y-98900500D01*
X183501257Y-98920185D01*
X183521899Y-98936819D01*
X184482235Y-99897155D01*
X184482264Y-99897186D01*
X184624714Y-100039636D01*
X184624718Y-100039639D01*
X184788579Y-100149128D01*
X184788592Y-100149135D01*
X184917333Y-100202461D01*
X184960244Y-100220235D01*
X184970664Y-100224551D01*
X185067312Y-100243775D01*
X185087230Y-100247737D01*
X185163958Y-100263000D01*
X185163959Y-100263000D01*
X191498543Y-100263000D01*
X191628582Y-100237132D01*
X191691835Y-100224551D01*
X191871811Y-100150003D01*
X191873907Y-100149135D01*
X191873907Y-100149134D01*
X191873914Y-100149132D01*
X192037782Y-100039639D01*
X192177139Y-99900282D01*
X192286632Y-99736414D01*
X192362051Y-99554335D01*
X192400500Y-99361041D01*
X192400500Y-99163959D01*
X192400500Y-99163956D01*
X192362052Y-98970670D01*
X192362051Y-98970669D01*
X192362051Y-98970665D01*
X192299953Y-98820745D01*
X192286635Y-98788592D01*
X192286628Y-98788579D01*
X192177139Y-98624718D01*
X192177136Y-98624714D01*
X192037785Y-98485363D01*
X192037781Y-98485360D01*
X191873920Y-98375871D01*
X191873907Y-98375864D01*
X191691839Y-98300450D01*
X191691829Y-98300447D01*
X191498543Y-98262000D01*
X191498541Y-98262000D01*
X185728282Y-98262000D01*
X185661243Y-98242315D01*
X185640601Y-98225681D01*
X184681479Y-97266559D01*
X184681459Y-97266537D01*
X184537785Y-97122863D01*
X184537781Y-97122860D01*
X184373920Y-97013371D01*
X184373907Y-97013364D01*
X184219724Y-96949500D01*
X184219724Y-96949501D01*
X184219722Y-96949500D01*
X184191836Y-96937949D01*
X184191831Y-96937948D01*
X184191828Y-96937947D01*
X184064881Y-96912696D01*
X184020654Y-96903898D01*
X183998542Y-96899500D01*
X183998541Y-96899500D01*
X177326459Y-96899500D01*
X177326458Y-96899500D01*
X177304345Y-96903898D01*
X177260119Y-96912696D01*
X177133171Y-96937947D01*
X177133168Y-96937948D01*
X177133167Y-96937948D01*
X177133164Y-96937949D01*
X177105278Y-96949500D01*
X177105276Y-96949501D01*
X177105275Y-96949500D01*
X176951088Y-97013366D01*
X176951079Y-97013371D01*
X176787218Y-97122860D01*
X176787214Y-97122863D01*
X171521899Y-102388181D01*
X171460576Y-102421666D01*
X171434218Y-102424500D01*
X171326569Y-102424500D01*
X171259530Y-102404815D01*
X171238888Y-102388181D01*
X169650792Y-100800085D01*
X169617307Y-100738762D01*
X169622291Y-100669070D01*
X169633479Y-100646432D01*
X169725789Y-100499522D01*
X169785368Y-100329255D01*
X169788919Y-100297738D01*
X169805565Y-100150003D01*
X169805565Y-100149996D01*
X169785369Y-99970750D01*
X169785368Y-99970745D01*
X169769873Y-99926462D01*
X169725789Y-99800478D01*
X169716295Y-99785369D01*
X169678858Y-99725788D01*
X169629816Y-99647738D01*
X169502262Y-99520184D01*
X169494255Y-99515153D01*
X169349523Y-99424211D01*
X169179254Y-99364631D01*
X169179249Y-99364630D01*
X169000004Y-99344435D01*
X168999996Y-99344435D01*
X168820750Y-99364630D01*
X168820745Y-99364631D01*
X168650476Y-99424211D01*
X168503568Y-99516521D01*
X168436332Y-99535521D01*
X168369496Y-99515153D01*
X168349915Y-99499208D01*
X166236819Y-97386112D01*
X166203334Y-97324789D01*
X166200500Y-97298431D01*
X166200500Y-95087242D01*
X166174012Y-94954083D01*
X166162051Y-94893951D01*
X166160216Y-94889522D01*
X166089690Y-94719255D01*
X166086632Y-94711872D01*
X165996111Y-94576398D01*
X165977140Y-94548005D01*
X165929635Y-94500500D01*
X165837782Y-94408647D01*
X165837781Y-94408646D01*
X165669607Y-94240472D01*
X165636122Y-94179149D01*
X165641106Y-94109457D01*
X165682978Y-94053524D01*
X165688786Y-94049833D01*
X165688613Y-94049574D01*
X165857462Y-93936751D01*
X165857466Y-93936748D01*
X165996748Y-93797466D01*
X165996751Y-93797462D01*
X166106185Y-93633684D01*
X166106192Y-93633671D01*
X166181569Y-93451693D01*
X166181572Y-93451681D01*
X166219999Y-93258495D01*
X166220000Y-93258492D01*
X166220000Y-92860000D01*
X165520000Y-92860000D01*
X165520000Y-92360000D01*
X166220000Y-92360000D01*
X166220000Y-91961508D01*
X166219999Y-91961504D01*
X166181572Y-91768318D01*
X166181569Y-91768306D01*
X166106192Y-91586328D01*
X166106185Y-91586315D01*
X165996751Y-91422537D01*
X165996748Y-91422533D01*
X165975670Y-91401455D01*
X179789500Y-91401455D01*
X179789500Y-91598544D01*
X179827947Y-91791828D01*
X179827949Y-91791836D01*
X179903367Y-91973910D01*
X179903372Y-91973920D01*
X180012860Y-92137780D01*
X180012863Y-92137784D01*
X181902219Y-94027140D01*
X181902218Y-94027140D01*
X181915887Y-94036272D01*
X181943043Y-94054417D01*
X181943045Y-94054419D01*
X181943046Y-94054419D01*
X182066086Y-94136632D01*
X182183548Y-94185286D01*
X182248164Y-94212051D01*
X182329808Y-94228291D01*
X182357720Y-94233843D01*
X182441456Y-94250500D01*
X182441459Y-94250500D01*
X182441460Y-94250500D01*
X182638540Y-94250500D01*
X187124395Y-94250500D01*
X187191434Y-94270185D01*
X187237189Y-94322989D01*
X187238939Y-94327009D01*
X187252913Y-94360745D01*
X187258367Y-94373912D01*
X187258371Y-94373919D01*
X187367860Y-94537782D01*
X187507214Y-94677136D01*
X187507218Y-94677139D01*
X187671079Y-94786628D01*
X187671092Y-94786635D01*
X187822917Y-94849522D01*
X187853165Y-94862051D01*
X187853169Y-94862051D01*
X187853170Y-94862052D01*
X188046456Y-94900500D01*
X188046459Y-94900500D01*
X188243543Y-94900500D01*
X188373582Y-94874632D01*
X188436835Y-94862051D01*
X188618914Y-94786632D01*
X188782782Y-94677139D01*
X188922139Y-94537782D01*
X189031632Y-94373914D01*
X189107051Y-94191835D01*
X189134563Y-94053524D01*
X189145500Y-93998543D01*
X189145500Y-93101458D01*
X189145499Y-93101457D01*
X189124419Y-92995477D01*
X189124419Y-92995474D01*
X189109174Y-92918834D01*
X189107052Y-92908164D01*
X189031632Y-92726085D01*
X189031631Y-92726084D01*
X189031628Y-92726078D01*
X188922140Y-92562218D01*
X188922137Y-92562214D01*
X188782785Y-92422862D01*
X188782781Y-92422859D01*
X188618921Y-92313371D01*
X188618912Y-92313366D01*
X188436836Y-92237948D01*
X188436828Y-92237946D01*
X188243545Y-92199500D01*
X188243541Y-92199500D01*
X188046459Y-92199500D01*
X188046458Y-92199500D01*
X188031214Y-92202532D01*
X188015969Y-92205565D01*
X188015968Y-92205565D01*
X187853172Y-92237946D01*
X187853158Y-92237950D01*
X187848063Y-92240061D01*
X187800611Y-92249500D01*
X184116322Y-92249500D01*
X184049283Y-92229815D01*
X184003528Y-92177011D01*
X183993102Y-92139383D01*
X183985369Y-92070750D01*
X183985368Y-92070748D01*
X183985368Y-92070745D01*
X183925789Y-91900478D01*
X183829816Y-91747738D01*
X183794759Y-91712681D01*
X183761274Y-91651358D01*
X183766258Y-91581666D01*
X183794759Y-91537319D01*
X183829816Y-91502262D01*
X183894074Y-91399996D01*
X188794435Y-91399996D01*
X188794435Y-91400003D01*
X188814630Y-91579249D01*
X188814631Y-91579254D01*
X188874211Y-91749523D01*
X188942287Y-91857865D01*
X188970184Y-91902262D01*
X189097738Y-92029816D01*
X189156100Y-92066487D01*
X189205833Y-92097737D01*
X189250478Y-92125789D01*
X189396862Y-92177011D01*
X189420745Y-92185368D01*
X189420750Y-92185369D01*
X189599996Y-92205565D01*
X189600000Y-92205565D01*
X189600004Y-92205565D01*
X189779249Y-92185369D01*
X189779252Y-92185368D01*
X189779255Y-92185368D01*
X189949522Y-92125789D01*
X190102262Y-92029816D01*
X190132082Y-91999996D01*
X192194435Y-91999996D01*
X192194435Y-92000003D01*
X192214630Y-92179249D01*
X192214631Y-92179254D01*
X192274211Y-92349523D01*
X192370184Y-92502262D01*
X192497740Y-92629818D01*
X192520329Y-92644011D01*
X192566621Y-92696345D01*
X192577270Y-92765399D01*
X192559352Y-92814977D01*
X192474211Y-92950476D01*
X192414631Y-93120745D01*
X192414630Y-93120750D01*
X192394435Y-93299996D01*
X192394435Y-93300003D01*
X192414630Y-93479249D01*
X192414631Y-93479254D01*
X192474211Y-93649523D01*
X192527565Y-93734435D01*
X192570184Y-93802262D01*
X192697738Y-93929816D01*
X192850478Y-94025789D01*
X192932298Y-94054419D01*
X193020745Y-94085368D01*
X193020750Y-94085369D01*
X193199996Y-94105565D01*
X193200000Y-94105565D01*
X193200004Y-94105565D01*
X193379249Y-94085369D01*
X193379252Y-94085368D01*
X193379255Y-94085368D01*
X193549522Y-94025789D01*
X193702262Y-93929816D01*
X193829816Y-93802262D01*
X193925789Y-93649522D01*
X193985368Y-93479255D01*
X193985369Y-93479249D01*
X194005565Y-93300003D01*
X194005565Y-93299996D01*
X193985369Y-93120750D01*
X193985368Y-93120745D01*
X193984852Y-93119269D01*
X193925789Y-92950478D01*
X193925188Y-92949522D01*
X193829815Y-92797737D01*
X193702259Y-92670181D01*
X193679671Y-92655989D01*
X193633379Y-92603655D01*
X193622730Y-92534601D01*
X193640648Y-92485023D01*
X193679706Y-92422862D01*
X193725789Y-92349522D01*
X193785368Y-92179255D01*
X193788015Y-92155766D01*
X193805565Y-92000003D01*
X193805565Y-91999996D01*
X193785369Y-91820750D01*
X193785368Y-91820745D01*
X193775252Y-91791836D01*
X193725789Y-91650478D01*
X193723896Y-91647466D01*
X193685473Y-91586315D01*
X193629816Y-91497738D01*
X193502262Y-91370184D01*
X193435262Y-91328085D01*
X193349523Y-91274211D01*
X193179254Y-91214631D01*
X193179249Y-91214630D01*
X193000004Y-91194435D01*
X192999996Y-91194435D01*
X192820750Y-91214630D01*
X192820745Y-91214631D01*
X192650476Y-91274211D01*
X192497737Y-91370184D01*
X192370184Y-91497737D01*
X192274211Y-91650476D01*
X192214631Y-91820745D01*
X192214630Y-91820750D01*
X192194435Y-91999996D01*
X190132082Y-91999996D01*
X190229816Y-91902262D01*
X190325789Y-91749522D01*
X190385368Y-91579255D01*
X190397758Y-91469289D01*
X190405565Y-91400003D01*
X190405565Y-91399996D01*
X190385369Y-91220750D01*
X190385368Y-91220745D01*
X190368514Y-91172578D01*
X190325789Y-91050478D01*
X190310462Y-91026086D01*
X190266910Y-90956773D01*
X190229816Y-90897738D01*
X190102262Y-90770184D01*
X189949523Y-90674211D01*
X189779254Y-90614631D01*
X189779249Y-90614630D01*
X189600004Y-90594435D01*
X189599996Y-90594435D01*
X189420750Y-90614630D01*
X189420745Y-90614631D01*
X189250476Y-90674211D01*
X189097737Y-90770184D01*
X188970184Y-90897737D01*
X188874211Y-91050476D01*
X188814631Y-91220745D01*
X188814630Y-91220750D01*
X188794435Y-91399996D01*
X183894074Y-91399996D01*
X183925789Y-91349522D01*
X183985368Y-91179255D01*
X183985982Y-91173807D01*
X184005565Y-91000003D01*
X184005565Y-90999996D01*
X183985369Y-90820750D01*
X183985368Y-90820745D01*
X183925788Y-90650475D01*
X183872691Y-90565973D01*
X183853690Y-90498736D01*
X183872691Y-90434027D01*
X183925788Y-90349524D01*
X183925789Y-90349522D01*
X183985368Y-90179255D01*
X183985369Y-90179249D01*
X184005565Y-90000003D01*
X184005565Y-89999996D01*
X183985369Y-89820750D01*
X183985368Y-89820745D01*
X183960791Y-89750509D01*
X183925789Y-89650478D01*
X183829816Y-89497738D01*
X183702262Y-89370184D01*
X183697930Y-89367462D01*
X183549523Y-89274211D01*
X183379254Y-89214631D01*
X183379249Y-89214630D01*
X183200004Y-89194435D01*
X183199996Y-89194435D01*
X183020750Y-89214630D01*
X183020745Y-89214631D01*
X182850476Y-89274211D01*
X182697737Y-89370184D01*
X182570184Y-89497737D01*
X182474211Y-89650476D01*
X182414631Y-89820745D01*
X182414630Y-89820750D01*
X182394435Y-89999996D01*
X182394435Y-90000003D01*
X182414630Y-90179249D01*
X182414633Y-90179262D01*
X182474209Y-90349520D01*
X182527309Y-90434029D01*
X182546309Y-90501266D01*
X182527309Y-90565971D01*
X182474209Y-90650479D01*
X182414633Y-90820737D01*
X182414630Y-90820750D01*
X182394435Y-90999996D01*
X182394435Y-91000003D01*
X182414630Y-91179249D01*
X182414631Y-91179254D01*
X182474211Y-91349523D01*
X182570184Y-91502262D01*
X182605241Y-91537319D01*
X182638726Y-91598642D01*
X182633742Y-91668334D01*
X182605234Y-91712688D01*
X182599095Y-91718826D01*
X182537769Y-91752306D01*
X182468078Y-91747316D01*
X182423740Y-91718819D01*
X181626819Y-90921898D01*
X181593334Y-90860575D01*
X181590500Y-90834217D01*
X181590500Y-90551914D01*
X181591280Y-90538029D01*
X181595565Y-90500001D01*
X181595565Y-90499998D01*
X181591280Y-90461969D01*
X181590500Y-90448085D01*
X181590500Y-90421157D01*
X181582711Y-90382003D01*
X181581110Y-90371714D01*
X181575368Y-90320745D01*
X181567023Y-90296898D01*
X181562449Y-90280139D01*
X181559737Y-90266503D01*
X181559734Y-90266496D01*
X181541493Y-90222458D01*
X181539484Y-90217607D01*
X181537028Y-90211175D01*
X181515789Y-90150478D01*
X181509289Y-90140134D01*
X181499719Y-90121606D01*
X181499394Y-90120821D01*
X181462790Y-90066040D01*
X181460905Y-90063131D01*
X181421237Y-90000000D01*
X181419816Y-89997738D01*
X181292262Y-89870184D01*
X181292260Y-89870182D01*
X181292257Y-89870180D01*
X181226900Y-89829114D01*
X181223982Y-89827223D01*
X181169179Y-89790605D01*
X181169173Y-89790603D01*
X181168365Y-89790268D01*
X181149865Y-89780709D01*
X181139524Y-89774212D01*
X181139523Y-89774211D01*
X181139522Y-89774211D01*
X181078867Y-89752986D01*
X181072377Y-89750509D01*
X181023496Y-89730262D01*
X181009860Y-89727550D01*
X180993104Y-89722976D01*
X180969260Y-89714633D01*
X180969256Y-89714632D01*
X180969255Y-89714632D01*
X180948575Y-89712301D01*
X180918303Y-89708890D01*
X180908003Y-89707288D01*
X180868844Y-89699500D01*
X180868842Y-89699500D01*
X180841915Y-89699500D01*
X180828031Y-89698720D01*
X180790002Y-89694435D01*
X180789998Y-89694435D01*
X180751969Y-89698720D01*
X180738085Y-89699500D01*
X180711152Y-89699500D01*
X180671994Y-89707288D01*
X180661696Y-89708890D01*
X180610742Y-89714632D01*
X180610735Y-89714634D01*
X180586898Y-89722975D01*
X180570140Y-89727550D01*
X180556502Y-89730263D01*
X180556496Y-89730264D01*
X180507631Y-89750504D01*
X180501140Y-89752982D01*
X180440477Y-89774210D01*
X180440474Y-89774212D01*
X180430127Y-89780713D01*
X180411639Y-89790266D01*
X180410832Y-89790600D01*
X180410824Y-89790604D01*
X180356047Y-89827204D01*
X180353132Y-89829092D01*
X180287742Y-89870180D01*
X180287735Y-89870186D01*
X180160186Y-89997735D01*
X180160180Y-89997742D01*
X180119092Y-90063132D01*
X180117209Y-90066038D01*
X180081008Y-90120219D01*
X180080604Y-90120824D01*
X180080600Y-90120832D01*
X180080266Y-90121639D01*
X180070713Y-90140127D01*
X180064212Y-90150474D01*
X180064210Y-90150477D01*
X180042982Y-90211140D01*
X180040504Y-90217631D01*
X180020264Y-90266496D01*
X180020263Y-90266502D01*
X180017550Y-90280140D01*
X180012975Y-90296898D01*
X180004634Y-90320735D01*
X180004632Y-90320742D01*
X179998890Y-90371696D01*
X179997288Y-90381994D01*
X179989500Y-90421152D01*
X179989500Y-90448085D01*
X179988720Y-90461969D01*
X179984435Y-90499998D01*
X179984435Y-90500001D01*
X179988720Y-90538029D01*
X179989500Y-90551914D01*
X179989500Y-90859567D01*
X179969815Y-90926606D01*
X179968602Y-90928458D01*
X179903368Y-91026086D01*
X179827949Y-91208163D01*
X179827947Y-91208171D01*
X179789500Y-91401455D01*
X165975670Y-91401455D01*
X165857466Y-91283251D01*
X165857462Y-91283248D01*
X165693684Y-91173814D01*
X165693671Y-91173807D01*
X165511691Y-91098429D01*
X165511683Y-91098427D01*
X165470000Y-91090135D01*
X165470000Y-91893011D01*
X165460060Y-91875795D01*
X165404205Y-91819940D01*
X165335796Y-91780444D01*
X165259496Y-91760000D01*
X165180504Y-91760000D01*
X165104204Y-91780444D01*
X165035795Y-91819940D01*
X164979940Y-91875795D01*
X164970000Y-91893011D01*
X164970000Y-91090136D01*
X164969999Y-91090135D01*
X164928316Y-91098427D01*
X164928308Y-91098429D01*
X164746328Y-91173807D01*
X164746315Y-91173814D01*
X164582537Y-91283248D01*
X164582533Y-91283251D01*
X164443248Y-91422536D01*
X164330427Y-91591387D01*
X164329003Y-91590435D01*
X164285742Y-91634451D01*
X164217600Y-91649892D01*
X164151927Y-91626041D01*
X164149907Y-91624306D01*
X164149811Y-91624432D01*
X164143367Y-91619487D01*
X164143365Y-91619485D01*
X164073675Y-91579249D01*
X164012136Y-91543719D01*
X163938950Y-91524109D01*
X163865766Y-91504500D01*
X163714234Y-91504500D01*
X163567863Y-91543719D01*
X163436635Y-91619485D01*
X163436632Y-91619487D01*
X163330308Y-91725812D01*
X163268985Y-91759297D01*
X163199293Y-91754313D01*
X163154946Y-91725812D01*
X162898423Y-91469289D01*
X162898420Y-91469285D01*
X162898420Y-91469286D01*
X162891353Y-91462219D01*
X162891353Y-91462218D01*
X162751996Y-91322861D01*
X162751995Y-91322860D01*
X162751994Y-91322859D01*
X162588134Y-91213371D01*
X162588121Y-91213364D01*
X162416463Y-91142262D01*
X162416460Y-91142261D01*
X162406053Y-91137950D01*
X162406043Y-91137947D01*
X162279095Y-91112696D01*
X162234868Y-91103898D01*
X162212756Y-91099500D01*
X162212755Y-91099500D01*
X159301459Y-91099500D01*
X159301457Y-91099500D01*
X159108170Y-91137947D01*
X159108160Y-91137950D01*
X158926092Y-91213364D01*
X158926079Y-91213371D01*
X158762218Y-91322860D01*
X158762214Y-91322863D01*
X158622863Y-91462214D01*
X158622860Y-91462218D01*
X158538995Y-91587730D01*
X158485382Y-91632535D01*
X158416057Y-91641242D01*
X158371335Y-91621934D01*
X158370403Y-91623549D01*
X158363366Y-91619486D01*
X158363365Y-91619485D01*
X158293675Y-91579249D01*
X158232136Y-91543719D01*
X158158950Y-91524109D01*
X158085766Y-91504500D01*
X157934234Y-91504500D01*
X157787863Y-91543719D01*
X157656635Y-91619485D01*
X157650189Y-91624432D01*
X157648099Y-91621709D01*
X157600217Y-91647466D01*
X157530558Y-91642043D01*
X157474888Y-91599821D01*
X157469299Y-91590976D01*
X157356751Y-91422537D01*
X157356748Y-91422533D01*
X157217466Y-91283251D01*
X157217462Y-91283248D01*
X157053684Y-91173814D01*
X157053671Y-91173807D01*
X156871691Y-91098429D01*
X156871683Y-91098427D01*
X156830000Y-91090135D01*
X156830000Y-91893011D01*
X156820060Y-91875795D01*
X156764205Y-91819940D01*
X156695796Y-91780444D01*
X156619496Y-91760000D01*
X156540504Y-91760000D01*
X156464204Y-91780444D01*
X156395795Y-91819940D01*
X156339940Y-91875795D01*
X156330000Y-91893011D01*
X156330000Y-91090136D01*
X156329999Y-91090135D01*
X156288316Y-91098427D01*
X156288308Y-91098429D01*
X156106328Y-91173807D01*
X156106315Y-91173814D01*
X155942537Y-91283248D01*
X155942533Y-91283251D01*
X155803251Y-91422533D01*
X155803248Y-91422537D01*
X155693814Y-91586315D01*
X155693807Y-91586328D01*
X155618430Y-91768306D01*
X155618427Y-91768318D01*
X155580000Y-91961504D01*
X155580000Y-92360000D01*
X156280000Y-92360000D01*
X156280000Y-92860000D01*
X155580000Y-92860000D01*
X155580000Y-93119269D01*
X155560315Y-93186308D01*
X155507511Y-93232063D01*
X155438353Y-93242007D01*
X155374797Y-93212982D01*
X155368319Y-93206950D01*
X155328421Y-93167052D01*
X155328414Y-93167046D01*
X155219742Y-93094435D01*
X155219742Y-93094436D01*
X155219741Y-93094435D01*
X155205495Y-93084916D01*
X155205491Y-93084914D01*
X155205489Y-93084913D01*
X155068917Y-93028343D01*
X155068907Y-93028340D01*
X154923920Y-92999500D01*
X154923918Y-92999500D01*
X152072128Y-92999500D01*
X152005089Y-92979815D01*
X151959334Y-92927011D01*
X151949390Y-92857853D01*
X151955087Y-92834545D01*
X151985366Y-92748012D01*
X151985369Y-92747999D01*
X152005565Y-92568753D01*
X152005565Y-92568746D01*
X151985369Y-92389500D01*
X151985368Y-92389495D01*
X151936723Y-92250476D01*
X151925789Y-92219228D01*
X151829816Y-92066488D01*
X151702262Y-91938934D01*
X151641060Y-91900478D01*
X151549523Y-91842961D01*
X151379254Y-91783381D01*
X151379249Y-91783380D01*
X151200004Y-91763185D01*
X151199996Y-91763185D01*
X151020750Y-91783380D01*
X151020745Y-91783381D01*
X150850476Y-91842961D01*
X150697736Y-91938935D01*
X150694903Y-91941195D01*
X150692724Y-91942084D01*
X150691842Y-91942639D01*
X150691744Y-91942484D01*
X150630217Y-91967605D01*
X150617588Y-91968250D01*
X148468847Y-91968250D01*
X148401808Y-91948565D01*
X148381166Y-91931931D01*
X146691079Y-90241844D01*
X146657594Y-90180521D01*
X146659421Y-90122565D01*
X146659382Y-90122558D01*
X146659430Y-90122299D01*
X146659495Y-90120223D01*
X146660435Y-90116923D01*
X146680536Y-89900000D01*
X146660435Y-89683077D01*
X146600817Y-89473541D01*
X146503712Y-89278528D01*
X146372427Y-89104678D01*
X146248423Y-88991634D01*
X146212145Y-88931927D01*
X146213905Y-88862079D01*
X146248423Y-88808365D01*
X146372427Y-88695322D01*
X146503712Y-88521472D01*
X146600817Y-88326459D01*
X146660435Y-88116923D01*
X146668350Y-88031504D01*
X155580000Y-88031504D01*
X155580000Y-88180000D01*
X156280000Y-88180000D01*
X156280000Y-88680000D01*
X155580000Y-88680000D01*
X155580000Y-88828495D01*
X155618427Y-89021681D01*
X155618430Y-89021693D01*
X155693807Y-89203671D01*
X155693814Y-89203684D01*
X155803248Y-89367462D01*
X155803251Y-89367466D01*
X155942533Y-89506748D01*
X155942537Y-89506751D01*
X156106315Y-89616185D01*
X156106328Y-89616192D01*
X156288308Y-89691569D01*
X156330000Y-89699862D01*
X156330000Y-88896988D01*
X156339940Y-88914205D01*
X156395795Y-88970060D01*
X156464204Y-89009556D01*
X156540504Y-89030000D01*
X156619496Y-89030000D01*
X156695796Y-89009556D01*
X156764205Y-88970060D01*
X156820060Y-88914205D01*
X156830000Y-88896988D01*
X156830000Y-89699862D01*
X156871690Y-89691569D01*
X156871692Y-89691569D01*
X157053671Y-89616192D01*
X157053684Y-89616185D01*
X157217462Y-89506751D01*
X157217466Y-89506748D01*
X157356748Y-89367466D01*
X157356751Y-89367462D01*
X157466185Y-89203684D01*
X157466192Y-89203671D01*
X157541569Y-89021693D01*
X157541572Y-89021681D01*
X157579999Y-88828495D01*
X157580000Y-88828492D01*
X157580000Y-88680000D01*
X156880000Y-88680000D01*
X156880000Y-88180000D01*
X157580000Y-88180000D01*
X157580000Y-88031508D01*
X157579999Y-88031504D01*
X164220000Y-88031504D01*
X164220000Y-88180000D01*
X164920000Y-88180000D01*
X164920000Y-88680000D01*
X164220000Y-88680000D01*
X164220000Y-88828495D01*
X164258427Y-89021681D01*
X164258430Y-89021693D01*
X164333807Y-89203671D01*
X164333814Y-89203684D01*
X164443248Y-89367462D01*
X164443251Y-89367466D01*
X164582533Y-89506748D01*
X164582537Y-89506751D01*
X164746315Y-89616185D01*
X164746328Y-89616192D01*
X164928308Y-89691569D01*
X164970000Y-89699862D01*
X164970000Y-88896988D01*
X164979940Y-88914205D01*
X165035795Y-88970060D01*
X165104204Y-89009556D01*
X165180504Y-89030000D01*
X165259496Y-89030000D01*
X165335796Y-89009556D01*
X165404205Y-88970060D01*
X165460060Y-88914205D01*
X165470000Y-88896988D01*
X165470000Y-89699862D01*
X165511690Y-89691569D01*
X165511692Y-89691569D01*
X165693671Y-89616192D01*
X165693684Y-89616185D01*
X165857462Y-89506751D01*
X165857466Y-89506748D01*
X165996748Y-89367466D01*
X165996751Y-89367462D01*
X166106185Y-89203684D01*
X166106192Y-89203671D01*
X166181569Y-89021693D01*
X166181572Y-89021681D01*
X166219999Y-88828495D01*
X166220000Y-88828492D01*
X166220000Y-88680000D01*
X165520000Y-88680000D01*
X165520000Y-88180000D01*
X166220000Y-88180000D01*
X166220000Y-88031508D01*
X166219999Y-88031504D01*
X166181572Y-87838318D01*
X166181569Y-87838306D01*
X166106192Y-87656328D01*
X166106185Y-87656315D01*
X165996751Y-87492537D01*
X165996748Y-87492533D01*
X165857466Y-87353251D01*
X165857462Y-87353248D01*
X165693684Y-87243814D01*
X165693671Y-87243807D01*
X165511691Y-87168429D01*
X165511683Y-87168427D01*
X165470000Y-87160135D01*
X165470000Y-87963011D01*
X165460060Y-87945795D01*
X165404205Y-87889940D01*
X165335796Y-87850444D01*
X165259496Y-87830000D01*
X165180504Y-87830000D01*
X165104204Y-87850444D01*
X165035795Y-87889940D01*
X164979940Y-87945795D01*
X164970000Y-87963011D01*
X164970000Y-87160136D01*
X164969999Y-87160135D01*
X164928316Y-87168427D01*
X164928308Y-87168429D01*
X164746328Y-87243807D01*
X164746315Y-87243814D01*
X164582537Y-87353248D01*
X164582533Y-87353251D01*
X164443251Y-87492533D01*
X164443248Y-87492537D01*
X164333814Y-87656315D01*
X164333807Y-87656328D01*
X164258430Y-87838306D01*
X164258427Y-87838318D01*
X164220000Y-88031504D01*
X157579999Y-88031504D01*
X157541572Y-87838318D01*
X157541569Y-87838306D01*
X157466192Y-87656328D01*
X157466185Y-87656315D01*
X157356751Y-87492537D01*
X157356748Y-87492533D01*
X157217466Y-87353251D01*
X157217462Y-87353248D01*
X157053684Y-87243814D01*
X157053671Y-87243807D01*
X156871691Y-87168429D01*
X156871683Y-87168427D01*
X156830000Y-87160135D01*
X156830000Y-87963011D01*
X156820060Y-87945795D01*
X156764205Y-87889940D01*
X156695796Y-87850444D01*
X156619496Y-87830000D01*
X156540504Y-87830000D01*
X156464204Y-87850444D01*
X156395795Y-87889940D01*
X156339940Y-87945795D01*
X156330000Y-87963011D01*
X156330000Y-87160136D01*
X156329999Y-87160135D01*
X156288316Y-87168427D01*
X156288308Y-87168429D01*
X156106328Y-87243807D01*
X156106315Y-87243814D01*
X155942537Y-87353248D01*
X155942533Y-87353251D01*
X155803251Y-87492533D01*
X155803248Y-87492537D01*
X155693814Y-87656315D01*
X155693807Y-87656328D01*
X155618430Y-87838306D01*
X155618427Y-87838318D01*
X155580000Y-88031504D01*
X146668350Y-88031504D01*
X146680536Y-87900000D01*
X146660435Y-87683077D01*
X146600817Y-87473541D01*
X146503712Y-87278528D01*
X146372427Y-87104678D01*
X146211432Y-86957912D01*
X146211428Y-86957909D01*
X146211423Y-86957906D01*
X146026213Y-86843229D01*
X146026207Y-86843226D01*
X145941113Y-86810260D01*
X145823069Y-86764530D01*
X145608926Y-86724500D01*
X145391074Y-86724500D01*
X145176931Y-86764530D01*
X145132753Y-86781645D01*
X144973792Y-86843226D01*
X144973786Y-86843229D01*
X144788565Y-86957913D01*
X144777214Y-86968261D01*
X144714408Y-86998875D01*
X144645021Y-86990674D01*
X144594414Y-86950932D01*
X144532187Y-86867809D01*
X144417093Y-86781649D01*
X144417086Y-86781645D01*
X144282379Y-86731403D01*
X144282372Y-86731401D01*
X144222844Y-86725000D01*
X143750000Y-86725000D01*
X143750000Y-87584314D01*
X143745606Y-87579920D01*
X143654394Y-87527259D01*
X143552661Y-87500000D01*
X143447339Y-87500000D01*
X143345606Y-87527259D01*
X143254394Y-87579920D01*
X143250000Y-87584314D01*
X143250000Y-86725000D01*
X142777155Y-86725000D01*
X142717627Y-86731401D01*
X142717620Y-86731403D01*
X142582913Y-86781645D01*
X142582906Y-86781649D01*
X142467812Y-86867809D01*
X142467809Y-86867812D01*
X142381649Y-86982906D01*
X142381645Y-86982913D01*
X142331403Y-87117620D01*
X142331401Y-87117627D01*
X142325000Y-87177155D01*
X142325000Y-87650000D01*
X143184314Y-87650000D01*
X143179920Y-87654394D01*
X143127259Y-87745606D01*
X143100000Y-87847339D01*
X143100000Y-87952661D01*
X143127259Y-88054394D01*
X143179920Y-88145606D01*
X143184314Y-88150000D01*
X142325000Y-88150000D01*
X142325000Y-88622844D01*
X142331401Y-88682372D01*
X142331403Y-88682379D01*
X142381645Y-88817086D01*
X142381649Y-88817093D01*
X142467809Y-88932186D01*
X142553405Y-88996264D01*
X142595276Y-89052198D01*
X142600260Y-89121890D01*
X142578049Y-89170257D01*
X142496288Y-89278528D01*
X142399184Y-89473537D01*
X142399183Y-89473541D01*
X142350613Y-89644249D01*
X142339564Y-89683081D01*
X142319464Y-89899999D01*
X142319464Y-89900000D01*
X142339564Y-90116918D01*
X142339564Y-90116920D01*
X142339565Y-90116923D01*
X142397557Y-90320745D01*
X142399184Y-90326462D01*
X142466052Y-90460750D01*
X142496288Y-90521472D01*
X142627573Y-90695322D01*
X142788568Y-90842088D01*
X142788575Y-90842092D01*
X142788576Y-90842093D01*
X142973786Y-90956770D01*
X142973792Y-90956773D01*
X142996664Y-90965633D01*
X143176931Y-91035470D01*
X143391074Y-91075500D01*
X143391076Y-91075500D01*
X143608924Y-91075500D01*
X143608926Y-91075500D01*
X143823069Y-91035470D01*
X144026210Y-90956772D01*
X144211432Y-90842088D01*
X144372427Y-90695322D01*
X144401047Y-90657422D01*
X144457153Y-90615787D01*
X144526865Y-90611094D01*
X144588048Y-90644836D01*
X144598946Y-90657414D01*
X144627573Y-90695322D01*
X144788568Y-90842088D01*
X144788575Y-90842092D01*
X144788576Y-90842093D01*
X144973786Y-90956770D01*
X144973792Y-90956773D01*
X144996664Y-90965633D01*
X145176931Y-91035470D01*
X145391074Y-91075500D01*
X145391076Y-91075500D01*
X145608923Y-91075500D01*
X145608926Y-91075500D01*
X145727790Y-91053280D01*
X145797301Y-91060311D01*
X145838253Y-91087488D01*
X147538584Y-92787819D01*
X147572069Y-92849142D01*
X147567085Y-92918834D01*
X147525213Y-92974767D01*
X147459749Y-92999184D01*
X147450903Y-92999500D01*
X141212229Y-92999500D01*
X141145190Y-92979815D01*
X141124548Y-92963181D01*
X136853307Y-88691940D01*
X136830651Y-88655867D01*
X136828811Y-88656754D01*
X136825789Y-88650478D01*
X136729815Y-88497737D01*
X136602262Y-88370184D01*
X136449523Y-88274211D01*
X136279254Y-88214631D01*
X136279249Y-88214630D01*
X136100004Y-88194435D01*
X136099996Y-88194435D01*
X135920750Y-88214630D01*
X135920745Y-88214631D01*
X135750476Y-88274211D01*
X135597737Y-88370184D01*
X135470184Y-88497737D01*
X135370507Y-88656373D01*
X135367862Y-88654711D01*
X135330082Y-88696333D01*
X135265465Y-88714500D01*
X113234972Y-88714500D01*
X113194017Y-88707542D01*
X113114254Y-88679631D01*
X113114249Y-88679630D01*
X112935004Y-88659435D01*
X112934996Y-88659435D01*
X112755750Y-88679630D01*
X112755745Y-88679631D01*
X112585476Y-88739211D01*
X112432737Y-88835184D01*
X112305184Y-88962737D01*
X112209211Y-89115476D01*
X112149631Y-89285745D01*
X112149630Y-89285750D01*
X112129435Y-89464996D01*
X112129435Y-89465003D01*
X112149630Y-89644249D01*
X112149631Y-89644254D01*
X112209211Y-89814523D01*
X112262920Y-89899999D01*
X112305184Y-89967262D01*
X112432738Y-90094816D01*
X112489777Y-90130656D01*
X112584726Y-90190317D01*
X112585478Y-90190789D01*
X112675983Y-90222458D01*
X112755745Y-90250368D01*
X112755750Y-90250369D01*
X112934996Y-90270565D01*
X112935000Y-90270565D01*
X112935004Y-90270565D01*
X113114249Y-90250369D01*
X113114252Y-90250368D01*
X113114255Y-90250368D01*
X113194017Y-90222457D01*
X113234972Y-90215500D01*
X135708920Y-90215500D01*
X135806462Y-90196096D01*
X135853913Y-90186658D01*
X135990495Y-90130084D01*
X136012715Y-90115236D01*
X136079390Y-90094357D01*
X136146771Y-90112839D01*
X136169284Y-90130652D01*
X140267048Y-94228415D01*
X140267049Y-94228416D01*
X140361622Y-94322989D01*
X140371585Y-94332952D01*
X140494498Y-94415080D01*
X140494511Y-94415087D01*
X140607360Y-94461830D01*
X140631087Y-94471658D01*
X140631091Y-94471658D01*
X140631092Y-94471659D01*
X140776079Y-94500500D01*
X140776082Y-94500500D01*
X149383678Y-94500500D01*
X149450717Y-94520185D01*
X149496472Y-94572989D01*
X149506898Y-94610617D01*
X149514630Y-94679249D01*
X149574210Y-94849521D01*
X149639907Y-94954076D01*
X149670184Y-95002262D01*
X149797738Y-95129816D01*
X149950478Y-95225789D01*
X150071130Y-95268007D01*
X150120745Y-95285368D01*
X150120750Y-95285369D01*
X150299996Y-95305565D01*
X150300000Y-95305565D01*
X150300004Y-95305565D01*
X150479249Y-95285369D01*
X150479252Y-95285368D01*
X150479255Y-95285368D01*
X150649522Y-95225789D01*
X150802262Y-95129816D01*
X150929816Y-95002262D01*
X151025789Y-94849522D01*
X151085368Y-94679255D01*
X151085607Y-94677139D01*
X151093102Y-94610617D01*
X151120168Y-94546203D01*
X151177763Y-94506648D01*
X151216322Y-94500500D01*
X152383678Y-94500500D01*
X152450717Y-94520185D01*
X152496472Y-94572989D01*
X152506899Y-94610620D01*
X152510060Y-94638683D01*
X152498003Y-94707505D01*
X152450652Y-94758883D01*
X152411031Y-94774180D01*
X152221891Y-94811803D01*
X152221881Y-94811806D01*
X152039813Y-94887220D01*
X152039800Y-94887227D01*
X151875939Y-94996716D01*
X151875935Y-94996719D01*
X151736584Y-95136070D01*
X151736581Y-95136074D01*
X151627092Y-95299935D01*
X151627087Y-95299944D01*
X151557520Y-95467896D01*
X151513679Y-95522299D01*
X151456843Y-95543663D01*
X151270749Y-95564630D01*
X151270745Y-95564631D01*
X151100476Y-95624211D01*
X150947737Y-95720184D01*
X150820184Y-95847737D01*
X150724211Y-96000476D01*
X150664631Y-96170745D01*
X150664630Y-96170750D01*
X150644435Y-96349996D01*
X150644435Y-96350003D01*
X150664630Y-96529249D01*
X150664631Y-96529254D01*
X150724211Y-96699523D01*
X150786429Y-96798541D01*
X150820184Y-96852262D01*
X150947738Y-96979816D01*
X151035643Y-97035050D01*
X151081934Y-97087385D01*
X151092582Y-97156438D01*
X151064207Y-97220287D01*
X151057352Y-97227725D01*
X150676315Y-97608762D01*
X150614992Y-97642247D01*
X150545300Y-97637263D01*
X150500953Y-97608762D01*
X148958750Y-96066559D01*
X148958730Y-96066537D01*
X148815056Y-95922863D01*
X148815052Y-95922860D01*
X148651191Y-95813371D01*
X148651178Y-95813364D01*
X148496900Y-95749461D01*
X148496899Y-95749461D01*
X148469105Y-95737948D01*
X148469100Y-95737946D01*
X148372459Y-95718724D01*
X148275815Y-95699500D01*
X148275812Y-95699500D01*
X146298541Y-95699500D01*
X139698541Y-95699500D01*
X136701459Y-95699500D01*
X136701457Y-95699500D01*
X136508170Y-95737947D01*
X136508160Y-95737950D01*
X136326092Y-95813364D01*
X136326079Y-95813371D01*
X136162218Y-95922860D01*
X136162214Y-95922863D01*
X136022863Y-96062214D01*
X136022860Y-96062218D01*
X135913371Y-96226079D01*
X135913364Y-96226092D01*
X135837950Y-96408160D01*
X135837947Y-96408170D01*
X135799500Y-96601456D01*
X135799500Y-96601459D01*
X135799500Y-96798541D01*
X135799500Y-96798543D01*
X135799499Y-96798543D01*
X135837947Y-96991829D01*
X135837950Y-96991839D01*
X135913364Y-97173907D01*
X135913371Y-97173920D01*
X136022860Y-97337781D01*
X136022863Y-97337785D01*
X136162214Y-97477136D01*
X136162218Y-97477139D01*
X136326079Y-97586628D01*
X136326092Y-97586635D01*
X136503662Y-97660186D01*
X136508165Y-97662051D01*
X136508169Y-97662051D01*
X136508170Y-97662052D01*
X136701456Y-97700500D01*
X136701459Y-97700500D01*
X139501459Y-97700500D01*
X145075500Y-97700500D01*
X145142539Y-97720185D01*
X145188294Y-97772989D01*
X145199500Y-97824500D01*
X145199500Y-102434217D01*
X145179815Y-102501256D01*
X145163181Y-102521898D01*
X143962219Y-103722861D01*
X143322863Y-104362215D01*
X143322860Y-104362219D01*
X143213372Y-104526079D01*
X143213367Y-104526089D01*
X143137949Y-104708163D01*
X143137947Y-104708171D01*
X143099500Y-104901455D01*
X143099500Y-105098544D01*
X143137947Y-105291828D01*
X143137949Y-105291836D01*
X143213367Y-105473910D01*
X143213372Y-105473920D01*
X143322860Y-105637780D01*
X143322863Y-105637784D01*
X143462215Y-105777136D01*
X143462219Y-105777139D01*
X143626079Y-105886627D01*
X143626083Y-105886629D01*
X143626086Y-105886631D01*
X143808164Y-105962051D01*
X144001455Y-106000499D01*
X144001458Y-106000500D01*
X144001460Y-106000500D01*
X144198542Y-106000500D01*
X144198543Y-106000499D01*
X144391836Y-105962051D01*
X144495809Y-105918982D01*
X144565278Y-105911514D01*
X144627757Y-105942789D01*
X144630943Y-105945863D01*
X146665489Y-107980409D01*
X146698974Y-108041732D01*
X146701808Y-108068090D01*
X146701808Y-110219636D01*
X146701808Y-110219638D01*
X146701807Y-110219638D01*
X146740255Y-110412924D01*
X146740258Y-110412934D01*
X146815672Y-110595002D01*
X146815679Y-110595015D01*
X146925168Y-110758876D01*
X146925171Y-110758880D01*
X147064522Y-110898231D01*
X147064526Y-110898234D01*
X147228387Y-111007723D01*
X147228400Y-111007730D01*
X147400258Y-111078915D01*
X147410473Y-111083146D01*
X147410477Y-111083146D01*
X147410478Y-111083147D01*
X147603764Y-111121595D01*
X147603767Y-111121595D01*
X147800851Y-111121595D01*
X147949812Y-111091964D01*
X147994143Y-111083146D01*
X148176222Y-111007727D01*
X148340090Y-110898234D01*
X148479447Y-110758877D01*
X148588940Y-110595009D01*
X148595466Y-110579255D01*
X148664357Y-110412934D01*
X148664359Y-110412930D01*
X148691048Y-110278755D01*
X148723432Y-110216845D01*
X148784148Y-110182271D01*
X148853918Y-110186010D01*
X148900346Y-110215266D01*
X151719735Y-113034655D01*
X151719764Y-113034686D01*
X151866537Y-113181459D01*
X151866559Y-113181479D01*
X154563181Y-115878101D01*
X154596666Y-115939424D01*
X154599500Y-115965782D01*
X154599500Y-116898541D01*
X154599500Y-116898543D01*
X154599499Y-116898543D01*
X154637947Y-117091829D01*
X154637950Y-117091839D01*
X154713364Y-117273907D01*
X154713371Y-117273920D01*
X154822860Y-117437781D01*
X154822863Y-117437785D01*
X154962214Y-117577136D01*
X154962218Y-117577139D01*
X155126079Y-117686628D01*
X155126092Y-117686635D01*
X155200024Y-117717258D01*
X155308165Y-117762051D01*
X155308176Y-117762053D01*
X155311491Y-117763059D01*
X155313023Y-117764063D01*
X155313793Y-117764382D01*
X155313732Y-117764527D01*
X155369931Y-117801355D01*
X155398390Y-117865166D01*
X155399500Y-117881721D01*
X155399500Y-121002885D01*
X155379815Y-121069924D01*
X155327011Y-121115679D01*
X155257853Y-121125623D01*
X155194297Y-121096598D01*
X155158459Y-121043840D01*
X155125790Y-120950480D01*
X155125789Y-120950478D01*
X155029816Y-120797738D01*
X154902262Y-120670184D01*
X154806773Y-120610184D01*
X154749523Y-120574211D01*
X154579254Y-120514631D01*
X154579249Y-120514630D01*
X154400004Y-120494435D01*
X154399996Y-120494435D01*
X154220750Y-120514630D01*
X154220745Y-120514631D01*
X154050476Y-120574211D01*
X153897737Y-120670184D01*
X153770184Y-120797737D01*
X153674211Y-120950476D01*
X153614631Y-121120745D01*
X153614630Y-121120750D01*
X153594435Y-121299996D01*
X153594435Y-121300003D01*
X153614630Y-121479249D01*
X153614631Y-121479254D01*
X153674211Y-121649523D01*
X153705926Y-121699996D01*
X153770184Y-121802262D01*
X153897738Y-121929816D01*
X153925876Y-121947496D01*
X154049809Y-122025369D01*
X154050478Y-122025789D01*
X154118306Y-122049523D01*
X154220745Y-122085368D01*
X154220750Y-122085369D01*
X154399996Y-122105565D01*
X154400000Y-122105565D01*
X154400002Y-122105565D01*
X154454114Y-122099467D01*
X154505721Y-122093653D01*
X154574543Y-122105707D01*
X154625922Y-122153056D01*
X154643547Y-122220666D01*
X154636647Y-122257827D01*
X154614632Y-122320742D01*
X154614630Y-122320750D01*
X154594435Y-122499996D01*
X154594435Y-122500003D01*
X154614630Y-122679249D01*
X154614631Y-122679254D01*
X154674211Y-122849523D01*
X154740556Y-122955109D01*
X154770184Y-123002262D01*
X154897738Y-123129816D01*
X155050478Y-123225789D01*
X155220745Y-123285368D01*
X155220750Y-123285369D01*
X155399996Y-123305565D01*
X155400000Y-123305565D01*
X155400004Y-123305565D01*
X155579249Y-123285369D01*
X155579252Y-123285368D01*
X155579255Y-123285368D01*
X155749522Y-123225789D01*
X155902262Y-123129816D01*
X156029816Y-123002262D01*
X156085052Y-122914353D01*
X156137385Y-122868064D01*
X156206439Y-122857415D01*
X156270287Y-122885790D01*
X156277726Y-122892646D01*
X158663181Y-125278101D01*
X158696666Y-125339424D01*
X158699500Y-125365782D01*
X158699500Y-127498541D01*
X158699500Y-127498543D01*
X158699499Y-127498543D01*
X158737947Y-127691829D01*
X158737950Y-127691839D01*
X158794369Y-127828048D01*
X158801838Y-127897517D01*
X158770562Y-127959996D01*
X158710473Y-127995648D01*
X158679808Y-127999500D01*
X149607940Y-127999500D01*
X149540901Y-127979815D01*
X149520259Y-127963181D01*
X148780177Y-127223099D01*
X148746692Y-127161776D01*
X148751676Y-127092084D01*
X148753261Y-127088054D01*
X148762051Y-127066836D01*
X148800500Y-126873540D01*
X148800500Y-126676460D01*
X148800500Y-123134355D01*
X149850674Y-123134355D01*
X149850674Y-123134362D01*
X149870869Y-123313608D01*
X149870870Y-123313613D01*
X149930450Y-123483882D01*
X149955383Y-123523562D01*
X150026423Y-123636621D01*
X150153977Y-123764175D01*
X150306717Y-123860148D01*
X150476984Y-123919727D01*
X150476989Y-123919728D01*
X150656235Y-123939924D01*
X150656239Y-123939924D01*
X150656243Y-123939924D01*
X150835488Y-123919728D01*
X150835491Y-123919727D01*
X150835494Y-123919727D01*
X151005761Y-123860148D01*
X151158501Y-123764175D01*
X151286055Y-123636621D01*
X151382028Y-123483881D01*
X151441607Y-123313614D01*
X151442514Y-123305565D01*
X151461804Y-123134362D01*
X151461804Y-123134355D01*
X151441608Y-122955109D01*
X151441607Y-122955104D01*
X151413822Y-122875699D01*
X151382028Y-122784837D01*
X151286055Y-122632097D01*
X151158501Y-122504543D01*
X151151271Y-122500000D01*
X151005762Y-122408570D01*
X150835493Y-122348990D01*
X150835488Y-122348989D01*
X150656243Y-122328794D01*
X150656235Y-122328794D01*
X150476989Y-122348989D01*
X150476984Y-122348990D01*
X150306715Y-122408570D01*
X150153976Y-122504543D01*
X150026423Y-122632096D01*
X149930450Y-122784835D01*
X149870870Y-122955104D01*
X149870869Y-122955109D01*
X149850674Y-123134355D01*
X148800500Y-123134355D01*
X148800500Y-118215673D01*
X148800500Y-118215670D01*
X148762052Y-118022384D01*
X148762051Y-118022383D01*
X148762051Y-118022379D01*
X148703789Y-117881721D01*
X148686635Y-117840306D01*
X148686633Y-117840302D01*
X148686632Y-117840300D01*
X148634347Y-117762051D01*
X148604419Y-117717260D01*
X148577140Y-117676433D01*
X145065827Y-114165120D01*
X145032342Y-114103797D01*
X145037326Y-114034105D01*
X145079198Y-113978172D01*
X145144662Y-113953755D01*
X145189641Y-113959754D01*
X145189688Y-113959553D01*
X145191879Y-113960053D01*
X145194465Y-113960398D01*
X145196480Y-113961103D01*
X145196483Y-113961103D01*
X145196485Y-113961104D01*
X145375731Y-113981300D01*
X145375735Y-113981300D01*
X145375739Y-113981300D01*
X145554984Y-113961104D01*
X145554987Y-113961103D01*
X145554990Y-113961103D01*
X145725257Y-113901524D01*
X145877997Y-113805551D01*
X146005551Y-113677997D01*
X146101524Y-113525257D01*
X146161103Y-113354990D01*
X146168805Y-113286632D01*
X146181300Y-113175738D01*
X146181300Y-113175731D01*
X146161104Y-112996485D01*
X146161103Y-112996480D01*
X146101523Y-112826211D01*
X146027403Y-112708250D01*
X146005551Y-112673473D01*
X145877997Y-112545919D01*
X145865356Y-112537976D01*
X145725258Y-112449946D01*
X145554989Y-112390366D01*
X145554984Y-112390365D01*
X145375739Y-112370170D01*
X145375731Y-112370170D01*
X145196485Y-112390365D01*
X145196480Y-112390366D01*
X145026211Y-112449946D01*
X144873472Y-112545919D01*
X144745919Y-112673472D01*
X144649946Y-112826211D01*
X144590366Y-112996480D01*
X144590365Y-112996485D01*
X144570170Y-113175731D01*
X144570170Y-113175738D01*
X144590365Y-113354984D01*
X144590369Y-113355001D01*
X144591073Y-113357012D01*
X144591143Y-113358392D01*
X144591917Y-113361782D01*
X144591323Y-113361917D01*
X144594632Y-113426790D01*
X144559901Y-113487416D01*
X144497906Y-113519641D01*
X144428330Y-113513233D01*
X144386349Y-113485642D01*
X134036819Y-103136112D01*
X134003334Y-103074789D01*
X134000500Y-103048431D01*
X134000500Y-101226456D01*
X133962052Y-101033170D01*
X133962051Y-101033169D01*
X133962051Y-101033165D01*
X133958342Y-101024211D01*
X133886635Y-100851092D01*
X133886628Y-100851079D01*
X133777139Y-100687218D01*
X133777136Y-100687214D01*
X133637785Y-100547863D01*
X133637781Y-100547860D01*
X133473920Y-100438371D01*
X133473907Y-100438364D01*
X133291839Y-100362950D01*
X133291829Y-100362947D01*
X133098543Y-100324500D01*
X133098541Y-100324500D01*
X128398541Y-100324500D01*
X120890673Y-100324500D01*
X120890669Y-100324500D01*
X120794026Y-100343724D01*
X120697381Y-100362947D01*
X120697375Y-100362949D01*
X120644048Y-100385037D01*
X120644048Y-100385038D01*
X120606778Y-100400476D01*
X120515303Y-100438366D01*
X120515293Y-100438371D01*
X120351433Y-100547859D01*
X120291314Y-100607979D01*
X120212075Y-100687218D01*
X117650085Y-103249208D01*
X117588762Y-103282693D01*
X117519070Y-103277709D01*
X117496432Y-103266521D01*
X117349523Y-103174211D01*
X117179254Y-103114631D01*
X117179249Y-103114630D01*
X117000004Y-103094435D01*
X116999996Y-103094435D01*
X116820750Y-103114630D01*
X116820745Y-103114631D01*
X116650476Y-103174211D01*
X116497737Y-103270184D01*
X116370184Y-103397737D01*
X116274211Y-103550476D01*
X116214631Y-103720745D01*
X116214630Y-103720750D01*
X116194435Y-103899996D01*
X116194435Y-103900003D01*
X116214630Y-104079249D01*
X116214631Y-104079254D01*
X116274211Y-104249523D01*
X116341355Y-104356382D01*
X116362893Y-104390659D01*
X116366521Y-104396432D01*
X116385521Y-104463668D01*
X116365153Y-104530504D01*
X116349208Y-104550085D01*
X108583462Y-112315832D01*
X108522139Y-112349317D01*
X108495781Y-112352151D01*
X106037180Y-112352151D01*
X105970141Y-112332466D01*
X105937913Y-112302462D01*
X105857546Y-112195105D01*
X105834709Y-112178009D01*
X105742335Y-112108857D01*
X105742328Y-112108853D01*
X105607482Y-112058559D01*
X105607483Y-112058559D01*
X105547883Y-112052152D01*
X105547881Y-112052151D01*
X105547873Y-112052151D01*
X105547864Y-112052151D01*
X103852129Y-112052151D01*
X103852123Y-112052152D01*
X103792516Y-112058559D01*
X103657671Y-112108853D01*
X103657664Y-112108857D01*
X103542455Y-112195103D01*
X103542452Y-112195106D01*
X103456206Y-112310315D01*
X103456202Y-112310322D01*
X103405908Y-112445168D01*
X103399501Y-112504767D01*
X103399500Y-112504786D01*
X100500500Y-112504786D01*
X100500500Y-109852648D01*
X103395034Y-109852648D01*
X103395034Y-109852653D01*
X103414858Y-110079250D01*
X103414860Y-110079261D01*
X103473730Y-110298968D01*
X103473735Y-110298982D01*
X103569863Y-110505129D01*
X103620974Y-110578123D01*
X104300000Y-109899097D01*
X104300000Y-109905312D01*
X104327259Y-110007045D01*
X104379920Y-110098257D01*
X104454394Y-110172731D01*
X104545606Y-110225392D01*
X104647339Y-110252651D01*
X104653553Y-110252651D01*
X103974526Y-110931676D01*
X104047513Y-110982783D01*
X104047521Y-110982787D01*
X104253668Y-111078915D01*
X104253682Y-111078920D01*
X104473389Y-111137790D01*
X104473400Y-111137792D01*
X104699998Y-111157617D01*
X104700002Y-111157617D01*
X104926599Y-111137792D01*
X104926610Y-111137790D01*
X105146317Y-111078920D01*
X105146331Y-111078915D01*
X105352478Y-110982787D01*
X105425471Y-110931675D01*
X104746447Y-110252651D01*
X104752661Y-110252651D01*
X104854394Y-110225392D01*
X104945606Y-110172731D01*
X105020080Y-110098257D01*
X105072741Y-110007045D01*
X105100000Y-109905312D01*
X105100000Y-109899098D01*
X105779024Y-110578122D01*
X105830136Y-110505129D01*
X105926264Y-110298982D01*
X105926269Y-110298968D01*
X105985139Y-110079261D01*
X105985141Y-110079250D01*
X106004966Y-109852653D01*
X106004966Y-109852648D01*
X105985141Y-109626051D01*
X105985139Y-109626040D01*
X105926269Y-109406333D01*
X105926264Y-109406319D01*
X105830136Y-109200172D01*
X105830132Y-109200164D01*
X105779025Y-109127177D01*
X105100000Y-109806202D01*
X105100000Y-109799990D01*
X105072741Y-109698257D01*
X105020080Y-109607045D01*
X104945606Y-109532571D01*
X104854394Y-109479910D01*
X104752661Y-109452651D01*
X104746448Y-109452651D01*
X105425472Y-108773625D01*
X105352478Y-108722514D01*
X105146331Y-108626386D01*
X105146317Y-108626381D01*
X104926610Y-108567511D01*
X104926599Y-108567509D01*
X104700002Y-108547685D01*
X104699998Y-108547685D01*
X104473400Y-108567509D01*
X104473389Y-108567511D01*
X104253682Y-108626381D01*
X104253673Y-108626385D01*
X104047516Y-108722517D01*
X104047512Y-108722519D01*
X103974526Y-108773624D01*
X103974526Y-108773625D01*
X104653553Y-109452651D01*
X104647339Y-109452651D01*
X104545606Y-109479910D01*
X104454394Y-109532571D01*
X104379920Y-109607045D01*
X104327259Y-109698257D01*
X104300000Y-109799990D01*
X104300000Y-109806203D01*
X103620974Y-109127177D01*
X103620973Y-109127177D01*
X103569868Y-109200163D01*
X103569866Y-109200167D01*
X103473734Y-109406324D01*
X103473730Y-109406333D01*
X103414860Y-109626040D01*
X103414858Y-109626051D01*
X103395034Y-109852648D01*
X100500500Y-109852648D01*
X100500500Y-102839996D01*
X108594435Y-102839996D01*
X108594435Y-102840003D01*
X108614630Y-103019249D01*
X108614631Y-103019254D01*
X108674211Y-103189523D01*
X108735291Y-103286730D01*
X108770184Y-103342262D01*
X108897738Y-103469816D01*
X108949070Y-103502070D01*
X109026110Y-103550478D01*
X109050478Y-103565789D01*
X109074547Y-103574211D01*
X109220745Y-103625368D01*
X109220750Y-103625369D01*
X109399996Y-103645565D01*
X109400000Y-103645565D01*
X109400004Y-103645565D01*
X109579249Y-103625369D01*
X109579252Y-103625368D01*
X109579255Y-103625368D01*
X109749522Y-103565789D01*
X109902262Y-103469816D01*
X110029816Y-103342262D01*
X110125789Y-103189522D01*
X110185368Y-103019255D01*
X110185369Y-103019249D01*
X110205565Y-102840003D01*
X110205565Y-102839996D01*
X110185369Y-102660750D01*
X110185368Y-102660745D01*
X110155088Y-102574211D01*
X110125789Y-102490478D01*
X110029816Y-102337738D01*
X109902262Y-102210184D01*
X109749523Y-102114211D01*
X109579254Y-102054631D01*
X109579249Y-102054630D01*
X109400004Y-102034435D01*
X109399996Y-102034435D01*
X109220750Y-102054630D01*
X109220745Y-102054631D01*
X109050476Y-102114211D01*
X108897737Y-102210184D01*
X108770184Y-102337737D01*
X108674211Y-102490476D01*
X108614631Y-102660745D01*
X108614630Y-102660750D01*
X108594435Y-102839996D01*
X100500500Y-102839996D01*
X100500500Y-96299996D01*
X115794435Y-96299996D01*
X115794435Y-96300003D01*
X115814630Y-96479249D01*
X115814631Y-96479254D01*
X115874211Y-96649523D01*
X115935757Y-96747472D01*
X115970184Y-96802262D01*
X116097738Y-96929816D01*
X116188080Y-96986582D01*
X116230703Y-97013364D01*
X116250478Y-97025789D01*
X116377352Y-97070184D01*
X116420745Y-97085368D01*
X116420750Y-97085369D01*
X116599996Y-97105565D01*
X116600000Y-97105565D01*
X116600004Y-97105565D01*
X116779249Y-97085369D01*
X116779252Y-97085368D01*
X116779255Y-97085368D01*
X116949522Y-97025789D01*
X117102262Y-96929816D01*
X117229816Y-96802262D01*
X117325789Y-96649522D01*
X117385368Y-96479255D01*
X117391960Y-96420750D01*
X117405565Y-96300003D01*
X117405565Y-96299996D01*
X117385369Y-96120750D01*
X117385368Y-96120745D01*
X117325789Y-95950478D01*
X117308435Y-95922860D01*
X117277867Y-95874211D01*
X117229816Y-95797738D01*
X117102262Y-95670184D01*
X117072635Y-95651568D01*
X116949523Y-95574211D01*
X116779254Y-95514631D01*
X116779249Y-95514630D01*
X116600004Y-95494435D01*
X116599996Y-95494435D01*
X116420750Y-95514630D01*
X116420745Y-95514631D01*
X116250476Y-95574211D01*
X116097737Y-95670184D01*
X115970184Y-95797737D01*
X115874211Y-95950476D01*
X115814631Y-96120745D01*
X115814630Y-96120750D01*
X115794435Y-96299996D01*
X100500500Y-96299996D01*
X100500500Y-94539996D01*
X105694435Y-94539996D01*
X105694435Y-94540003D01*
X105714630Y-94719249D01*
X105714631Y-94719254D01*
X105747017Y-94811806D01*
X105774211Y-94889522D01*
X105870184Y-95042262D01*
X105997738Y-95169816D01*
X106150478Y-95265789D01*
X106287157Y-95313615D01*
X106320745Y-95325368D01*
X106320750Y-95325369D01*
X106499996Y-95345565D01*
X106500000Y-95345565D01*
X106500004Y-95345565D01*
X106679249Y-95325369D01*
X106679252Y-95325368D01*
X106679255Y-95325368D01*
X106849522Y-95265789D01*
X107002262Y-95169816D01*
X107129816Y-95042262D01*
X107185227Y-94954076D01*
X107619294Y-94954076D01*
X107619294Y-94954083D01*
X107639489Y-95133329D01*
X107639490Y-95133334D01*
X107699070Y-95303603D01*
X107752142Y-95388066D01*
X107795043Y-95456342D01*
X107922597Y-95583896D01*
X107986758Y-95624211D01*
X108068084Y-95675312D01*
X108075337Y-95679869D01*
X108190551Y-95720184D01*
X108245604Y-95739448D01*
X108245609Y-95739449D01*
X108424855Y-95759645D01*
X108424859Y-95759645D01*
X108424863Y-95759645D01*
X108604108Y-95739449D01*
X108604111Y-95739448D01*
X108604114Y-95739448D01*
X108774381Y-95679869D01*
X108927121Y-95583896D01*
X109054675Y-95456342D01*
X109097576Y-95388064D01*
X109149909Y-95341774D01*
X109218962Y-95331125D01*
X109282811Y-95359500D01*
X109307563Y-95388065D01*
X109356756Y-95466355D01*
X109484310Y-95593909D01*
X109637050Y-95689882D01*
X109778704Y-95739449D01*
X109807317Y-95749461D01*
X109807322Y-95749462D01*
X109986568Y-95769658D01*
X109986572Y-95769658D01*
X109986576Y-95769658D01*
X110165821Y-95749462D01*
X110165824Y-95749461D01*
X110165827Y-95749461D01*
X110336094Y-95689882D01*
X110488834Y-95593909D01*
X110616388Y-95466355D01*
X110712361Y-95313615D01*
X110771940Y-95143348D01*
X110772760Y-95136070D01*
X110792137Y-94964096D01*
X110792137Y-94964089D01*
X110771941Y-94784843D01*
X110771940Y-94784838D01*
X110767922Y-94773356D01*
X110712361Y-94614571D01*
X110709878Y-94610620D01*
X110622563Y-94471659D01*
X110616388Y-94461831D01*
X110488834Y-94334277D01*
X110477331Y-94327049D01*
X110336095Y-94238304D01*
X110165826Y-94178724D01*
X110165821Y-94178723D01*
X109986576Y-94158528D01*
X109986568Y-94158528D01*
X109807322Y-94178723D01*
X109807317Y-94178724D01*
X109637048Y-94238304D01*
X109484309Y-94334277D01*
X109356754Y-94461832D01*
X109313854Y-94530108D01*
X109261520Y-94576398D01*
X109192466Y-94587046D01*
X109128618Y-94558671D01*
X109103867Y-94530107D01*
X109060967Y-94461832D01*
X109054675Y-94451818D01*
X108927121Y-94324264D01*
X108841055Y-94270185D01*
X108774382Y-94228291D01*
X108604113Y-94168711D01*
X108604108Y-94168710D01*
X108424863Y-94148515D01*
X108424855Y-94148515D01*
X108245609Y-94168710D01*
X108245604Y-94168711D01*
X108075335Y-94228291D01*
X107922596Y-94324264D01*
X107795043Y-94451817D01*
X107699070Y-94604556D01*
X107639490Y-94774825D01*
X107639489Y-94774830D01*
X107619294Y-94954076D01*
X107185227Y-94954076D01*
X107225789Y-94889522D01*
X107285368Y-94719255D01*
X107285369Y-94719249D01*
X107305565Y-94540003D01*
X107305565Y-94539996D01*
X107285369Y-94360750D01*
X107285368Y-94360745D01*
X107253680Y-94270185D01*
X107225789Y-94190478D01*
X107222527Y-94185287D01*
X107174880Y-94109457D01*
X107129816Y-94037738D01*
X107002262Y-93910184D01*
X106849523Y-93814211D01*
X106679254Y-93754631D01*
X106679249Y-93754630D01*
X106500004Y-93734435D01*
X106499996Y-93734435D01*
X106320750Y-93754630D01*
X106320745Y-93754631D01*
X106150476Y-93814211D01*
X105997737Y-93910184D01*
X105870184Y-94037737D01*
X105774211Y-94190476D01*
X105714631Y-94360745D01*
X105714630Y-94360750D01*
X105694435Y-94539996D01*
X100500500Y-94539996D01*
X100500500Y-92599996D01*
X135094435Y-92599996D01*
X135094435Y-92600003D01*
X135114630Y-92779249D01*
X135114631Y-92779254D01*
X135174211Y-92949523D01*
X135244916Y-93062049D01*
X135270184Y-93102262D01*
X135397738Y-93229816D01*
X135550478Y-93325789D01*
X135603108Y-93344205D01*
X135720745Y-93385368D01*
X135720750Y-93385369D01*
X135899996Y-93405565D01*
X135900000Y-93405565D01*
X135900004Y-93405565D01*
X136079249Y-93385369D01*
X136079252Y-93385368D01*
X136079255Y-93385368D01*
X136249522Y-93325789D01*
X136402262Y-93229816D01*
X136529816Y-93102262D01*
X136625789Y-92949522D01*
X136685368Y-92779255D01*
X136685369Y-92779249D01*
X136705565Y-92600003D01*
X136705565Y-92599996D01*
X136685369Y-92420750D01*
X136685368Y-92420745D01*
X136647794Y-92313366D01*
X136625789Y-92250478D01*
X136625174Y-92249500D01*
X136555983Y-92139383D01*
X136529816Y-92097738D01*
X136402262Y-91970184D01*
X136360915Y-91944204D01*
X136249523Y-91874211D01*
X136079254Y-91814631D01*
X136079249Y-91814630D01*
X135900004Y-91794435D01*
X135899996Y-91794435D01*
X135720750Y-91814630D01*
X135720745Y-91814631D01*
X135550476Y-91874211D01*
X135397737Y-91970184D01*
X135270184Y-92097737D01*
X135174211Y-92250476D01*
X135114631Y-92420745D01*
X135114630Y-92420750D01*
X135094435Y-92599996D01*
X100500500Y-92599996D01*
X100500500Y-91433078D01*
X100520185Y-91366039D01*
X100572989Y-91320284D01*
X100642147Y-91310340D01*
X100690471Y-91328084D01*
X100706458Y-91338129D01*
X100750475Y-91365788D01*
X100920745Y-91425368D01*
X100920750Y-91425369D01*
X101099996Y-91445565D01*
X101100000Y-91445565D01*
X101100004Y-91445565D01*
X101279249Y-91425369D01*
X101279252Y-91425368D01*
X101279255Y-91425368D01*
X101449522Y-91365789D01*
X101602262Y-91269816D01*
X101729816Y-91142262D01*
X101825789Y-90989522D01*
X101885368Y-90819255D01*
X101890897Y-90770184D01*
X101905565Y-90640003D01*
X101905565Y-90639996D01*
X101885369Y-90460750D01*
X101885368Y-90460745D01*
X101871516Y-90421158D01*
X101825789Y-90290478D01*
X101824660Y-90288682D01*
X101763150Y-90190789D01*
X101729816Y-90137738D01*
X101602262Y-90010184D01*
X101539766Y-89970915D01*
X101449523Y-89914211D01*
X101279254Y-89854631D01*
X101279249Y-89854630D01*
X101100004Y-89834435D01*
X101099996Y-89834435D01*
X100920750Y-89854630D01*
X100920745Y-89854631D01*
X100750476Y-89914211D01*
X100690472Y-89951915D01*
X100623235Y-89970915D01*
X100556400Y-89950547D01*
X100511186Y-89897279D01*
X100500500Y-89846921D01*
X100500500Y-85624500D01*
X100520185Y-85557461D01*
X100572989Y-85511706D01*
X100624500Y-85500500D01*
X199375500Y-85500500D01*
X199442539Y-85520185D01*
G37*
%TD.AperFunction*%
%TD*%
M02*
