%TF.GenerationSoftware,KiCad,Pcbnew,8.0.5*%
%TF.CreationDate,2024-12-04T18:09:43+09:00*%
%TF.ProjectId,GESC_Logic,47455343-5f4c-46f6-9769-632e6b696361,rev?*%
%TF.SameCoordinates,Original*%
%TF.FileFunction,Legend,Bot*%
%TF.FilePolarity,Positive*%
%FSLAX46Y46*%
G04 Gerber Fmt 4.6, Leading zero omitted, Abs format (unit mm)*
G04 Created by KiCad (PCBNEW 8.0.5) date 2024-12-04 18:09:43*
%MOMM*%
%LPD*%
G01*
G04 APERTURE LIST*
%ADD10C,0.150000*%
%ADD11C,0.120000*%
G04 APERTURE END LIST*
D10*
X158454819Y-145690476D02*
X159169104Y-145690476D01*
X159169104Y-145690476D02*
X159311961Y-145642857D01*
X159311961Y-145642857D02*
X159407200Y-145547619D01*
X159407200Y-145547619D02*
X159454819Y-145404762D01*
X159454819Y-145404762D02*
X159454819Y-145309524D01*
X159454819Y-146690476D02*
X159454819Y-146119048D01*
X159454819Y-146404762D02*
X158454819Y-146404762D01*
X158454819Y-146404762D02*
X158597676Y-146309524D01*
X158597676Y-146309524D02*
X158692914Y-146214286D01*
X158692914Y-146214286D02*
X158740533Y-146119048D01*
X158454819Y-147023810D02*
X158454819Y-147690476D01*
X158454819Y-147690476D02*
X159454819Y-147261905D01*
X151454819Y-122166666D02*
X152169104Y-122166666D01*
X152169104Y-122166666D02*
X152311961Y-122119047D01*
X152311961Y-122119047D02*
X152407200Y-122023809D01*
X152407200Y-122023809D02*
X152454819Y-121880952D01*
X152454819Y-121880952D02*
X152454819Y-121785714D01*
X151788152Y-123071428D02*
X152454819Y-123071428D01*
X151407200Y-122833333D02*
X152121485Y-122595238D01*
X152121485Y-122595238D02*
X152121485Y-123214285D01*
X119454819Y-145690476D02*
X120169104Y-145690476D01*
X120169104Y-145690476D02*
X120311961Y-145642857D01*
X120311961Y-145642857D02*
X120407200Y-145547619D01*
X120407200Y-145547619D02*
X120454819Y-145404762D01*
X120454819Y-145404762D02*
X120454819Y-145309524D01*
X120454819Y-146690476D02*
X120454819Y-146119048D01*
X120454819Y-146404762D02*
X119454819Y-146404762D01*
X119454819Y-146404762D02*
X119597676Y-146309524D01*
X119597676Y-146309524D02*
X119692914Y-146214286D01*
X119692914Y-146214286D02*
X119740533Y-146119048D01*
X119454819Y-147547619D02*
X119454819Y-147357143D01*
X119454819Y-147357143D02*
X119502438Y-147261905D01*
X119502438Y-147261905D02*
X119550057Y-147214286D01*
X119550057Y-147214286D02*
X119692914Y-147119048D01*
X119692914Y-147119048D02*
X119883390Y-147071429D01*
X119883390Y-147071429D02*
X120264342Y-147071429D01*
X120264342Y-147071429D02*
X120359580Y-147119048D01*
X120359580Y-147119048D02*
X120407200Y-147166667D01*
X120407200Y-147166667D02*
X120454819Y-147261905D01*
X120454819Y-147261905D02*
X120454819Y-147452381D01*
X120454819Y-147452381D02*
X120407200Y-147547619D01*
X120407200Y-147547619D02*
X120359580Y-147595238D01*
X120359580Y-147595238D02*
X120264342Y-147642857D01*
X120264342Y-147642857D02*
X120026247Y-147642857D01*
X120026247Y-147642857D02*
X119931009Y-147595238D01*
X119931009Y-147595238D02*
X119883390Y-147547619D01*
X119883390Y-147547619D02*
X119835771Y-147452381D01*
X119835771Y-147452381D02*
X119835771Y-147261905D01*
X119835771Y-147261905D02*
X119883390Y-147166667D01*
X119883390Y-147166667D02*
X119931009Y-147119048D01*
X119931009Y-147119048D02*
X120026247Y-147071429D01*
X190854819Y-92316666D02*
X191569104Y-92316666D01*
X191569104Y-92316666D02*
X191711961Y-92269047D01*
X191711961Y-92269047D02*
X191807200Y-92173809D01*
X191807200Y-92173809D02*
X191854819Y-92030952D01*
X191854819Y-92030952D02*
X191854819Y-91935714D01*
X191854819Y-92792857D02*
X190854819Y-92792857D01*
X190854819Y-92792857D02*
X190854819Y-93173809D01*
X190854819Y-93173809D02*
X190902438Y-93269047D01*
X190902438Y-93269047D02*
X190950057Y-93316666D01*
X190950057Y-93316666D02*
X191045295Y-93364285D01*
X191045295Y-93364285D02*
X191188152Y-93364285D01*
X191188152Y-93364285D02*
X191283390Y-93316666D01*
X191283390Y-93316666D02*
X191331009Y-93269047D01*
X191331009Y-93269047D02*
X191378628Y-93173809D01*
X191378628Y-93173809D02*
X191378628Y-92792857D01*
X191854819Y-94316666D02*
X191854819Y-93745238D01*
X191854819Y-94030952D02*
X190854819Y-94030952D01*
X190854819Y-94030952D02*
X190997676Y-93935714D01*
X190997676Y-93935714D02*
X191092914Y-93840476D01*
X191092914Y-93840476D02*
X191140533Y-93745238D01*
X198454819Y-145690476D02*
X199169104Y-145690476D01*
X199169104Y-145690476D02*
X199311961Y-145642857D01*
X199311961Y-145642857D02*
X199407200Y-145547619D01*
X199407200Y-145547619D02*
X199454819Y-145404762D01*
X199454819Y-145404762D02*
X199454819Y-145309524D01*
X199454819Y-146690476D02*
X199454819Y-146119048D01*
X199454819Y-146404762D02*
X198454819Y-146404762D01*
X198454819Y-146404762D02*
X198597676Y-146309524D01*
X198597676Y-146309524D02*
X198692914Y-146214286D01*
X198692914Y-146214286D02*
X198740533Y-146119048D01*
X198883390Y-147261905D02*
X198835771Y-147166667D01*
X198835771Y-147166667D02*
X198788152Y-147119048D01*
X198788152Y-147119048D02*
X198692914Y-147071429D01*
X198692914Y-147071429D02*
X198645295Y-147071429D01*
X198645295Y-147071429D02*
X198550057Y-147119048D01*
X198550057Y-147119048D02*
X198502438Y-147166667D01*
X198502438Y-147166667D02*
X198454819Y-147261905D01*
X198454819Y-147261905D02*
X198454819Y-147452381D01*
X198454819Y-147452381D02*
X198502438Y-147547619D01*
X198502438Y-147547619D02*
X198550057Y-147595238D01*
X198550057Y-147595238D02*
X198645295Y-147642857D01*
X198645295Y-147642857D02*
X198692914Y-147642857D01*
X198692914Y-147642857D02*
X198788152Y-147595238D01*
X198788152Y-147595238D02*
X198835771Y-147547619D01*
X198835771Y-147547619D02*
X198883390Y-147452381D01*
X198883390Y-147452381D02*
X198883390Y-147261905D01*
X198883390Y-147261905D02*
X198931009Y-147166667D01*
X198931009Y-147166667D02*
X198978628Y-147119048D01*
X198978628Y-147119048D02*
X199073866Y-147071429D01*
X199073866Y-147071429D02*
X199264342Y-147071429D01*
X199264342Y-147071429D02*
X199359580Y-147119048D01*
X199359580Y-147119048D02*
X199407200Y-147166667D01*
X199407200Y-147166667D02*
X199454819Y-147261905D01*
X199454819Y-147261905D02*
X199454819Y-147452381D01*
X199454819Y-147452381D02*
X199407200Y-147547619D01*
X199407200Y-147547619D02*
X199359580Y-147595238D01*
X199359580Y-147595238D02*
X199264342Y-147642857D01*
X199264342Y-147642857D02*
X199073866Y-147642857D01*
X199073866Y-147642857D02*
X198978628Y-147595238D01*
X198978628Y-147595238D02*
X198931009Y-147547619D01*
X198931009Y-147547619D02*
X198883390Y-147452381D01*
X191454819Y-122166666D02*
X192169104Y-122166666D01*
X192169104Y-122166666D02*
X192311961Y-122119047D01*
X192311961Y-122119047D02*
X192407200Y-122023809D01*
X192407200Y-122023809D02*
X192454819Y-121880952D01*
X192454819Y-121880952D02*
X192454819Y-121785714D01*
X191454819Y-123119047D02*
X191454819Y-122642857D01*
X191454819Y-122642857D02*
X191931009Y-122595238D01*
X191931009Y-122595238D02*
X191883390Y-122642857D01*
X191883390Y-122642857D02*
X191835771Y-122738095D01*
X191835771Y-122738095D02*
X191835771Y-122976190D01*
X191835771Y-122976190D02*
X191883390Y-123071428D01*
X191883390Y-123071428D02*
X191931009Y-123119047D01*
X191931009Y-123119047D02*
X192026247Y-123166666D01*
X192026247Y-123166666D02*
X192264342Y-123166666D01*
X192264342Y-123166666D02*
X192359580Y-123119047D01*
X192359580Y-123119047D02*
X192407200Y-123071428D01*
X192407200Y-123071428D02*
X192454819Y-122976190D01*
X192454819Y-122976190D02*
X192454819Y-122738095D01*
X192454819Y-122738095D02*
X192407200Y-122642857D01*
X192407200Y-122642857D02*
X192359580Y-122595238D01*
X120014819Y-122166666D02*
X120729104Y-122166666D01*
X120729104Y-122166666D02*
X120871961Y-122119047D01*
X120871961Y-122119047D02*
X120967200Y-122023809D01*
X120967200Y-122023809D02*
X121014819Y-121880952D01*
X121014819Y-121880952D02*
X121014819Y-121785714D01*
X120014819Y-122547619D02*
X120014819Y-123166666D01*
X120014819Y-123166666D02*
X120395771Y-122833333D01*
X120395771Y-122833333D02*
X120395771Y-122976190D01*
X120395771Y-122976190D02*
X120443390Y-123071428D01*
X120443390Y-123071428D02*
X120491009Y-123119047D01*
X120491009Y-123119047D02*
X120586247Y-123166666D01*
X120586247Y-123166666D02*
X120824342Y-123166666D01*
X120824342Y-123166666D02*
X120919580Y-123119047D01*
X120919580Y-123119047D02*
X120967200Y-123071428D01*
X120967200Y-123071428D02*
X121014819Y-122976190D01*
X121014819Y-122976190D02*
X121014819Y-122690476D01*
X121014819Y-122690476D02*
X120967200Y-122595238D01*
X120967200Y-122595238D02*
X120919580Y-122547619D01*
X193484819Y-92482142D02*
X193008628Y-92148809D01*
X193484819Y-91910714D02*
X192484819Y-91910714D01*
X192484819Y-91910714D02*
X192484819Y-92291666D01*
X192484819Y-92291666D02*
X192532438Y-92386904D01*
X192532438Y-92386904D02*
X192580057Y-92434523D01*
X192580057Y-92434523D02*
X192675295Y-92482142D01*
X192675295Y-92482142D02*
X192818152Y-92482142D01*
X192818152Y-92482142D02*
X192913390Y-92434523D01*
X192913390Y-92434523D02*
X192961009Y-92386904D01*
X192961009Y-92386904D02*
X193008628Y-92291666D01*
X193008628Y-92291666D02*
X193008628Y-91910714D01*
X193484819Y-93434523D02*
X193484819Y-92863095D01*
X193484819Y-93148809D02*
X192484819Y-93148809D01*
X192484819Y-93148809D02*
X192627676Y-93053571D01*
X192627676Y-93053571D02*
X192722914Y-92958333D01*
X192722914Y-92958333D02*
X192770533Y-92863095D01*
X192580057Y-93815476D02*
X192532438Y-93863095D01*
X192532438Y-93863095D02*
X192484819Y-93958333D01*
X192484819Y-93958333D02*
X192484819Y-94196428D01*
X192484819Y-94196428D02*
X192532438Y-94291666D01*
X192532438Y-94291666D02*
X192580057Y-94339285D01*
X192580057Y-94339285D02*
X192675295Y-94386904D01*
X192675295Y-94386904D02*
X192770533Y-94386904D01*
X192770533Y-94386904D02*
X192913390Y-94339285D01*
X192913390Y-94339285D02*
X193484819Y-93767857D01*
X193484819Y-93767857D02*
X193484819Y-94386904D01*
D11*
%TO.C,J17*%
X155440000Y-144440000D02*
X155440000Y-148560000D01*
X155440000Y-144440000D02*
X155740000Y-144440000D01*
X155440000Y-148560000D02*
X155740000Y-148560000D01*
X157260000Y-142060000D02*
X157260000Y-144440000D01*
X157260000Y-144440000D02*
X157560000Y-144440000D01*
X157260000Y-148560000D02*
X157560000Y-148560000D01*
X157560000Y-144440000D02*
X157560000Y-148560000D01*
%TO.C,J4*%
X153440000Y-124560000D02*
X153440000Y-120440000D01*
X153740000Y-120440000D02*
X153440000Y-120440000D01*
X153740000Y-124560000D02*
X153440000Y-124560000D01*
X153740000Y-126940000D02*
X153740000Y-124560000D01*
X155740000Y-120440000D02*
X155260000Y-120440000D01*
X155740000Y-124560000D02*
X155260000Y-124560000D01*
X157740000Y-120440000D02*
X157260000Y-120440000D01*
X157740000Y-124560000D02*
X157260000Y-124560000D01*
X159560000Y-120440000D02*
X159260000Y-120440000D01*
X159560000Y-124560000D02*
X159260000Y-124560000D01*
X159560000Y-124560000D02*
X159560000Y-120440000D01*
%TO.C,J16*%
X116440000Y-144440000D02*
X116440000Y-148560000D01*
X116440000Y-144440000D02*
X116740000Y-144440000D01*
X116440000Y-148560000D02*
X116740000Y-148560000D01*
X118260000Y-142060000D02*
X118260000Y-144440000D01*
X118260000Y-144440000D02*
X118560000Y-144440000D01*
X118260000Y-148560000D02*
X118560000Y-148560000D01*
X118560000Y-144440000D02*
X118560000Y-148560000D01*
%TO.C,JP1*%
X188600000Y-93850000D02*
X188600000Y-92450000D01*
X189300000Y-91750000D02*
X189900000Y-91750000D01*
X189900000Y-94550000D02*
X189300000Y-94550000D01*
X190600000Y-92450000D02*
X190600000Y-93850000D01*
X188600000Y-92450000D02*
G75*
G02*
X189300000Y-91750000I700000J0D01*
G01*
X189300000Y-94550000D02*
G75*
G02*
X188600000Y-93850000I-1J699999D01*
G01*
X189900000Y-91750000D02*
G75*
G02*
X190600000Y-92450000I0J-700000D01*
G01*
X190600000Y-93850000D02*
G75*
G02*
X189900000Y-94550000I-699999J-1D01*
G01*
%TO.C,J18*%
X195440000Y-144440000D02*
X195440000Y-148560000D01*
X195440000Y-144440000D02*
X195740000Y-144440000D01*
X195440000Y-148560000D02*
X195740000Y-148560000D01*
X197260000Y-142060000D02*
X197260000Y-144440000D01*
X197260000Y-144440000D02*
X197560000Y-144440000D01*
X197260000Y-148560000D02*
X197560000Y-148560000D01*
X197560000Y-144440000D02*
X197560000Y-148560000D01*
%TO.C,J5*%
X193440000Y-124560000D02*
X193440000Y-120440000D01*
X193740000Y-120440000D02*
X193440000Y-120440000D01*
X193740000Y-124560000D02*
X193440000Y-124560000D01*
X193740000Y-126940000D02*
X193740000Y-124560000D01*
X195740000Y-120440000D02*
X195260000Y-120440000D01*
X195740000Y-124560000D02*
X195260000Y-124560000D01*
X197740000Y-120440000D02*
X197260000Y-120440000D01*
X197740000Y-124560000D02*
X197260000Y-124560000D01*
X199560000Y-120440000D02*
X199260000Y-120440000D01*
X199560000Y-124560000D02*
X199260000Y-124560000D01*
X199560000Y-124560000D02*
X199560000Y-120440000D01*
%TO.C,J3*%
X115440000Y-120440000D02*
X115440000Y-124560000D01*
X115440000Y-120440000D02*
X115740000Y-120440000D01*
X115440000Y-124560000D02*
X115740000Y-124560000D01*
X117260000Y-120440000D02*
X117740000Y-120440000D01*
X117260000Y-124560000D02*
X117740000Y-124560000D01*
X119260000Y-120440000D02*
X119560000Y-120440000D01*
X119260000Y-124560000D02*
X119260000Y-125815000D01*
X119260000Y-124560000D02*
X119560000Y-124560000D01*
X119560000Y-120440000D02*
X119560000Y-124560000D01*
%TO.C,R12*%
X191077500Y-92887742D02*
X191077500Y-93362258D01*
X192122500Y-92887742D02*
X192122500Y-93362258D01*
%TD*%
M02*
